<svg version="1.1" xmlns="http://www.w3.org/2000/svg" xmlns:xlink="http://www.w3.org/1999/xlink" width="91.3" height="91.3"><defs><linearGradient x1="194.2625" y1="182.28288" x2="285.5625" y2="182.28288" gradientUnits="userSpaceOnUse" id="color-1"><stop offset="0" stop-color="#8dc63f"/><stop offset="1" stop-color="#006838"/></linearGradient><radialGradient cx="239.9125" cy="182.28288" r="37.33774" gradientUnits="userSpaceOnUse" id="color-2"><stop offset="0" stop-color="#d7df23"/><stop offset="1" stop-color="#009444"/></radialGradient></defs><g transform="translate(-194.2625,-136.632)"><g data-paper-data="{&quot;isPaintingLayer&quot;:true}" fill="none" fill-rule="nonzero" stroke="none" stroke-width="1" stroke-linecap="butt" stroke-linejoin="miter" stroke-miterlimit="10" stroke-dasharray="" stroke-dashoffset="0" font-family="none" font-weight="none" font-size="none" text-anchor="none" style="mix-blend-mode: normal"><path d="M285.5625,182.282c0,25.1702 -20.4776,45.65 -45.65,45.65c-25.1713,0 -45.65,-20.4798 -45.65,-45.65c0,-25.1713 20.4776,-45.65 45.65,-45.65c25.1724,0 45.65,20.4798 45.65,45.65z" data-paper-data="{&quot;origPos&quot;:null}" fill="url(#color-1)"/><path d="M202.5741,182.2831c0,-20.62143 16.71697,-37.3384 37.3384,-37.3384c20.62143,0 37.3384,16.71697 37.3384,37.3384c0,20.62143 -16.71697,37.3384 -37.3384,37.3384c-20.62143,0 -37.3384,-16.71697 -37.3384,-37.3384z" data-paper-data="{&quot;origPos&quot;:null}" fill="url(#color-2)"/><text transform="translate(209.91779,193.34534) scale(0.78081,0.78081)" font-size="40" xml:space="preserve" data-paper-data="{&quot;origPos&quot;:null}" fill="#ff6d6d" fill-rule="nonzero" stroke="none" stroke-width="1" stroke-linecap="butt" stroke-linejoin="miter" stroke-miterlimit="10" stroke-dasharray="" stroke-dashoffset="0" font-family="Curly" font-weight="normal" text-anchor="start" style="mix-blend-mode: normal"><tspan x="0" dy="0">皮肤</tspan></text></g></g></svg>