<svg version="1.1" xmlns="http://www.w3.org/2000/svg" xmlns:xlink="http://www.w3.org/1999/xlink" width="404.33806" height="123.78016" viewBox="0,0,404.33806,123.78016"><g transform="translate(-37.91252,-118.60992)"><g data-paper-data="{&quot;isPaintingLayer&quot;:true}" fill="none" fill-rule="nonzero" stroke="none" stroke-width="none" stroke-linecap="butt" stroke-linejoin="miter" stroke-miterlimit="10" stroke-dasharray="" stroke-dashoffset="0" font-family="none" font-weight="none" font-size="none" text-anchor="none" style="mix-blend-mode: normal"><g data-paper-data="{&quot;origPos&quot;:null}" id="ID0.7047830382362008" fill="none" stroke="#28a5da" stroke-width="4.29278"><path d="M58.75024,238.31103c-9.77917,0 -17.98141,-7.66188 -18.67238,-17.43744c-0.00676,-0.12743 -0.01183,-0.25897 -0.02172,-0.38832c-0.15953,-3.13865 -0.36926,-9.24918 0.01086,-16.13612c0.25583,-4.49234 0.36949,-12.04899 0.37312,-12.32003c0.00048,-0.02027 0.00048,-0.03524 0.00048,-0.0555c0.06685,-4.63256 1.84674,-8.87558 4.72789,-12.12406c-1.42657,-4.9755 -1.88971,-10.90769 -1.00036,-17.89429l0.13514,-1.09497c0.50561,-4.13781 1.25884,-10.27007 4.37481,-16.17088c4.71076,-8.90986 13.34453,-14.02365 23.68505,-14.02365c0.59467,0 1.21202,0.01665 1.84095,0.05333c0.92627,0.05141 1.93943,0.1617 3.02063,0.35284c3.30542,-2.91589 7.64691,-4.69072 12.3876,-4.69072c0.06082,0 0.12911,0 0.19066,0c10.25558,0.12743 18.56354,8.56233 18.51189,18.81019c0,0.06879 -0.00073,0.14045 -0.00168,0.20875c-0.00314,0.22735 -0.93858,26.41921 -1.22095,28.2814c-0.02076,0.1296 -0.04199,0.25703 -0.06371,0.38446c-0.24713,1.39278 -0.64945,2.72523 -1.1775,3.98552c4.52709,5.32158 6.97309,11.93411 7.05441,19.40364c0.09798,9.39519 -4.20055,18.51913 -11.79993,25.0274c-6.5213,5.59407 -14.79811,8.66852 -23.29504,8.66852c-0.00145,0 0,0 -0.00145,0c-1.37734,0 -2.75323,-0.07578 -4.12236,-0.23893c-0.27923,0.36636 -0.57609,0.72837 -0.88331,1.07541c-3.31048,3.74466 -7.88729,5.97948 -12.88186,6.28623c-0.33257,0.02317 -0.75588,0.03717 -1.17123,0.03717z" id="ID0.3262948552146554"/><path d="M98.29074,197.60823c0.05237,5.06962 -2.38904,10.09485 -6.68807,13.77291c-4.81549,4.12647 -11.09231,5.89453 -17.21878,4.87028c-4.75009,-0.80174 -8.68711,-2.676 -11.68891,-4.60818c-0.02969,4.44769 0.17859,7.62664 0.17859,7.68721c0.13877,2.25799 -1.56704,4.21625 -3.84216,4.35768c-2.26571,0.1506 -4.21021,-1.57113 -4.3678,-3.83854c-0.01134,-0.28141 -0.42983,-6.89899 0,-14.69869c0.26934,-4.84808 0.39266,-12.88548 0.39266,-12.9632c0.02945,-2.27923 1.90829,-4.09123 4.1757,-4.04996c2.27005,0.04369 4.07844,1.90226 4.05286,4.16025c-0.00411,0.08712 -0.01497,0.72934 -0.03619,1.68987c0.17353,2.15373 0.70618,5.5622 2.27247,7.72969c1.8535,2.56981 5.49994,4.78533 6.97092,5.58562c1.0175,0.36322 2.10378,0.65186 3.24484,0.83576c3.67081,0.61784 7.61337,-0.49885 10.52806,-2.99892c2.44673,-2.0975 3.82866,-4.81381 3.80017,-7.44636c-0.06974,-6.81501 -7.46664,-9.36166 -18.54326,-11.1068c-10.18149,-1.5902 -14.50995,-9.79872 -12.85652,-22.78437l0.14456,-1.15674c0.80753,-6.59201 2.15735,-18.01545 14.59539,-17.33269c4.62121,0.26065 8.77737,3.41378 11.99735,6.93424c0.06371,-3.58103 0.08326,-7.10607 0.08326,-7.15385c0.0099,-2.27296 1.85761,-4.10113 4.13853,-4.09678c2.26258,0.02534 4.08712,1.86582 4.07409,4.12694c-0.00627,0.42573 -1.0216,26.1098 -1.05563,26.36466c-0.40256,2.23218 -2.5435,3.71377 -4.76892,3.31532c-1.72294,-0.31085 -2.99819,-1.64981 -3.30904,-3.27332l-0.00266,0.00168c0,0 -0.26041,-2.31978 -0.27392,-2.3818c-0.14553,-1.94256 -0.53819,-3.7449 -1.69084,-6.509c-1.5721,-3.79438 -4.42789,-5.70339 -5.6754,-7.17339c-1.38361,-1.12973 -2.75878,-1.87932 -3.96959,-1.95559c-4.04754,-0.20876 -4.94582,1.64788 -5.99228,10.13612l-0.14963,1.17847c-1.23977,9.75938 1.25618,12.89851 5.97103,13.63509c8.24014,1.29649 25.34332,3.9679 25.50911,19.14638z" id="ID0.7397922943346202"/><path d="M200.59096,234.47658c-3.55545,-0.00411 -7.13046,-0.71846 -10.91541,-2.18849c-3.35272,-1.29601 -6.02606,-3.2697 -8.1185,-5.37034c-1.38772,0.56474 -2.84905,0.9661 -4.36926,1.18788l-19.82744,2.90866c-0.93255,0.13154 -1.82502,0.19524 -2.71196,0.19524c-9.25474,0 -17.22337,-6.90817 -18.53699,-16.07337c-0.71847,-4.8838 0.5225,-9.81802 3.51008,-13.83251c1.49656,-2.01254 3.33945,-3.66647 5.42705,-4.91179l-0.01327,-2.864c-3.81007,-3.43091 -6.21479,-8.40279 -6.21479,-13.92278c0,-4.05768 1.29914,-7.8173 3.49873,-10.89079c-4.41656,-2.86666 -7.59913,-7.54942 -8.38157,-13.05491c-0.72354,-4.84904 0.51551,-9.80065 3.51081,-13.83081c2.99361,-4.02292 7.37131,-6.63232 12.33836,-7.34863c4.14047,-0.61012 12.50029,-1.65199 21.39664,-1.65199c19.74152,0 32.30941,5.05635 38.41318,15.45698c3.1874,5.43961 6.82081,16.3765 -2.69772,30.47473c0.89707,2.88597 1.56897,6.09195 2.02655,9.68167c0.0642,0 0.1284,0 0.19259,0c1.86437,0 3.71305,0.27417 5.49608,0.82587c9.90178,3.06238 15.44466,13.57234 12.39724,23.43792c-2.97236,9.58127 -7.70773,15.51298 -15.35875,19.23954c-3.50839,1.69278 -7.20647,2.53264 -11.05539,2.53264c0.00048,-0.00073 0.00048,-0.00073 -0.00627,-0.00073z" id="ID0.5679985475726426"/><path d="M213.04711,208.38536c-1.88078,6.05816 -4.14963,8.64197 -7.79703,10.4209c-3.94835,1.89695 -7.75407,0.84276 -10.27803,-0.14335c-3.42802,-1.3257 -5.41717,-5.09111 -5.93532,-6.21721c-1.66333,-3.55931 -2.18608,-11.6585 -2.23627,-13.63823c-0.25438,-10.27344 -1.9037,-14.66152 -3.2417,-16.52733c-0.95475,-1.35248 -1.86437,-1.65295 -3.51781,-1.93363c-0.54229,-0.09437 -1.42198,0.01761 -1.44419,0.02365h-0.00676v0c-3.12007,0.95064 -6.85435,1.79873 -10.77664,2.43322l0.10764,23.57886l5.95294,-0.8821c2.23627,-0.31398 4.33282,1.23808 4.65814,3.49342c0.33185,2.23844 -1.22771,4.32123 -3.46519,4.64921l-19.83154,2.91059c-2.24399,0.32171 -4.33425,-1.23108 -4.65235,-3.48449c-0.33402,-2.23483 1.21901,-4.32919 3.46399,-4.65694l5.65729,-0.82369l-0.0864,-23.92302c-0.70254,0.03065 -1.38941,0.04996 -2.07313,0.04996c-2.26644,0 -4.10885,-1.85108 -4.10885,-4.11102c0,-2.27609 1.8424,-4.10426 4.10885,-4.10426c0.66973,0 1.34886,-0.02076 2.03258,-0.06154l-0.08133,-19.13552c-2.16628,0.20103 -4.32218,0.45686 -6.4279,0.76506c-2.2452,0.33982 -4.33909,-1.20284 -4.65452,-3.45819c-0.33932,-2.24086 1.20502,-4.33932 3.4594,-4.66417c8.88549,-1.31265 38.40184,-4.70665 45.12152,6.73464c2.67816,4.57923 1.48522,10.22445 -3.55473,16.75829c-0.02896,0.04079 -0.05382,0.06566 -0.08374,0.09774c-0.18511,0.24713 -1.84989,2.20055 -4.13733,3.70387c3.38868,3.65778 5.48618,10.28938 5.80162,22.35647c0.07095,3.26825 0.82467,8.99167 1.46543,10.36949c0.42476,0.90142 1.16931,1.86799 1.4437,2.03065c1.78617,0.6953 2.90093,0.81283 3.7251,0.4139c0.83456,-0.39677 2.03258,-0.5785 3.53446,-5.4594c0.65621,-2.15687 2.96754,-3.38096 5.14372,-2.71317c2.16483,0.67068 3.38627,2.97526 2.71437,5.14734zM190.14376,160.061c0,-0.40811 -0.07192,-0.75275 -0.24134,-1.02209c-1.83275,-3.13913 -11.31604,-4.35742 -22.1839,-4.05816l0.07553,18.69313c4.12502,-0.75637 7.96042,-1.83492 10.85749,-2.8657l2.08881,-0.6661c1.3322,-0.40811 2.71269,-0.82008 3.72295,-1.41379c1.09087,-0.64992 2.13925,-1.75696 2.50513,-2.18438c2.05743,-2.66369 3.17486,-4.98225 3.17534,-6.48291z" id="ID0.9650358106009662"/><path d="M339.53149,233.65723c-21.1804,0 -33.31241,-15.9259 -34.33909,-31.65272h0.00676c-0.04754,-0.9895 -0.09002,-2.98685 -0.19838,-8.23434c-0.00145,-0.16893 -0.0058,-0.33305 -0.00145,-0.50199c0.13249,-9.68529 0.15735,-11.56969 0.19983,-12.30579h-0.00145c1.06648,-15.07373 6.27923,-25.58997 15.5009,-31.26005c4.37311,-2.70882 9.36575,-4.08519 14.80029,-4.08519c1.86099,0 3.63799,0.16267 5.28926,0.42525c3.43043,-3.87571 8.44721,-6.32533 14.02316,-6.32533c10.32823,0 18.7303,8.39894 18.7303,18.71993v17.80982c0,2.12647 -0.36298,4.19017 -1.0397,6.12454c2.57609,3.0496 4.20128,6.91854 4.39966,11.13938c0.11175,1.42755 0.17353,2.34198 0.12743,3.30325c-0.14312,4.79064 -0.15035,4.83939 -0.22275,5.49367c-0.01086,0.15591 -0.03065,0.31857 -0.05696,0.4723c-0.43369,3.11428 -1.5639,9.03367 -4.21262,13.68192c-1.70581,2.9784 -3.47845,5.1261 -5.14541,7.00905c-3.35514,3.77893 -7.21493,5.87956 -10.55606,7.44033c-5.57114,2.61952 -10.37625,2.66876 -13.89043,2.70448l-2.21407,0.02341c-0.40207,0.0099 -0.80608,0.01811 -1.19922,0.01811z" id="ID0.0838646050542593"/><path d="M362.30909,194.34891c0,0 0.12791,1.65488 0.11561,1.7186c0,0 -0.13322,4.53795 -0.15035,4.68662c-0.12791,0.92192 -0.85724,5.70218 -2.43562,8.47158c-1.06312,1.85447 -2.20731,3.22047 -3.39038,4.55896c-1.63703,1.83854 -3.86027,2.97961 -5.80549,3.89236c-2.72885,1.28201 -5.11694,1.30011 -7.89598,1.32449l-2.30626,0.02534c-15.37347,0.49378 -20.24134,-11.54579 -20.66659,-17.97539c-0.00531,-0.05189 -0.15953,-7.58321 -0.15953,-7.58321c0,0 0.15422,-11.39738 0.15953,-11.47195c0.72982,-10.24592 3.53228,-16.74115 8.58042,-19.84723c6.44455,-3.98142 14.33184,-0.69507 16.92555,0.38952c2.01038,0.8418 3.82793,1.97731 5.41884,3.21588v-7.31749c0,-2.25848 1.85761,-4.10426 4.11247,-4.10426c2.2814,0 4.11464,1.84579 4.11464,4.10426v17.80982c0,1.84313 -1.22191,3.44491 -2.99361,3.94569c-1.7618,0.48896 -3.65247,-0.23869 -4.61349,-1.80306c-0.03934,-0.04778 -3.74731,-5.99252 -9.19777,-8.26548c-4.43007,-1.84675 -7.52094,-2.17304 -9.45529,-0.96729c-2.50972,1.53446 -4.17377,6.28213 -4.68904,13.34162c-0.00531,0.30192 -0.12911,10.88017 -0.12911,11.01074c0,0.1436 0.12381,6.7706 0.12911,7.05176c0.17184,1.90322 1.5219,10.59708 12.20948,10.25317l2.49958,-0.03235c2.38953,-0.02583 3.40678,-0.04537 4.46193,-0.53192c0.93351,-0.44648 2.49644,-1.17485 3.13986,-1.90636c1.14372,-1.30373 1.78858,-2.11343 2.40569,-3.19199c0.5563,-0.96198 1.1524,-3.6684 1.41353,-5.36695c0.01352,-0.46072 0.10209,-3.70653 0.10209,-3.87112c0,-0.16628 -0.10981,-1.47219 -0.10981,-1.49463c0,-2.24086 1.79124,-4.07916 4.02799,-4.10788c2.27971,-0.03934 4.14721,1.7799 4.18197,4.03814z" id="ID0.25526067381724715"/><path d="M397.93333,240.24369c-4.4139,0 -8.65283,-1.65801 -11.92832,-4.67238c-1.31941,-1.20502 -2.42476,-2.55702 -3.31363,-4.01665l-15.44613,-0.25897c-10.29202,-0.17835 -18.54808,-8.68614 -18.41535,-18.962c0.12887,-7.49608 4.68541,-13.94376 11.10969,-16.84831l0.05141,-28.70376c-6.41197,-2.97695 -10.87583,-9.4775 -10.87583,-17.00688c0,-10.3234 8.40015,-18.725 18.7221,-18.725h17.60517c3.3619,-4.0811 8.425,-6.73634 14.11947,-6.84783c0,0 21.64643,-0.37022 21.73139,-0.37022c10.15664,0 18.55822,8.25969 18.73078,18.41801c0.11078,7.41475 -4.10159,13.89985 -10.29346,17.03583c0.12525,20.33861 0.19983,33.11911 0.2382,41.53953c5.67587,2.92772 9.70556,8.68759 10.13974,15.45023c0.65886,10.3106 -7.18089,19.23543 -17.48161,19.89381c-8.49693,0.5563 -13.91722,1.5178 -15.43719,1.94859c-0.29636,0.12236 -0.59201,0.23266 -0.89514,0.33016c-1.87837,0.71533 -4.71389,1.79583 -8.36129,1.79583z" id="ID0.8915336048230529"/><path d="M248.04216,218.76644c-4.06757,-0.00217 -7.93966,-1.2878 -11.19681,-3.73138c-0.70665,-0.51889 -1.366,-1.08362 -1.98455,-1.6824c-2.32847,1.03295 -4.90721,1.61047 -7.61169,1.61047c-0.28141,0 -0.56208,-0.00628 -0.84494,-0.02027l-20.49259,-0.97019c-10.29806,-0.47858 -18.30191,-9.25015 -17.83565,-19.54869c0.45107,-10.01521 8.6678,-17.87258 18.71413,-17.87258c0.08495,0 0.17158,0 0.25751,0.00168c0.94076,-4.7134 3.23591,-16.22227 3.34694,-16.77639c-6.78557,-2.13781 -12.00339,-8.04899 -12.98106,-15.39326c-1.3421,-10.22613 5.85882,-19.64885 16.04152,-21.03608l17.59165,-2.41872c0.83601,-0.11343 1.69277,-0.17232 2.5336,-0.17232c5.15579,0 10.13443,2.15857 13.66985,5.92857c1.28563,1.36287 3.13503,4.03958 4.1255,6.40617l15.43937,37.31941c0.0724,0.17184 0.15591,0.3666 0.24809,0.59346c0.04754,-0.00048 0.10112,-0.00048 0.14722,-0.00048c7.88054,0 14.96416,4.98034 17.63002,12.40038c3.46132,9.69712 -1.582,20.42452 -11.23881,23.9358c-6.17015,2.20345 -10.12044,4.22493 -11.54604,5.1261c-3.52867,3.97128 -8.65501,6.30119 -14.01183,6.30119c0,-0.00048 0,-0.00048 -0.00145,-0.00048z" id="ID0.25297330133616924"/><path d="M271.08233,188.33829c0.7636,2.13274 -0.34343,4.49016 -2.47471,5.26198c-7.66598,2.74334 -15.429,6.42138 -17.25498,8.88403c-1.35923,1.8243 -3.94159,2.20659 -5.75142,0.84784c-1.82648,-1.3479 -2.21504,-3.91553 -0.86086,-5.7478c1.44877,-1.94473 3.38361,-3.06456 6.48124,-4.83722l-4.0683,-10.05985l-19.00495,3.14952l-0.94026,6.26498c2.92989,0 4.25437,2.05164 4.15252,4.33088c-0.11343,2.25823 -2.03741,4.00748 -4.30168,3.90949l-20.45589,-0.97019c-2.26476,-0.10571 -4.02534,-2.01979 -3.9276,-4.28189c0.10426,-2.27417 2.03548,-4.01931 4.2995,-3.92133l11.92156,0.5785c1.90226,-9.31073 7.9691,-39.93291 9.49222,-47.42391c-5.31218,0.71727 -11.86823,1.6597 -11.86823,1.6597c-2.25389,0.28888 -4.3176,-1.27645 -4.61905,-3.5318c-0.29179,-2.24424 1.27163,-4.31567 3.52094,-4.62121l17.61385,-2.42187c1.31265,-0.18222 2.63786,0.29636 3.55159,1.27139c0.2662,0.28261 1.12827,1.59793 1.28201,1.99638l15.45071,37.35538c0.181,0.31544 5.28442,13.04621 5.28442,13.04621c3.65198,-1.60493 6.00628,-2.78629 7.22361,-3.21853c2.12911,-0.76336 4.49016,0.35139 5.25377,2.4793zM243.97942,176.90111l-9.0385,-22.33256l-5.0397,24.66779z" id="ID0.5618406548164785"/><path d="M277.09225,230.51544c-10.1448,0 -18.54641,-8.26692 -18.72137,-18.42259c-0.12598,-8.31784 5.19513,-15.4606 12.6509,-18.02221l-0.01086,-5.53228c-0.55436,0.13347 -1.11958,0.24376 -1.69035,0.32991c-0.92048,0.14142 -1.86171,0.21141 -2.78437,0.21141c-9.33655,0 -17.12031,-6.70689 -18.50972,-15.94039l-3.13383,-20.15808c-0.83142,-5.3421 0.70954,-10.79281 4.22952,-14.9451c3.46808,-4.13419 8.61398,-6.5575 14.07192,-6.61977l26.14723,-0.43708c12.70424,-0.24086 24.04031,-1.04188 24.65162,-1.08434c0.0876,-0.01231 0.1757,-0.01761 0.2662,-0.02172c0.40425,-0.02437 0.80922,-0.04079 1.20961,-0.04079c5.00978,0 9.88126,2.04248 13.37203,5.60275c3.76083,3.77724 5.72343,9.11501 5.31073,14.55364c-0.35284,4.65935 -0.4641,12.02655 -0.48026,13.8132c0.20876,7.58321 -3.93798,14.44431 -10.68855,17.59117c-2.49741,1.17653 -5.32472,1.82093 -8.11995,1.82093v0c-2.22179,0 -4.3917,-0.4057 -6.40883,-1.15313l0.02269,11.75384c7.10365,2.59926 12.25268,9.39399 12.36249,17.345c0.07819,5.00399 -1.81562,9.749 -5.32472,13.34089c-3.50332,3.58682 -8.1909,5.59407 -13.20164,5.63968c0.00048,0.00096 -25.15096,0.37505 -25.22046,0.37505z" id="ID0.0813042689114809"/><path d="M318.40129,145.66495c0.84591,0.85097 1.26608,2.01906 1.17799,3.21999c-0.44721,5.8856 -0.52902,15.09184 -0.52493,15.16061c0.09703,1.68094 -0.72137,3.39351 -2.24762,4.10209c-1.96114,0.92675 -4.17883,0.42331 -5.22408,-1.4763c-0.35791,-0.61952 -0.82781,-1.45361 -0.82781,-5.84843c0,-1.87258 0.10161,-4.44818 0.31037,-7.8634c-4.15084,0.22687 -10.20804,0.56353 -17.28466,0.76095l0.10619,53.70871l8.17473,-0.12525c2.26548,-0.01713 4.13274,1.78134 4.16798,4.05792c0.03016,2.26017 -1.78714,4.14312 -4.05286,4.16436l-25.03247,0.37456c-2.26065,0.02799 -4.11681,-1.784 -4.16121,-4.06226c-0.03378,-2.25799 1.78038,-4.12694 4.04731,-4.16629l8.63569,-0.1115l-0.10619,-53.68119c0,0 -16.32991,0.29227 -17.39641,0.29734c0.83553,5.63437 2.48704,15.99058 2.48704,16.17908c0,2.00169 -1.45819,3.75673 -3.50018,4.06348c-2.24472,0.33185 -4.33112,-1.21009 -4.6731,-3.45529l-3.14227,-20.22372c-0.17884,-1.17075 0.17401,-2.3596 0.9422,-3.25618c0.76674,-0.92168 1.89018,-1.44322 3.08218,-1.45191l26.22541,-0.4378c13.4565,-0.25848 25.49005,-1.12151 25.61748,-1.13914c1.18523,-0.07361 2.36612,0.3596 3.19923,1.20961z" id="ID0.034224013332277536"/><path d="M123.51218,238.80166c-21.08629,-0.00531 -33.21443,-15.75914 -34.37577,-31.41088c-0.03571,-0.47761 -0.04971,-0.88115 -0.05285,-1.20164l-0.14914,-7.5984c0,-0.06565 0.14914,-11.37903 0.14914,-11.37903c0.00096,-0.35237 0.01761,-0.74406 0.04513,-1.14759c1.08362,-15.06166 6.2995,-25.57307 15.50718,-31.2376c4.39121,-2.70617 9.37493,-4.07795 14.79764,-4.07795c1.86267,0 3.64113,0.16846 5.29288,0.43007c3.43308,-3.88198 8.44986,-6.33377 14.02944,-6.33377c10.32702,0 18.72258,8.40159 18.72258,18.72982v17.79365c0,1.91771 -0.29275,3.78618 -0.84904,5.55786c2.50248,3.06456 4.06275,6.9294 4.2131,11.13624l0.11488,2.16122c0.01665,0.26209 0.02172,0.52612 0.02172,0.79305c0,0.04658 -0.0543,5.04742 -0.30819,6.93351h0.00096c-0.54737,3.82768 -1.72125,9.31025 -4.21238,13.66067c-1.71884,3.01894 -3.52818,5.16712 -5.08942,6.9475c-3.42319,3.82961 -7.27235,5.92664 -10.59853,7.47966c-5.56197,2.62532 -10.37746,2.66973 -13.89381,2.70351l-2.14553,0.04248c-0.4057,0.01086 -0.81236,0.01811 -1.21636,0.01811c-0.00145,-0.00048 -0.0024,-0.00048 -0.00361,-0.00048z" id="ID0.8122080219909549"/><path d="M146.24151,198.66967l0.12285,2.34608c0,0.05478 -0.13612,4.71075 -0.15905,4.86665c-0.13154,0.92145 -0.84855,5.70171 -2.43151,8.47207c-1.05249,1.84941 -2.20249,3.21322 -3.38459,4.55389c-1.64932,1.84771 -3.8552,2.98179 -5.80958,3.89429c-2.72885,1.28636 -5.12151,1.29818 -7.8967,1.32473l-2.30771,0.04658c-15.37661,0.46047 -20.23966,-11.55786 -20.66973,-18.00096c-0.00579,-0.05189 -0.00579,-0.11127 -0.00579,-0.17714l-0.14963,-7.26053v-0.14456l0.14963,-11.24339c0,-0.06588 0,-0.14288 0.00579,-0.22373c0.73609,-10.25051 3.54361,-16.74647 8.59081,-19.84989c6.44141,-3.96887 14.33377,-0.69096 16.91879,0.39073c2.02027,0.83239 3.83226,1.9766 5.42922,3.2142v-7.30445c0,-2.27199 1.83275,-4.11416 4.11247,-4.11416c2.26282,0 4.10691,1.84215 4.10691,4.11416v17.79365c0,1.84627 -1.22409,3.45312 -2.99627,3.94883c-1.76541,0.50826 -3.65609,-0.23869 -4.62363,-1.79535c-0.02341,-0.06371 -3.74224,-5.99082 -9.19271,-8.27271c-4.42693,-1.84409 -7.52214,-2.17352 -9.44805,-0.96561c-2.51357,1.53228 -4.17063,6.28043 -4.68806,13.33823c0,0.30265 -0.13732,10.88308 -0.14866,11.01991c0.01134,0.12936 0.14505,6.76626 0.14866,7.04742c0.17256,1.91722 1.5178,10.58622 12.20586,10.25824l2.50923,-0.04031c2.38977,-0.02341 3.39834,-0.04682 4.45082,-0.54447c0.93761,-0.42694 2.49692,-1.16351 3.13358,-1.89912c1.11669,-1.2557 1.80428,-2.10716 2.41801,-3.18788c0.5575,-0.96198 1.14783,-3.6684 1.40703,-5.366c0.01399,-0.47254 0.10257,-3.69615 0.1045,-3.86292c0,-0.17304 -0.11246,-2.28864 -0.11246,-2.31086c0,-2.23265 1.78979,-4.07408 4.04223,-4.1156c2.25992,-0.04248 4.13106,1.77893 4.16773,4.04996z" id="ID0.8342581959441304"/></g><g data-paper-data="{&quot;origPos&quot;:null}" id="ID0.5638691666536033" stroke="none" stroke-width="0.21464"><g id="ID0.003686001989990473" fill="#f7f8f9"><path d="M58.75024,237.31103c-9.77917,0 -17.98141,-7.66188 -18.67238,-17.43744c-0.00676,-0.12743 -0.01183,-0.25897 -0.02172,-0.38832c-0.15953,-3.13865 -0.36926,-9.24918 0.01086,-16.13612c0.25583,-4.49234 0.36949,-12.04899 0.37312,-12.32003c0.00048,-0.02027 0.00048,-0.03524 0.00048,-0.0555c0.06685,-4.63256 1.84674,-8.87558 4.72789,-12.12406c-1.42657,-4.9755 -1.88971,-10.90769 -1.00036,-17.89429l0.13514,-1.09497c0.50561,-4.13781 1.25884,-10.27007 4.37481,-16.17088c4.71076,-8.90986 13.34453,-14.02365 23.68505,-14.02365c0.59467,0 1.21202,0.01665 1.84095,0.05333c0.92627,0.05141 1.93943,0.1617 3.02063,0.35284c3.30542,-2.91589 7.64691,-4.69072 12.3876,-4.69072c0.06082,0 0.12911,0 0.19066,0c10.25558,0.12743 18.56354,8.56233 18.51189,18.81019c0,0.06879 -0.00073,0.14045 -0.00168,0.20875c-0.00314,0.22735 -0.93858,26.41921 -1.22095,28.2814c-0.02076,0.1296 -0.04199,0.25703 -0.06371,0.38446c-0.24713,1.39278 -0.64945,2.72523 -1.1775,3.98552c4.52709,5.32158 6.97309,11.93411 7.05441,19.40364c0.09798,9.39519 -4.20055,18.51913 -11.79993,25.0274c-6.5213,5.59407 -14.79811,8.66852 -23.29504,8.66852c-0.00145,0 0,0 -0.00145,0c-1.37734,0 -2.75323,-0.07578 -4.12236,-0.23893c-0.27923,0.36636 -0.57609,0.72837 -0.88331,1.07541c-3.31048,3.74466 -7.88729,5.97948 -12.88186,6.28623c-0.33257,0.02317 -0.75588,0.03717 -1.17123,0.03717z" id="ID0.5371283530257642"/><path d="M98.29074,196.60823c0.05237,5.06962 -2.38904,10.09485 -6.68807,13.77291c-4.81549,4.12647 -11.09231,5.89453 -17.21878,4.87028c-4.75009,-0.80174 -8.68711,-2.676 -11.68891,-4.60818c-0.02969,4.44769 0.17859,7.62664 0.17859,7.68721c0.13877,2.25799 -1.56704,4.21625 -3.84216,4.35768c-2.26571,0.1506 -4.21021,-1.57113 -4.3678,-3.83854c-0.01134,-0.28141 -0.42983,-6.89899 0,-14.69869c0.26934,-4.84808 0.39266,-12.88548 0.39266,-12.9632c0.02945,-2.27923 1.90829,-4.09123 4.1757,-4.04996c2.27005,0.04369 4.07844,1.90226 4.05286,4.16025c-0.00411,0.08712 -0.01497,0.72934 -0.03619,1.68987c0.17353,2.15373 0.70618,5.5622 2.27247,7.72969c1.8535,2.56981 5.49994,4.78533 6.97092,5.58562c1.0175,0.36322 2.10378,0.65186 3.24484,0.83576c3.67081,0.61784 7.61337,-0.49885 10.52806,-2.99892c2.44673,-2.0975 3.82866,-4.81381 3.80017,-7.44636c-0.06974,-6.81501 -7.46664,-9.36166 -18.54326,-11.1068c-10.18149,-1.5902 -14.50995,-9.79872 -12.85652,-22.78437l0.14456,-1.15674c0.80753,-6.59201 2.15735,-18.01545 14.59539,-17.33269c4.62121,0.26065 8.77737,3.41378 11.99735,6.93424c0.06371,-3.58103 0.08326,-7.10607 0.08326,-7.15385c0.0099,-2.27296 1.85761,-4.10113 4.13853,-4.09678c2.26258,0.02534 4.08712,1.86582 4.07409,4.12694c-0.00627,0.42573 -1.0216,26.1098 -1.05563,26.36466c-0.40256,2.23218 -2.5435,3.71377 -4.76892,3.31532c-1.72294,-0.31085 -2.99819,-1.64981 -3.30904,-3.27332l-0.00266,0.00168c0,0 -0.26041,-2.31978 -0.27392,-2.3818c-0.14553,-1.94256 -0.53819,-3.7449 -1.69084,-6.509c-1.5721,-3.79438 -4.42789,-5.70339 -5.6754,-7.17339c-1.38361,-1.12973 -2.75878,-1.87932 -3.96959,-1.95559c-4.04754,-0.20876 -4.94582,1.64788 -5.99228,10.13612l-0.14963,1.17847c-1.23977,9.75938 1.25618,12.89851 5.97103,13.63509c8.24014,1.29649 25.34332,3.9679 25.50911,19.14638z" id="ID0.6518417396582663"/><path d="M200.59096,233.47658c-3.55545,-0.00411 -7.13046,-0.71846 -10.91541,-2.18849c-3.35272,-1.29601 -6.02606,-3.2697 -8.1185,-5.37034c-1.38772,0.56474 -2.84905,0.9661 -4.36926,1.18788l-19.82744,2.90866c-0.93255,0.13154 -1.82502,0.19524 -2.71196,0.19524c-9.25474,0 -17.22337,-6.90817 -18.53699,-16.07337c-0.71847,-4.8838 0.5225,-9.81802 3.51008,-13.83251c1.49656,-2.01254 3.33945,-3.66647 5.42705,-4.91179l-0.01327,-2.864c-3.81007,-3.43091 -6.21479,-8.40279 -6.21479,-13.92278c0,-4.05768 1.29914,-7.8173 3.49873,-10.89079c-4.41656,-2.86666 -7.59913,-7.54942 -8.38157,-13.05491c-0.72354,-4.84904 0.51551,-9.80065 3.51081,-13.83081c2.99361,-4.02292 7.37131,-6.63232 12.33836,-7.34863c4.14047,-0.61012 12.50029,-1.65199 21.39664,-1.65199c19.74152,0 32.30941,5.05635 38.41318,15.45698c3.1874,5.43961 6.82081,16.3765 -2.69772,30.47473c0.89707,2.88597 1.56897,6.09195 2.02655,9.68167c0.0642,0 0.1284,0 0.19259,0c1.86437,0 3.71305,0.27417 5.49608,0.82587c9.90178,3.06238 15.44466,13.57234 12.39724,23.43792c-2.97236,9.58127 -7.70773,15.51298 -15.35875,19.23954c-3.50839,1.69278 -7.20647,2.53264 -11.05539,2.53264c0.00048,-0.00073 0.00048,-0.00073 -0.00627,-0.00073z" id="ID0.49331344943493605"/><path d="M213.04711,207.38536c-1.88078,6.05816 -4.14963,8.64197 -7.79703,10.4209c-3.94835,1.89695 -7.75407,0.84276 -10.27803,-0.14335c-3.42802,-1.3257 -5.41717,-5.09111 -5.93532,-6.21721c-1.66333,-3.55931 -2.18608,-11.6585 -2.23627,-13.63823c-0.25438,-10.27344 -1.9037,-14.66152 -3.2417,-16.52733c-0.95475,-1.35248 -1.86437,-1.65295 -3.51781,-1.93363c-0.54229,-0.09437 -1.42198,0.01761 -1.44419,0.02365h-0.00676v0c-3.12007,0.95064 -6.85435,1.79873 -10.77664,2.43322l0.10764,23.57886l5.95294,-0.8821c2.23627,-0.31398 4.33282,1.23808 4.65814,3.49342c0.33185,2.23844 -1.22771,4.32123 -3.46519,4.64921l-19.83154,2.91059c-2.24399,0.32171 -4.33425,-1.23108 -4.65235,-3.48449c-0.33402,-2.23483 1.21901,-4.32919 3.46399,-4.65694l5.65729,-0.82369l-0.0864,-23.92302c-0.70254,0.03065 -1.38941,0.04996 -2.07313,0.04996c-2.26644,0 -4.10885,-1.85108 -4.10885,-4.11102c0,-2.27609 1.8424,-4.10426 4.10885,-4.10426c0.66973,0 1.34886,-0.02076 2.03258,-0.06154l-0.08133,-19.13552c-2.16628,0.20103 -4.32218,0.45686 -6.4279,0.76506c-2.2452,0.33982 -4.33909,-1.20284 -4.65452,-3.45819c-0.33932,-2.24086 1.20502,-4.33932 3.4594,-4.66417c8.88549,-1.31265 38.40184,-4.70665 45.12152,6.73464c2.67816,4.57923 1.48522,10.22445 -3.55473,16.75829c-0.02896,0.04079 -0.05382,0.06566 -0.08374,0.09774c-0.18511,0.24713 -1.84989,2.20055 -4.13733,3.70387c3.38868,3.65778 5.48618,10.28938 5.80162,22.35647c0.07095,3.26825 0.82467,8.99167 1.46543,10.36949c0.42476,0.90142 1.16931,1.86799 1.4437,2.03065c1.78617,0.6953 2.90093,0.81283 3.7251,0.4139c0.83456,-0.39677 2.03258,-0.5785 3.53446,-5.4594c0.65621,-2.15687 2.96754,-3.38096 5.14372,-2.71317c2.16483,0.67068 3.38627,2.97526 2.71437,5.14734zM190.14376,159.061c0,-0.40811 -0.07192,-0.75275 -0.24134,-1.02209c-1.83275,-3.13913 -11.31604,-4.35742 -22.1839,-4.05816l0.07553,18.69313c4.12502,-0.75637 7.96042,-1.83492 10.85749,-2.8657l2.08881,-0.6661c1.3322,-0.40811 2.71269,-0.82008 3.72295,-1.41379c1.09087,-0.64992 2.13925,-1.75696 2.50513,-2.18438c2.05743,-2.66369 3.17486,-4.98225 3.17534,-6.48291z" id="ID0.03588257497176528"/><path d="M339.53149,232.65723c-21.1804,0 -33.31241,-15.9259 -34.33909,-31.65272h0.00676c-0.04754,-0.9895 -0.09002,-2.98685 -0.19838,-8.23434c-0.00145,-0.16893 -0.0058,-0.33305 -0.00145,-0.50199c0.13249,-9.68529 0.15735,-11.56969 0.19983,-12.30579h-0.00145c1.06648,-15.07373 6.27923,-25.58997 15.5009,-31.26005c4.37311,-2.70882 9.36575,-4.08519 14.80029,-4.08519c1.86099,0 3.63799,0.16267 5.28926,0.42525c3.43043,-3.87571 8.44721,-6.32533 14.02316,-6.32533c10.32823,0 18.7303,8.39894 18.7303,18.71993v17.80982c0,2.12647 -0.36298,4.19017 -1.0397,6.12454c2.57609,3.0496 4.20128,6.91854 4.39966,11.13938c0.11175,1.42755 0.17353,2.34198 0.12743,3.30325c-0.14312,4.79064 -0.15035,4.83939 -0.22275,5.49367c-0.01086,0.15591 -0.03065,0.31857 -0.05696,0.4723c-0.43369,3.11428 -1.5639,9.03367 -4.21262,13.68192c-1.70581,2.9784 -3.47845,5.1261 -5.14541,7.00905c-3.35514,3.77893 -7.21493,5.87956 -10.55606,7.44033c-5.57114,2.61952 -10.37625,2.66876 -13.89043,2.70448l-2.21407,0.02341c-0.40207,0.0099 -0.80608,0.01811 -1.19922,0.01811z" id="ID0.9552968591451645"/><path d="M362.30909,193.34891c0,0 0.12791,1.65488 0.11561,1.7186c0,0 -0.13322,4.53795 -0.15035,4.68662c-0.12791,0.92192 -0.85724,5.70218 -2.43562,8.47158c-1.06312,1.85447 -2.20731,3.22047 -3.39038,4.55896c-1.63703,1.83854 -3.86027,2.97961 -5.80549,3.89236c-2.72885,1.28201 -5.11694,1.30011 -7.89598,1.32449l-2.30626,0.02534c-15.37347,0.49378 -20.24134,-11.54579 -20.66659,-17.97539c-0.00531,-0.05189 -0.15953,-7.58321 -0.15953,-7.58321c0,0 0.15422,-11.39738 0.15953,-11.47195c0.72982,-10.24592 3.53228,-16.74115 8.58042,-19.84723c6.44455,-3.98142 14.33184,-0.69507 16.92555,0.38952c2.01038,0.8418 3.82793,1.97731 5.41884,3.21588v-7.31749c0,-2.25848 1.85761,-4.10426 4.11247,-4.10426c2.2814,0 4.11464,1.84579 4.11464,4.10426v17.80982c0,1.84313 -1.22191,3.44491 -2.99361,3.94569c-1.7618,0.48896 -3.65247,-0.23869 -4.61349,-1.80306c-0.03934,-0.04778 -3.74731,-5.99252 -9.19777,-8.26548c-4.43007,-1.84675 -7.52094,-2.17304 -9.45529,-0.96729c-2.50972,1.53446 -4.17377,6.28213 -4.68904,13.34162c-0.00531,0.30192 -0.12911,10.88017 -0.12911,11.01074c0,0.1436 0.12381,6.7706 0.12911,7.05176c0.17184,1.90322 1.5219,10.59708 12.20948,10.25317l2.49958,-0.03235c2.38953,-0.02583 3.40678,-0.04537 4.46193,-0.53192c0.93351,-0.44648 2.49644,-1.17485 3.13986,-1.90636c1.14372,-1.30373 1.78858,-2.11343 2.40569,-3.19199c0.5563,-0.96198 1.1524,-3.6684 1.41353,-5.36695c0.01352,-0.46072 0.10209,-3.70653 0.10209,-3.87112c0,-0.16628 -0.10981,-1.47219 -0.10981,-1.49463c0,-2.24086 1.79124,-4.07916 4.02799,-4.10788c2.27971,-0.03934 4.14721,1.7799 4.18197,4.03814z" id="ID0.7595422235317528"/><path d="M397.93333,239.24369c-4.4139,0 -8.65283,-1.65801 -11.92832,-4.67238c-1.31941,-1.20502 -2.42476,-2.55702 -3.31363,-4.01665l-15.44613,-0.25897c-10.29202,-0.17835 -18.54808,-8.68614 -18.41535,-18.962c0.12887,-7.49608 4.68541,-13.94376 11.10969,-16.84831l0.05141,-28.70376c-6.41197,-2.97695 -10.87583,-9.4775 -10.87583,-17.00688c0,-10.3234 8.40015,-18.725 18.7221,-18.725h17.60517c3.3619,-4.0811 8.425,-6.73634 14.11947,-6.84783c0,0 21.64643,-0.37022 21.73139,-0.37022c10.15664,0 18.55822,8.25969 18.73078,18.41801c0.11078,7.41475 -4.10159,13.89985 -10.29346,17.03583c0.12525,20.33861 0.19983,33.11911 0.2382,41.53953c5.67587,2.92772 9.70556,8.68759 10.13974,15.45023c0.65886,10.3106 -7.18089,19.23543 -17.48161,19.89381c-8.49693,0.5563 -13.91722,1.5178 -15.43719,1.94859c-0.29636,0.12236 -0.59201,0.23266 -0.89514,0.33016c-1.87837,0.71533 -4.71389,1.79583 -8.36129,1.79583z" id="ID0.5850255782715976"/><path d="M421.6874,220.58747c-9.8132,0.63521 -17.63775,1.91722 -20.0099,2.99361l0.03065,-0.02124c-2.32219,0.86038 -4.16267,1.77 -5.81417,0.2481c-1.65778,-1.50743 -1.8313,-4.02799 -0.35018,-5.70219c2.27778,-2.55653 6.03065,-2.99674 11.63051,-4.05599c0,-5.51901 -0.06179,-15.85037 -0.14312,-31.3409l-24.24134,4.04609l-0.04416,20.96924l7.07976,0.11343c2.2621,0.03065 4.07095,1.89237 4.03692,4.16942c-0.03571,2.26644 -1.90419,4.07988 -4.17329,4.04778l-22.20248,-0.37239c-2.26885,-0.03934 -4.07046,-1.90467 -4.04368,-4.15494c0.04103,-2.28864 1.91167,-4.10065 4.17521,-4.06227l6.91348,0.12019l0.09751,-54.69024h-6.79281c-2.26934,0 -4.10474,-1.84434 -4.10474,-4.12044c0,-2.26571 1.83541,-4.10981 4.10474,-4.10981h21.58345c2.27513,0 4.12091,1.84409 4.12091,4.10981c0,2.27609 -1.84579,4.12044 -4.12091,4.12044h-6.56981l-0.04416,25.53373l24.17377,-4.04103c-0.05864,-9.80186 -0.10691,-19.49126 -0.17159,-28.4793l-6.83214,0.12381c-2.25992,0.04464 -4.13781,-1.77314 -4.16629,-4.03982c-0.03885,-2.27151 1.76082,-4.13274 4.03692,-4.18245l21.39135,-0.36322c2.26668,-0.0321 4.13781,1.78352 4.17304,4.0473c0.0333,2.26621 -1.78183,4.14867 -4.04247,4.18704l-6.32871,0.08906c0.28141,45.92808 0.35429,60.07917 0.34704,67.10294c2.237,-0.23989 4.24569,-0.39171 5.77435,-0.49475c2.26378,-0.14649 4.21938,1.57838 4.3649,3.83854c0.14553,2.26934 -1.5733,4.22131 -3.83854,4.37046z" id="ID0.6676113284192979"/><path d="M248.04216,217.76644c-4.06757,-0.00217 -7.93966,-1.2878 -11.19681,-3.73138c-0.70665,-0.51889 -1.366,-1.08362 -1.98455,-1.6824c-2.32847,1.03295 -4.90721,1.61047 -7.61169,1.61047c-0.28141,0 -0.56208,-0.00628 -0.84494,-0.02027l-20.49259,-0.97019c-10.29806,-0.47858 -18.30191,-9.25015 -17.83565,-19.54869c0.45107,-10.01521 8.6678,-17.87258 18.71413,-17.87258c0.08495,0 0.17158,0 0.25751,0.00168c0.94076,-4.7134 3.23591,-16.22227 3.34694,-16.77639c-6.78557,-2.13781 -12.00339,-8.04899 -12.98106,-15.39326c-1.3421,-10.22613 5.85882,-19.64885 16.04152,-21.03608l17.59165,-2.41872c0.83601,-0.11343 1.69277,-0.17232 2.5336,-0.17232c5.15579,0 10.13443,2.15857 13.66985,5.92857c1.28563,1.36287 3.13503,4.03958 4.1255,6.40617l15.43937,37.31941c0.0724,0.17184 0.15591,0.3666 0.24809,0.59346c0.04754,-0.00048 0.10112,-0.00048 0.14722,-0.00048c7.88054,0 14.96416,4.98034 17.63002,12.40038c3.46132,9.69712 -1.582,20.42452 -11.23881,23.9358c-6.17015,2.20345 -10.12044,4.22493 -11.54604,5.1261c-3.52867,3.97128 -8.65501,6.30119 -14.01183,6.30119c0,-0.00048 0,-0.00048 -0.00145,-0.00048z" id="ID0.7487611640244722"/><path d="M271.08233,187.33829c0.7636,2.13274 -0.34343,4.49016 -2.47471,5.26198c-7.66598,2.74334 -15.429,6.42138 -17.25498,8.88403c-1.35923,1.8243 -3.94159,2.20659 -5.75142,0.84784c-1.82648,-1.3479 -2.21504,-3.91553 -0.86086,-5.7478c1.44877,-1.94473 3.38361,-3.06456 6.48124,-4.83722l-4.0683,-10.05985l-19.00495,3.14952l-0.94026,6.26498c2.92989,0 4.25437,2.05164 4.15252,4.33088c-0.11343,2.25823 -2.03741,4.00748 -4.30168,3.90949l-20.45589,-0.97019c-2.26476,-0.10571 -4.02534,-2.01979 -3.9276,-4.28189c0.10426,-2.27417 2.03548,-4.01931 4.2995,-3.92133l11.92156,0.5785c1.90226,-9.31073 7.9691,-39.93291 9.49222,-47.42391c-5.31218,0.71727 -11.86823,1.6597 -11.86823,1.6597c-2.25389,0.28888 -4.3176,-1.27645 -4.61905,-3.5318c-0.29179,-2.24424 1.27163,-4.31567 3.52094,-4.62121l17.61385,-2.42187c1.31265,-0.18222 2.63786,0.29636 3.55159,1.27139c0.2662,0.28261 1.12827,1.59793 1.28201,1.99638l15.45071,37.35538c0.181,0.31544 5.28442,13.04621 5.28442,13.04621c3.65198,-1.60493 6.00628,-2.78629 7.22361,-3.21853c2.12911,-0.76336 4.49016,0.35139 5.25377,2.4793zM243.97942,175.90111l-9.0385,-22.33256l-5.0397,24.66779z" id="ID0.18494270835071802"/><path d="M277.09225,229.51544c-10.1448,0 -18.54641,-8.26692 -18.72137,-18.42259c-0.12598,-8.31784 5.19513,-15.4606 12.6509,-18.02221l-0.01086,-5.53228c-0.55436,0.13347 -1.11958,0.24376 -1.69035,0.32991c-0.92048,0.14142 -1.86171,0.21141 -2.78437,0.21141c-9.33655,0 -17.12031,-6.70689 -18.50972,-15.94039l-3.13383,-20.15808c-0.83142,-5.3421 0.70954,-10.79281 4.22952,-14.9451c3.46808,-4.13419 8.61398,-6.5575 14.07192,-6.61977l26.14723,-0.43708c12.70424,-0.24086 24.04031,-1.04188 24.65162,-1.08434c0.0876,-0.01231 0.1757,-0.01761 0.2662,-0.02172c0.40425,-0.02437 0.80922,-0.04079 1.20961,-0.04079c5.00978,0 9.88126,2.04248 13.37203,5.60275c3.76083,3.77724 5.72343,9.11501 5.31073,14.55364c-0.35284,4.65935 -0.4641,12.02655 -0.48026,13.8132c0.20876,7.58321 -3.93798,14.44431 -10.68855,17.59117c-2.49741,1.17653 -5.32472,1.82093 -8.11995,1.82093v0c-2.22179,0 -4.3917,-0.4057 -6.40883,-1.15313l0.02269,11.75384c7.10365,2.59926 12.25268,9.39399 12.36249,17.345c0.07819,5.00399 -1.81562,9.749 -5.32472,13.34089c-3.50332,3.58682 -8.1909,5.59407 -13.20164,5.63968c0.00048,0.00096 -25.15096,0.37505 -25.22046,0.37505z" id="ID0.6759674926288426"/><path d="M318.40129,144.66495c0.84591,0.85097 1.26608,2.01906 1.17799,3.21999c-0.44721,5.8856 -0.52902,15.09184 -0.52493,15.16061c0.09703,1.68094 -0.72137,3.39351 -2.24762,4.10209c-1.96114,0.92675 -4.17883,0.42331 -5.22408,-1.4763c-0.35791,-0.61952 -0.82781,-1.45361 -0.82781,-5.84843c0,-1.87258 0.10161,-4.44818 0.31037,-7.8634c-4.15084,0.22687 -10.20804,0.56353 -17.28466,0.76095l0.10619,53.70871l8.17473,-0.12525c2.26548,-0.01713 4.13274,1.78134 4.16798,4.05792c0.03016,2.26017 -1.78714,4.14312 -4.05286,4.16436l-25.03247,0.37456c-2.26065,0.02799 -4.11681,-1.784 -4.16121,-4.06226c-0.03378,-2.25799 1.78038,-4.12694 4.04731,-4.16629l8.63569,-0.1115l-0.10619,-53.68119c0,0 -16.32991,0.29227 -17.39641,0.29734c0.83553,5.63437 2.48704,15.99058 2.48704,16.17908c0,2.00169 -1.45819,3.75673 -3.50018,4.06348c-2.24472,0.33185 -4.33112,-1.21009 -4.6731,-3.45529l-3.14227,-20.22372c-0.17884,-1.17075 0.17401,-2.3596 0.9422,-3.25618c0.76674,-0.92168 1.89018,-1.44322 3.08218,-1.45191l26.22541,-0.4378c13.4565,-0.25848 25.49005,-1.12151 25.61748,-1.13914c1.18523,-0.07361 2.36612,0.3596 3.19923,1.20961z" id="ID0.6073981705121696"/><path d="M123.51218,237.80166c-21.08629,-0.00531 -33.21443,-15.75914 -34.37577,-31.41088c-0.03571,-0.47761 -0.04971,-0.88115 -0.05285,-1.20164l-0.14914,-7.5984c0,-0.06565 0.14914,-11.37903 0.14914,-11.37903c0.00096,-0.35237 0.01761,-0.74406 0.04513,-1.14759c1.08362,-15.06166 6.2995,-25.57307 15.50718,-31.2376c4.39121,-2.70617 9.37493,-4.07795 14.79764,-4.07795c1.86267,0 3.64113,0.16846 5.29288,0.43007c3.43308,-3.88198 8.44986,-6.33377 14.02944,-6.33377c10.32702,0 18.72258,8.40159 18.72258,18.72982v17.79365c0,1.91771 -0.29275,3.78618 -0.84904,5.55786c2.50248,3.06456 4.06275,6.9294 4.2131,11.13624l0.11488,2.16122c0.01665,0.26209 0.02172,0.52612 0.02172,0.79305c0,0.04658 -0.0543,5.04742 -0.30819,6.93351h0.00096c-0.54737,3.82768 -1.72125,9.31025 -4.21238,13.66067c-1.71884,3.01894 -3.52818,5.16712 -5.08942,6.9475c-3.42319,3.82961 -7.27235,5.92664 -10.59853,7.47966c-5.56197,2.62532 -10.37746,2.66973 -13.89381,2.70351l-2.14553,0.04248c-0.4057,0.01086 -0.81236,0.01811 -1.21636,0.01811c-0.00145,-0.00048 -0.0024,-0.00048 -0.00361,-0.00048z" id="ID0.6494304328225553"/><path d="M146.24151,197.66967l0.12285,2.34608c0,0.05478 -0.13612,4.71075 -0.15905,4.86665c-0.13154,0.92145 -0.84855,5.70171 -2.43151,8.47207c-1.05249,1.84941 -2.20249,3.21322 -3.38459,4.55389c-1.64932,1.84771 -3.8552,2.98179 -5.80958,3.89429c-2.72885,1.28636 -5.12151,1.29818 -7.8967,1.32473l-2.30771,0.04658c-15.37661,0.46047 -20.23966,-11.55786 -20.66973,-18.00096c-0.00579,-0.05189 -0.00579,-0.11127 -0.00579,-0.17714l-0.14963,-7.26053v-0.14456l0.14963,-11.24339c0,-0.06588 0,-0.14288 0.00579,-0.22373c0.73609,-10.25051 3.54361,-16.74647 8.59081,-19.84989c6.44141,-3.96887 14.33377,-0.69096 16.91879,0.39073c2.02027,0.83239 3.83226,1.9766 5.42922,3.2142v-7.30445c0,-2.27199 1.83275,-4.11416 4.11247,-4.11416c2.26282,0 4.10691,1.84215 4.10691,4.11416v17.79365c0,1.84627 -1.22409,3.45312 -2.99627,3.94883c-1.76541,0.50826 -3.65609,-0.23869 -4.62363,-1.79535c-0.02341,-0.06371 -3.74224,-5.99082 -9.19271,-8.27271c-4.42693,-1.84409 -7.52214,-2.17352 -9.44805,-0.96561c-2.51357,1.53228 -4.17063,6.28043 -4.68806,13.33823c0,0.30265 -0.13732,10.88308 -0.14866,11.01991c0.01134,0.12936 0.14505,6.76626 0.14866,7.04742c0.17256,1.91722 1.5178,10.58622 12.20586,10.25824l2.50923,-0.04031c2.38977,-0.02341 3.39834,-0.04682 4.45082,-0.54447c0.93761,-0.42694 2.49692,-1.16351 3.13358,-1.89912c1.11669,-1.2557 1.80428,-2.10716 2.41801,-3.18788c0.5575,-0.96198 1.14783,-3.6684 1.40703,-5.366c0.01399,-0.47254 0.10257,-3.69615 0.1045,-3.86292c0,-0.17304 -0.11246,-2.28864 -0.11246,-2.31086c0,-2.23265 1.78979,-4.07408 4.04223,-4.1156c2.25992,-0.04248 4.13106,1.77893 4.16773,4.04996z" id="ID0.548540635034442"/></g><path d="M98.29074,196.60823c0.05237,5.06962 -2.38904,10.09485 -6.68807,13.77291c-4.81549,4.12647 -11.09231,5.89453 -17.21878,4.87028c-4.75009,-0.80174 -8.68711,-2.676 -11.68891,-4.60818c-0.02969,4.44769 0.17859,7.62664 0.17859,7.68721c0.13877,2.25799 -1.56704,4.21625 -3.84216,4.35768c-2.26571,0.1506 -4.21021,-1.57113 -4.3678,-3.83854c-0.01134,-0.28141 -0.42983,-6.89899 0,-14.69869c0.26934,-4.84808 0.39266,-12.88548 0.39266,-12.9632c0.02945,-2.27923 1.90829,-4.09123 4.1757,-4.04996c2.27005,0.04369 4.07844,1.90226 4.05286,4.16025c-0.00411,0.08712 -0.01497,0.72934 -0.03619,1.68987c0.17353,2.15373 0.70618,5.5622 2.27247,7.72969c1.8535,2.56981 5.49994,4.78533 6.97092,5.58562c1.0175,0.36322 2.10378,0.65186 3.24484,0.83576c3.67081,0.61784 7.61337,-0.49885 10.52806,-2.99892c2.44673,-2.0975 3.82866,-4.81381 3.80017,-7.44636c-0.06974,-6.81501 -7.46664,-9.36166 -18.54326,-11.1068c-10.18149,-1.5902 -14.50995,-9.79872 -12.85652,-22.78437l0.14456,-1.15674c0.80753,-6.59201 2.15735,-18.01545 14.59539,-17.33269c4.62121,0.26065 8.77737,3.41378 11.99735,6.93424c0.06371,-3.58103 0.08326,-7.10607 0.08326,-7.15385c0.0099,-2.27296 1.85761,-4.10113 4.13853,-4.09678c2.26258,0.02534 4.08712,1.86582 4.07409,4.12694c-0.00627,0.42573 -1.0216,26.1098 -1.05563,26.36466c-0.40256,2.23218 -2.5435,3.71377 -4.76892,3.31532c-1.72294,-0.31085 -2.99819,-1.64981 -3.30904,-3.27332l-0.00266,0.00168c0,0 -0.26041,-2.31978 -0.27392,-2.3818c-0.14553,-1.94256 -0.53819,-3.7449 -1.69084,-6.509c-1.5721,-3.79438 -4.42789,-5.70339 -5.6754,-7.17339c-1.38361,-1.12973 -2.75878,-1.87932 -3.96959,-1.95559c-4.04754,-0.20876 -4.94582,1.64788 -5.99228,10.13612l-0.14963,1.17847c-1.23977,9.75938 1.25618,12.89851 5.97103,13.63509c8.24014,1.29649 25.34332,3.9679 25.50911,19.14638z" id="ID0.35181407257914543" fill="#f9a737"/><path d="M213.04711,207.38536c-1.88078,6.05816 -4.14963,8.64197 -7.79703,10.4209c-3.94835,1.89695 -7.75407,0.84276 -10.27803,-0.14335c-3.42802,-1.3257 -5.41717,-5.09111 -5.93532,-6.21721c-1.66333,-3.55931 -2.18608,-11.6585 -2.23627,-13.63823c-0.25438,-10.27344 -1.9037,-14.66152 -3.2417,-16.52733c-0.95475,-1.35248 -1.86437,-1.65295 -3.51781,-1.93363c-0.54229,-0.09437 -1.42198,0.01761 -1.44419,0.02365h-0.00676v0c-3.12007,0.95064 -6.85435,1.79873 -10.77664,2.43322l0.10764,23.57886l5.95294,-0.8821c2.23627,-0.31398 4.33282,1.23808 4.65814,3.49342c0.33185,2.23844 -1.22771,4.32123 -3.46519,4.64921l-19.83154,2.91059c-2.24399,0.32171 -4.33425,-1.23108 -4.65235,-3.48449c-0.33402,-2.23483 1.21901,-4.32919 3.46399,-4.65694l5.65729,-0.82369l-0.0864,-23.92302c-0.70254,0.03065 -1.38941,0.04996 -2.07313,0.04996c-2.26644,0 -4.10885,-1.85108 -4.10885,-4.11102c0,-2.27609 1.8424,-4.10426 4.10885,-4.10426c0.66973,0 1.34886,-0.02076 2.03258,-0.06154l-0.08133,-19.13552c-2.16628,0.20103 -4.32218,0.45686 -6.4279,0.76506c-2.2452,0.33982 -4.33909,-1.20284 -4.65452,-3.45819c-0.33932,-2.24086 1.20502,-4.33932 3.4594,-4.66417c8.88549,-1.31265 38.40184,-4.70665 45.12152,6.73464c2.67816,4.57923 1.48522,10.22445 -3.55473,16.75829c-0.02896,0.04079 -0.05382,0.06566 -0.08374,0.09774c-0.18511,0.24713 -1.84989,2.20055 -4.13733,3.70387c3.38868,3.65778 5.48618,10.28938 5.80162,22.35647c0.07095,3.26825 0.82467,8.99167 1.46543,10.36949c0.42476,0.90142 1.16931,1.86799 1.4437,2.03065c1.78617,0.6953 2.90093,0.81283 3.7251,0.4139c0.83456,-0.39677 2.03258,-0.5785 3.53446,-5.4594c0.65621,-2.15687 2.96754,-3.38096 5.14372,-2.71317c2.16483,0.67068 3.38627,2.97526 2.71437,5.14734zM190.14376,159.061c0,-0.40811 -0.07192,-0.75275 -0.24134,-1.02209c-1.83275,-3.13913 -11.31604,-4.35742 -22.1839,-4.05816l0.07553,18.69313c4.12502,-0.75637 7.96042,-1.83492 10.85749,-2.8657l2.08881,-0.6661c1.3322,-0.40811 2.71269,-0.82008 3.72295,-1.41379c1.09087,-0.64992 2.13925,-1.75696 2.50513,-2.18438c2.05743,-2.66369 3.17486,-4.98225 3.17534,-6.48291z" id="ID0.5372724696062505" fill="#f9a737"/><path d="M362.30909,193.34891c0,0 0.12791,1.65488 0.11561,1.7186c0,0 -0.13322,4.53795 -0.15035,4.68662c-0.12791,0.92192 -0.85724,5.70218 -2.43562,8.47158c-1.06312,1.85447 -2.20731,3.22047 -3.39038,4.55896c-1.63703,1.83854 -3.86027,2.97961 -5.80549,3.89236c-2.72885,1.28201 -5.11694,1.30011 -7.89598,1.32449l-2.30626,0.02534c-15.37347,0.49378 -20.24134,-11.54579 -20.66659,-17.97539c-0.00531,-0.05189 -0.15953,-7.58321 -0.15953,-7.58321c0,0 0.15422,-11.39738 0.15953,-11.47195c0.72982,-10.24592 3.53228,-16.74115 8.58042,-19.84723c6.44455,-3.98142 14.33184,-0.69507 16.92555,0.38952c2.01038,0.8418 3.82793,1.97731 5.41884,3.21588v-7.31749c0,-2.25848 1.85761,-4.10426 4.11247,-4.10426c2.2814,0 4.11464,1.84579 4.11464,4.10426v17.80982c0,1.84313 -1.22191,3.44491 -2.99361,3.94569c-1.7618,0.48896 -3.65247,-0.23869 -4.61349,-1.80306c-0.03934,-0.04778 -3.74731,-5.99252 -9.19777,-8.26548c-4.43007,-1.84675 -7.52094,-2.17304 -9.45529,-0.96729c-2.50972,1.53446 -4.17377,6.28213 -4.68904,13.34162c-0.00531,0.30192 -0.12911,10.88017 -0.12911,11.01074c0,0.1436 0.12381,6.7706 0.12911,7.05176c0.17184,1.90322 1.5219,10.59708 12.20948,10.25317l2.49958,-0.03235c2.38953,-0.02583 3.40678,-0.04537 4.46193,-0.53192c0.93351,-0.44648 2.49644,-1.17485 3.13986,-1.90636c1.14372,-1.30373 1.78858,-2.11343 2.40569,-3.19199c0.5563,-0.96198 1.1524,-3.6684 1.41353,-5.36695c0.01352,-0.46072 0.10209,-3.70653 0.10209,-3.87112c0,-0.16628 -0.10981,-1.47219 -0.10981,-1.49463c0,-2.24086 1.79124,-4.07916 4.02799,-4.10788c2.27971,-0.03934 4.14721,1.7799 4.18197,4.03814z" id="ID0.29384369077160954" fill="#f9a737"/><path d="M421.6874,220.58747c-9.8132,0.63521 -17.63775,1.91722 -20.0099,2.99361l0.03065,-0.02124c-2.32219,0.86038 -4.16267,1.77 -5.81417,0.2481c-1.65778,-1.50743 -1.8313,-4.02799 -0.35018,-5.70219c2.27778,-2.55653 6.03065,-2.99674 11.63051,-4.05599c0,-5.51901 -0.06179,-15.85037 -0.14312,-31.3409l-24.24134,4.04609l-0.04416,20.96924l7.07976,0.11343c2.2621,0.03065 4.07095,1.89237 4.03692,4.16942c-0.03571,2.26644 -1.90419,4.07988 -4.17329,4.04778l-22.20248,-0.37239c-2.26885,-0.03934 -4.07046,-1.90467 -4.04368,-4.15494c0.04103,-2.28864 1.91167,-4.10065 4.17521,-4.06227l6.91348,0.12019l0.09751,-54.69024h-6.79281c-2.26934,0 -4.10474,-1.84434 -4.10474,-4.12044c0,-2.26571 1.83541,-4.10981 4.10474,-4.10981h21.58345c2.27513,0 4.12091,1.84409 4.12091,4.10981c0,2.27609 -1.84579,4.12044 -4.12091,4.12044h-6.56981l-0.04416,25.53373l24.17377,-4.04103c-0.05864,-9.80186 -0.10691,-19.49126 -0.17159,-28.4793l-6.83214,0.12381c-2.25992,0.04464 -4.13781,-1.77314 -4.16629,-4.03982c-0.03885,-2.27151 1.76082,-4.13274 4.03692,-4.18245l21.39135,-0.36322c2.26668,-0.0321 4.13781,1.78352 4.17304,4.0473c0.0333,2.26621 -1.78183,4.14867 -4.04247,4.18704l-6.32871,0.08906c0.28141,45.92808 0.35429,60.07917 0.34704,67.10294c2.237,-0.23989 4.24569,-0.39171 5.77435,-0.49475c2.26378,-0.14649 4.21938,1.57838 4.3649,3.83854c0.14553,2.26934 -1.5733,4.22131 -3.83854,4.37046z" id="ID0.1210463703610003" fill="#f9a737"/><path d="M271.08233,187.33829c0.7636,2.13274 -0.34343,4.49016 -2.47471,5.26198c-7.66598,2.74334 -15.429,6.42138 -17.25498,8.88403c-1.35923,1.8243 -3.94159,2.20659 -5.75142,0.84784c-1.82648,-1.3479 -2.21504,-3.91553 -0.86086,-5.7478c1.44877,-1.94473 3.38361,-3.06456 6.48124,-4.83722l-4.0683,-10.05985l-19.00495,3.14952l-0.94026,6.26498c2.92989,0 4.25437,2.05164 4.15252,4.33088c-0.11343,2.25823 -2.03741,4.00748 -4.30168,3.90949l-20.45589,-0.97019c-2.26476,-0.10571 -4.02534,-2.01979 -3.9276,-4.28189c0.10426,-2.27417 2.03548,-4.01931 4.2995,-3.92133l11.92156,0.5785c1.90226,-9.31073 7.9691,-39.93291 9.49222,-47.42391c-5.31218,0.71727 -11.86823,1.6597 -11.86823,1.6597c-2.25389,0.28888 -4.3176,-1.27645 -4.61905,-3.5318c-0.29179,-2.24424 1.27163,-4.31567 3.52094,-4.62121l17.61385,-2.42187c1.31265,-0.18222 2.63786,0.29636 3.55159,1.27139c0.2662,0.28261 1.12827,1.59793 1.28201,1.99638l15.45071,37.35538c0.181,0.31544 5.28442,13.04621 5.28442,13.04621c3.65198,-1.60493 6.00628,-2.78629 7.22361,-3.21853c2.12911,-0.76336 4.49016,0.35139 5.25377,2.4793zM243.97942,175.90111l-9.0385,-22.33256l-5.0397,24.66779z" id="ID0.22932930570095778" fill="#f9a737"/><path d="M318.40129,144.66495c0.84591,0.85097 1.26608,2.01906 1.17799,3.21999c-0.44721,5.8856 -0.52902,15.09184 -0.52493,15.16061c0.09703,1.68094 -0.72137,3.39351 -2.24762,4.10209c-1.96114,0.92675 -4.17883,0.42331 -5.22408,-1.4763c-0.35791,-0.61952 -0.82781,-1.45361 -0.82781,-5.84843c0,-1.87258 0.10161,-4.44818 0.31037,-7.8634c-4.15084,0.22687 -10.20804,0.56353 -17.28466,0.76095l0.10619,53.70871l8.17473,-0.12525c2.26548,-0.01713 4.13274,1.78134 4.16798,4.05792c0.03016,2.26017 -1.78714,4.14312 -4.05286,4.16436l-25.03247,0.37456c-2.26065,0.02799 -4.11681,-1.784 -4.16121,-4.06226c-0.03378,-2.25799 1.78038,-4.12694 4.04731,-4.16629l8.63569,-0.1115l-0.10619,-53.68119c0,0 -16.32991,0.29227 -17.39641,0.29734c0.83553,5.63437 2.48704,15.99058 2.48704,16.17908c0,2.00169 -1.45819,3.75673 -3.50018,4.06348c-2.24472,0.33185 -4.33112,-1.21009 -4.6731,-3.45529l-3.14227,-20.22372c-0.17884,-1.17075 0.17401,-2.3596 0.9422,-3.25618c0.76674,-0.92168 1.89018,-1.44322 3.08218,-1.45191l26.22541,-0.4378c13.4565,-0.25848 25.49005,-1.12151 25.61748,-1.13914c1.18523,-0.07361 2.36612,0.3596 3.19923,1.20961z" id="ID0.5524103571660817" fill="#f9a737"/><path d="M146.24151,197.66967l0.12285,2.34608c0,0.05478 -0.13612,4.71075 -0.15905,4.86665c-0.13154,0.92145 -0.84855,5.70171 -2.43151,8.47207c-1.05249,1.84941 -2.20249,3.21322 -3.38459,4.55389c-1.64932,1.84771 -3.8552,2.98179 -5.80958,3.89429c-2.72885,1.28636 -5.12151,1.29818 -7.8967,1.32473l-2.30771,0.04658c-15.37661,0.46047 -20.23966,-11.55786 -20.66973,-18.00096c-0.00579,-0.05189 -0.00579,-0.11127 -0.00579,-0.17714l-0.14963,-7.26053v-0.14456l0.14963,-11.24339c0,-0.06588 0,-0.14288 0.00579,-0.22373c0.73609,-10.25051 3.54361,-16.74647 8.59081,-19.84989c6.44141,-3.96887 14.33377,-0.69096 16.91879,0.39073c2.02027,0.83239 3.83226,1.9766 5.42922,3.2142v-7.30445c0,-2.27199 1.83275,-4.11416 4.11247,-4.11416c2.26282,0 4.10691,1.84215 4.10691,4.11416v17.79365c0,1.84627 -1.22409,3.45312 -2.99627,3.94883c-1.76541,0.50826 -3.65609,-0.23869 -4.62363,-1.79535c-0.02341,-0.06371 -3.74224,-5.99082 -9.19271,-8.27271c-4.42693,-1.84409 -7.52214,-2.17352 -9.44805,-0.96561c-2.51357,1.53228 -4.17063,6.28043 -4.68806,13.33823c0,0.30265 -0.13732,10.88308 -0.14866,11.01991c0.01134,0.12936 0.14505,6.76626 0.14866,7.04742c0.17256,1.91722 1.5178,10.58622 12.20586,10.25824l2.50923,-0.04031c2.38977,-0.02341 3.39834,-0.04682 4.45082,-0.54447c0.93761,-0.42694 2.49692,-1.16351 3.13358,-1.89912c1.11669,-1.2557 1.80428,-2.10716 2.41801,-3.18788c0.5575,-0.96198 1.14783,-3.6684 1.40703,-5.366c0.01399,-0.47254 0.10257,-3.69615 0.1045,-3.86292c0,-0.17304 -0.11246,-2.28864 -0.11246,-2.31086c0,-2.23265 1.78979,-4.07408 4.04223,-4.1156c2.25992,-0.04248 4.13106,1.77893 4.16773,4.04996z" id="ID0.2358239395543933" fill="#f9a737"/></g></g></g></svg>