<svg version="1.1" xmlns="http://www.w3.org/2000/svg" xmlns:xlink="http://www.w3.org/1999/xlink" width="193.001" height="54.672"><defs><linearGradient x1="143.50141" y1="180.0002" x2="336.50029" y2="180.0002" gradientUnits="userSpaceOnUse" id="color-1"><stop offset="0.012" stop-color="#a7a9ac"/><stop offset="1" stop-color="#414042"/></linearGradient><linearGradient x1="150.74014" y1="179.9993" x2="329.25965" y2="179.9993" gradientUnits="userSpaceOnUse" id="color-2"><stop offset="0" stop-color="#d1d2d3"/><stop offset="1" stop-color="#a4a5a8"/></linearGradient></defs><g transform="translate(-143.4995,-152.664)"><g data-paper-data="{&quot;isPaintingLayer&quot;:true}" fill="none" fill-rule="nonzero" stroke="none" stroke-width="1" stroke-linecap="butt" stroke-linejoin="miter" stroke-miterlimit="10" stroke-dasharray="" stroke-dashoffset="0" font-family="none" font-weight="none" font-size="none" text-anchor="none" style="mix-blend-mode: normal"><path d="M336.5005,198.731c0,4.752 -8.17382,8.605 -18.25006,8.605h-156.503c-10.07836,0 -18.24794,-3.854 -18.24794,-8.605v-37.463c0,-4.752 8.16958,-8.604 18.24794,-8.604h156.50088c10.0826,0 18.25006,3.852 18.25006,8.604v37.463z" data-paper-data="{&quot;origPos&quot;:null}" fill="url(#color-1)"/><path d="M329.25774,161.268v37.462c0,2.862 -4.93526,5.19 -11.00942,5.19h-156.50088c-6.0678,0 -11.0073,-2.328 -11.0073,-5.19v-37.463c0,-2.862 4.9395,-5.19 11.0073,-5.19h156.50088c6.07416,0 11.00942,2.329 11.00942,5.191z" data-paper-data="{&quot;origPos&quot;:null}" fill="url(#color-2)"/><text transform="translate(179.19827,188.76875) scale(0.76002,0.76002)" font-size="40" xml:space="preserve" data-paper-data="{&quot;origPos&quot;:null}" fill="#66ff85" fill-rule="nonzero" stroke="none" stroke-width="1" stroke-linecap="butt" stroke-linejoin="miter" stroke-miterlimit="10" stroke-dasharray="" stroke-dashoffset="0" font-family="Handwriting" font-weight="normal" text-anchor="start" style="mix-blend-mode: normal"><tspan x="0" dy="0">闯关模式</tspan></text></g></g></svg>