<svg version="1.1" xmlns="http://www.w3.org/2000/svg" xmlns:xlink="http://www.w3.org/1999/xlink" width="191.001" height="54.672"><defs><linearGradient x1="144.50139" y1="180.0002" x2="335.50029" y2="180.0002" gradientUnits="userSpaceOnUse" id="color-1"><stop offset="0.012" stop-color="#66b3e3"/><stop offset="1" stop-color="#1c75bc"/></linearGradient></defs><g transform="translate(-144.4995,-152.664)"><g data-paper-data="{&quot;isPaintingLayer&quot;:true}" fill="none" fill-rule="nonzero" stroke="none" stroke-width="1" stroke-linecap="butt" stroke-linejoin="miter" stroke-miterlimit="10" stroke-dasharray="" stroke-dashoffset="0" font-family="none" font-weight="none" font-size="none" text-anchor="none" style="mix-blend-mode: normal"><path d="M335.5005,198.731c0,4.752 -8.08912,8.605 -18.06094,8.605h-154.88122c-9.97392,0 -18.05884,-3.854 -18.05884,-8.605v-37.463c0,-4.752 8.08492,-8.604 18.05884,-8.604h154.87912c9.97812,0 18.06094,3.852 18.06094,8.604v37.463z" data-paper-data="{&quot;origPos&quot;:null}" fill="url(#color-1)"/><path d="M328.33279,161.268v37.462c0,2.862 -4.88411,5.19 -10.89533,5.19h-154.87912c-6.00492,0 -10.89323,-2.328 -10.89323,-5.19v-37.463c0,-2.862 4.88831,-5.19 10.89323,-5.19h154.87912c6.01122,0 10.89533,2.329 10.89533,5.191z" data-paper-data="{&quot;origPos&quot;:null}" fill="#27aae1"/><text transform="translate(175.2974,189.33133) scale(0.80878,0.80878)" font-size="40" xml:space="preserve" data-paper-data="{&quot;origPos&quot;:null}" fill="#eb0000" fill-rule="nonzero" stroke="none" stroke-width="1" stroke-linecap="butt" stroke-linejoin="miter" stroke-miterlimit="10" stroke-dasharray="" stroke-dashoffset="0" font-family="Handwriting" font-weight="normal" text-anchor="start" style="mix-blend-mode: normal"><tspan x="0" dy="0">挑战模式</tspan></text></g></g></svg>