<svg version="1.1" xmlns="http://www.w3.org/2000/svg" xmlns:xlink="http://www.w3.org/1999/xlink" width="68.82084" height="68.82084"><defs><linearGradient x1="205.58959" y1="180.00066" x2="274.41042" y2="180.00066" gradientUnits="userSpaceOnUse" id="color-1"><stop offset="0" stop-color="#8dc63f"/><stop offset="1" stop-color="#006838"/></linearGradient><radialGradient cx="240.00001" cy="180.00066" r="28.14474" gradientUnits="userSpaceOnUse" id="color-2"><stop offset="0" stop-color="#d7df23"/><stop offset="1" stop-color="#009444"/></radialGradient></defs><g transform="translate(-205.58958,-145.58958)"><g data-paper-data="{&quot;isPaintingLayer&quot;:true}" fill="none" fill-rule="nonzero" stroke="none" stroke-width="1" stroke-linecap="butt" stroke-linejoin="miter" stroke-miterlimit="10" stroke-dasharray="" stroke-dashoffset="0" font-family="none" font-weight="none" font-size="none" text-anchor="none" style="mix-blend-mode: normal"><path d="M274.41042,180c0,18.97299 -15.43577,34.41042 -34.41042,34.41042c-18.97382,0 -34.41042,-15.43743 -34.41042,-34.41042c0,-18.97382 15.43577,-34.41042 34.41042,-34.41042c18.97465,0 34.41042,15.43742 34.41042,34.41042z" data-paper-data="{&quot;origPos&quot;:null}" fill="url(#color-1)"/><path d="M211.85477,180.00083c0,-15.54418 12.60105,-28.14523 28.14523,-28.14523c15.54418,0 28.14523,12.60105 28.14523,28.14523c0,15.54418 -12.60105,28.14523 -28.14523,28.14523c-15.54418,0 -28.14523,-12.60105 -28.14523,-28.14523z" data-paper-data="{&quot;origPos&quot;:null}" fill="url(#color-2)"/><text transform="translate(220,174.23125) scale(0.5,0.5)" font-size="40" xml:space="preserve" data-paper-data="{&quot;origPos&quot;:null}" fill="#00ff52" fill-rule="nonzero" stroke="none" stroke-width="1" stroke-linecap="butt" stroke-linejoin="miter" stroke-miterlimit="10" stroke-dasharray="" stroke-dashoffset="0" font-family="Handwriting" font-weight="normal" text-anchor="start" style="mix-blend-mode: normal"><tspan x="0" dy="0">音乐</tspan><tspan x="0" dy="46.15px">设置</tspan></text></g></g></svg>