<svg version="1.1" xmlns="http://www.w3.org/2000/svg" xmlns:xlink="http://www.w3.org/1999/xlink" width="83.00031" height="227.95169" viewBox="0,0,83.00031,227.95169"><g transform="translate(-194.77818,-35.78567)"><g data-paper-data="{&quot;isPaintingLayer&quot;:true}" fill="none" fill-rule="none" stroke="none" stroke-width="none" stroke-linecap="butt" stroke-linejoin="miter" stroke-miterlimit="10" stroke-dasharray="" stroke-dashoffset="0" font-family="none" font-weight="none" font-size="none" text-anchor="none" style="mix-blend-mode: normal"><g data-paper-data="{&quot;origPos&quot;:null}" id="Group"><path d="M219.44847,92.96739c2.90636,-2.06994 2.29806,-5.43359 2.29806,-5.43359c-0.33795,4.31238 -4.19057,1.4662 -4.19057,1.4662c1.62216,0.68998 2.43323,-0.94872 2.23046,-3.44989c-0.60831,0.68998 -1.55457,0.51749 -1.55457,0.51749c1.14902,-0.1725 1.08144,-2.15618 0.74349,-3.79488c-0.13518,-0.25874 -0.20277,-0.60373 -0.33795,-0.86248c-1.9601,-4.57111 2.23046,-5.86483 2.23046,-5.86483c-1.82493,0.25874 -1.48698,-3.70864 -1.48698,-3.70864c0,0 0.54072,2.58743 2.23046,1.03497c1.68974,-1.55246 2.29806,-10.69468 2.29806,-10.69468c1.82493,-6.12357 5.27201,-4.9161 14.46422,-5.60608c9.19222,-0.68998 10.81438,15.78328 11.01714,18.54321c0.40554,5.77858 3.9878,5.34734 3.9878,5.34734c-0.94626,1.89745 -3.10914,0.86248 -3.10914,0.86248c0,0 2.0277,1.63871 0.81108,5.26109c0,0 0.13518,-1.20747 -0.27036,-2.24244c-0.06759,0.60373 -0.20277,1.29371 -0.33795,1.9837c-0.40554,2.15618 2.56842,3.70864 2.56842,3.70864c-2.0277,0.94872 -3.51467,-1.4662 -3.51467,-1.4662c0,0 0.60831,1.55246 1.68974,3.96739c0.54072,0.94872 1.3518,1.12121 2.09529,1.55246c0,0 -0.74349,0.60373 -1.48698,0.25874c0.27036,2.24244 -1.28421,4.22612 -1.28421,4.22612c0.74349,-2.67368 -2.0277,-5.34734 -2.0277,-5.34734c0,0 1.48698,2.58743 0.54072,4.31238c-0.94626,1.72495 0.47313,3.36365 0.47313,3.36365c-3.17672,-0.77623 -3.10914,-3.88113 -3.10914,-3.88113c-1.62216,2.32869 0.47313,6.20982 0.47313,6.20982c-2.29806,-0.86248 -2.23046,-5.34734 -2.23046,-5.34734c0,0 -0.40554,3.19115 0.27036,5.17485c0.6759,1.9837 -1.14902,3.36365 -1.14902,3.36365c0,0 1.08144,-1.55246 -0.6759,-2.75991c-1.14902,-0.77623 -1.55457,-2.41492 -1.68974,-3.44989c0.13518,3.36365 -2.16287,4.57111 -2.16287,4.57111c1.08144,-1.55246 -0.06759,-5.34734 -0.06759,-5.34734c0,0 0.27036,2.67368 -0.81108,4.39862c-1.08144,1.72495 0.40554,4.05363 0.40554,4.05363c-1.68974,-0.86248 -2.0277,-2.67368 -2.0277,-2.67368c-0.40554,1.81119 0.40554,3.88113 0.40554,3.88113c0,0 -2.97395,-2.24244 -2.29806,-5.51984c0.6759,-3.27741 -1.3518,-5.34734 -1.3518,-5.34734c0,0 0.81108,2.24244 -0.6759,5.17485c-1.41938,2.93242 0.20277,4.39862 0.20277,4.39862c-2.83878,-1.29371 -3.3795,-5.17485 -3.3795,-5.17485c-0.20277,6.46856 -4.79888,4.05363 -4.79888,4.05363c0.94626,-0.1725 2.83878,-3.6224 0.6759,-4.31238c-1.08144,-0.34499 -1.41938,-1.03497 -1.48698,-1.55246c0.06759,1.9837 1.48698,3.1049 1.48698,3.1049c-6.15067,0.08625 -5.00165,-5.51984 -5.00165,-5.51984c-2.36565,1.9837 -0.33795,4.31238 -0.33795,4.31238c-3.3795,-0.51749 -3.64985,-7.67603 -0.74349,-9.74597z" id="Shape" fill="#261c17" fill-rule="nonzero" stroke="none" stroke-width="1"/><path d="M223.03074,69.33559c0,0 -0.06759,0.51749 -0.20277,1.20747c-0.13518,0.68998 -0.47313,1.63871 -0.94626,2.41492c-0.13518,0.1725 -0.27036,0.34499 -0.47313,0.51749c-0.20277,0.1725 -0.40554,0.25874 -0.60831,0.1725c-0.20277,0 -0.40554,-0.1725 -0.54072,-0.25874c-0.13518,-0.1725 -0.27036,-0.34499 -0.33795,-0.43124c-0.20277,-0.34499 -0.27036,-0.60373 -0.33795,-0.77623c-0.06759,-0.1725 -0.06759,-0.34499 -0.06759,-0.34499c0,0 0.06759,0.08625 0.13518,0.25874c0.06759,0.1725 0.27036,0.43124 0.47313,0.60373c0.20277,0.25874 0.47313,0.43124 0.74349,0.43124c0.27036,0 0.54072,-0.25874 0.74349,-0.60373c0.47313,-0.68998 0.81108,-1.55246 1.08144,-2.15618c0.13518,-0.60373 0.33795,-1.03497 0.33795,-1.03497z" id="Shape" fill="#120d0b" fill-rule="nonzero" stroke="none" stroke-width="1"/><path d="M220.93545,75.5454c0,0 -0.27036,0.1725 -0.74349,0.51749c-0.40554,0.25874 -0.94626,0.68998 -1.3518,1.29371c-0.13518,0.08625 -0.20277,0.25874 -0.27036,0.43124c-0.06759,0.1725 -0.13518,0.34499 -0.20277,0.43124c-0.06759,0.34499 -0.13518,0.68998 -0.13518,0.94872c0,0.1725 0,0.25874 0,0.43124c0,0.08625 0.06759,0.25874 0.06759,0.34499c0,0.1725 0.06759,0.25874 0.06759,0.25874c0,0 -0.06759,-0.08625 -0.13518,-0.25874c-0.06759,-0.1725 -0.20277,-0.34499 -0.27036,-0.68998c-0.06759,-0.1725 -0.06759,-0.34499 -0.06759,-0.51749c0,-0.1725 0,-0.43124 0.06759,-0.60373c0,-0.1725 0.13518,-0.43124 0.20277,-0.60373c0.13518,-0.1725 0.20277,-0.34499 0.33795,-0.51749c0.13518,-0.1725 0.27036,-0.34499 0.40554,-0.43124c0.13518,-0.1725 0.27036,-0.25874 0.40554,-0.34499c0.27036,-0.1725 0.54072,-0.34499 0.81108,-0.43124c0.47313,-0.25874 0.81108,-0.25874 0.81108,-0.25874z" id="Shape" fill="#120d0b" fill-rule="nonzero" stroke="none" stroke-width="1"/><path d="M217.55596,89.00001c0,0 0.06759,0 0.20277,0c0.13518,0 0.27036,0.08625 0.47313,0c0.20277,0 0.40554,-0.08625 0.60831,-0.1725c0.06759,-0.08625 0.20277,-0.1725 0.27036,-0.25874l0.13518,-0.1725l0.06759,-0.1725c0.06759,-0.08625 0.06759,-0.25874 0.13518,-0.43124c0.06759,-0.1725 0.06759,-0.34499 0.06759,-0.43124c0.06759,-0.34499 0.06759,-0.60373 0.13518,-0.86248c0.06759,-0.51749 0.06759,-0.86248 0.06759,-0.86248c0,0 0.06759,0.34499 0.13518,0.86248c0,0.25874 0.06759,0.60373 0,0.94872c0,0.1725 0,0.34499 -0.06759,0.51749c-0.06759,0.1725 -0.06759,0.34499 -0.13518,0.51749l-0.13518,0.25874l-0.13518,0.25874c-0.13518,0.1725 -0.27036,0.25874 -0.40554,0.34499c-0.13518,0.08625 -0.27036,0.08625 -0.40554,0.08625c-0.13518,0 -0.27036,0 -0.33795,0c-0.20277,-0.08625 -0.40554,-0.1725 -0.47313,-0.25874c-0.13518,-0.08625 -0.20277,-0.1725 -0.20277,-0.1725z" id="Shape" fill="#120d0b" fill-rule="nonzero" stroke="none" stroke-width="1"/><path d="M220.52991,92.19116c0,0 -0.13518,0.08625 -0.40554,0.34499c-0.27036,0.1725 -0.60831,0.51749 -0.94626,0.94872c-0.20277,0.25874 -0.40554,0.43124 -0.54072,0.77623c-0.20277,0.25874 -0.33795,0.60373 -0.47313,0.94872c-0.06759,0.1725 -0.13518,0.34499 -0.20277,0.51749c-0.13518,0.25874 -0.20277,0.43124 -0.20277,0.60373l-0.13518,0.68998c0,0.1725 0,0.43124 0,0.60373c0,0.1725 0,0.43124 0,0.60373c0,0.1725 0,0.43124 0.06759,0.60373c0.06759,0.43124 0.13518,0.77623 0.27036,1.20747c0.13518,0.34499 0.27036,0.68998 0.40554,1.03497c0.13518,0.34499 0.33795,0.60373 0.47313,0.77623c0.33795,0.43124 0.74349,0.68998 1.01385,0.77623c0.27036,0.08625 0.47313,0.08625 0.47313,0.08625c0,0 -0.20277,0.08625 -0.47313,0c-0.27036,-0.08625 -0.74349,-0.1725 -1.14902,-0.68998c-0.20277,-0.1725 -0.40554,-0.51749 -0.60831,-0.77623c-0.20277,-0.34499 -0.33795,-0.68998 -0.47313,-1.03497c-0.13518,-0.34499 -0.27036,-0.77623 -0.33795,-1.20747c-0.06759,-0.1725 -0.06759,-0.43124 -0.06759,-0.68998c0,-0.25874 -0.06759,-0.43124 -0.06759,-0.68998c0,-0.25874 0,-0.43124 0,-0.68998c0.06759,-0.25874 0.06759,-0.43124 0.13518,-0.68998c0.06759,-0.1725 0.13518,-0.43124 0.20277,-0.60373c0.06759,-0.1725 0.13518,-0.43124 0.20277,-0.60373c0.20277,-0.34499 0.40554,-0.68998 0.60831,-0.94872c0.20277,-0.25874 0.40554,-0.51749 0.60831,-0.77623c0.40554,-0.43124 0.81108,-0.68998 1.08144,-0.86248c0.33795,-0.1725 0.54072,-0.25874 0.54072,-0.25874z" id="Shape" fill="#120d0b" fill-rule="nonzero" stroke="none" stroke-width="1"/><path d="M225.73433,103.92081c0,0 -0.60831,0.1725 -1.55457,0.08625c-0.20277,0 -0.47313,-0.08625 -0.74349,-0.1725c-0.27036,-0.08625 -0.54072,-0.1725 -0.81108,-0.34499c-0.13518,-0.08625 -0.27036,-0.1725 -0.40554,-0.25874c-0.13518,-0.08625 -0.27036,-0.1725 -0.40554,-0.34499l-0.40554,-0.43124c-0.13518,-0.1725 -0.20277,-0.34499 -0.33795,-0.51749l-0.13518,-0.25874c-0.06759,-0.08625 -0.06759,-0.1725 -0.06759,-0.25874l-0.20277,-0.60373c-0.06759,-0.43124 -0.13518,-0.77623 -0.13518,-1.20747c0,-0.34499 0,-0.77623 0.06759,-1.12121c0.06759,-0.34499 0.13518,-0.68998 0.20277,-0.94872c0.06759,-0.25874 0.13518,-0.51749 0.20277,-0.77623c0.06759,-0.25874 0.13518,-0.43124 0.20277,-0.60373c0.13518,-0.34499 0.20277,-0.51749 0.20277,-0.51749c0,0 -0.06759,0.1725 -0.13518,0.51749c-0.06759,0.34499 -0.20277,0.77623 -0.27036,1.37996c-0.06759,0.25874 -0.06759,0.60373 -0.13518,0.94872c0,0.34499 0,0.68998 0,1.03497c0,0.34499 0.06759,0.68998 0.13518,1.03497l0.20277,0.51749c0,0.08625 0.06759,0.1725 0.06759,0.25874l0.13518,0.25874c0.06759,0.1725 0.13518,0.34499 0.27036,0.43124l0.33795,0.34499c0.13518,0.08625 0.27036,0.1725 0.33795,0.25874c0.13518,0.08625 0.27036,0.1725 0.40554,0.25874c0.27036,0.1725 0.54072,0.25874 0.74349,0.34499c0.27036,0.08625 0.47313,0.1725 0.74349,0.25874c0.87866,0.43124 1.48698,0.43124 1.48698,0.43124z" id="Shape" fill="#120d0b" fill-rule="nonzero" stroke="none" stroke-width="1"/><path d="M220.46232,81.84146c0.40554,5.00235 -2.23046,4.22612 -2.23046,4.22612" id="Shape" fill="none" fill-rule="evenodd" stroke="#120d0b" stroke-width="0.1951"/><path d="M220.93545,96.50354c0,0 0.06759,-0.51749 0.27036,-1.03497c0.13518,-0.51749 0.40554,-0.94872 0.40554,-0.94872c0,0 -0.06759,0.51749 -0.27036,1.03497c-0.13518,0.51749 -0.40554,0.94872 -0.40554,0.94872z" id="Shape" fill="#120d0b" fill-rule="nonzero" stroke="none" stroke-width="1"/><path d="M221.07063,94.86483c0,0 0.06759,-0.43124 0.20277,-0.77623c0.13518,-0.34499 0.33795,-0.68998 0.33795,-0.68998c0,0 -0.06759,0.43124 -0.20277,0.77623c-0.13518,0.34499 -0.33795,0.68998 -0.33795,0.68998z" id="Shape" fill="#120d0b" fill-rule="nonzero" stroke="none" stroke-width="1"/><path d="M220.86786,82.18645c0,0 -0.06759,-0.34499 -0.13518,-0.68998c-0.06759,-0.34499 0,-0.68998 0,-0.68998c0,0 0.06759,0.34499 0.13518,0.68998c0.06759,0.25874 0,0.68998 0,0.68998z" id="Shape" fill="#120d0b" fill-rule="nonzero" stroke="none" stroke-width="1"/><path d="M221.34099,81.41022c0,0 -0.13518,-0.34499 -0.20277,-0.68998c-0.06759,-0.34499 -0.06759,-0.68998 -0.06759,-0.68998c0,0 0.13518,0.34499 0.20277,0.68998c0.06759,0.34499 0.06759,0.68998 0.06759,0.68998z" id="Shape" fill="#120d0b" fill-rule="nonzero" stroke="none" stroke-width="1"/><path d="M222.62519,75.02792c0,0 -0.20277,0.25874 -0.54072,0.43124c-0.20277,0.08625 -0.40554,0.25874 -0.60831,0.34499c-0.27036,0.08625 -0.54072,0.08625 -0.81108,0.08625c-0.27036,-0.08625 -0.54072,-0.1725 -0.74349,-0.43124c-0.13518,-0.08625 -0.20277,-0.25874 -0.20277,-0.34499c-0.06759,-0.08625 -0.06759,-0.25874 -0.13518,-0.34499c-0.06759,-0.25874 -0.06759,-0.43124 -0.06759,-0.60373c0,-0.1725 0,-0.25874 0,-0.25874c0,0 0,0.08625 0.06759,0.1725c0,0.08625 0.06759,0.1725 0.06759,0.25874c0,0.08625 0.06759,0.1725 0.13518,0.25874c0.06759,0.1725 0.20277,0.43124 0.40554,0.51749c0.06759,0.08625 0.20277,0.08625 0.27036,0.1725c0.06759,0.08625 0.20277,0.08625 0.27036,0.08625c0.20277,0.08625 0.47313,0 0.6759,0c0.20277,0 0.40554,-0.08625 0.60831,-0.08625c0.33795,-0.1725 0.60831,-0.25874 0.60831,-0.25874z" id="Shape" fill="#120d0b" fill-rule="nonzero" stroke="none" stroke-width="1"/><path d="M253.17581,89.94873c0,0 -0.33795,0.25874 -0.94626,0.25874c-0.13518,0 -0.33795,0 -0.47313,0c-0.20277,0 -0.33795,-0.08625 -0.54072,-0.08625c-0.20277,-0.08625 -0.40554,-0.1725 -0.54072,-0.25874c-0.20277,-0.08625 -0.33795,-0.25874 -0.54072,-0.43124c-0.13518,-0.1725 -0.27036,-0.34499 -0.40554,-0.60373c-0.13518,-0.1725 -0.20277,-0.43124 -0.27036,-0.60373c-0.06759,-0.25874 -0.13518,-0.43124 -0.20277,-0.60373c-0.06759,-0.1725 -0.06759,-0.43124 -0.06759,-0.60373c-0.06759,-0.34499 -0.06759,-0.68998 -0.06759,-0.86248c0,-0.1725 0,-0.34499 0,-0.34499c0,0 0.06759,0.08625 0.06759,0.34499c0.06759,0.1725 0.06759,0.51749 0.20277,0.86248c0.06759,0.1725 0.13518,0.34499 0.13518,0.51749c0.06759,0.1725 0.13518,0.34499 0.20277,0.51749c0.06759,0.1725 0.20277,0.34499 0.27036,0.51749c0.13518,0.1725 0.20277,0.34499 0.33795,0.43124c0.27036,0.25874 0.60831,0.51749 0.87866,0.60373c0.13518,0.08625 0.33795,0.1725 0.47313,0.1725c0.13518,0 0.27036,0.08625 0.40554,0.08625c0.27036,0 0.54072,0.08625 0.6759,0c0.27036,0.08625 0.40554,0.08625 0.40554,0.08625z" id="Shape" fill="#120d0b" fill-rule="nonzero" stroke="none" stroke-width="1"/><path d="M251.14811,86.49882c0,0 0.06759,-0.43124 0.13518,-1.12121c0,-0.34499 0.06759,-0.68998 0,-1.12121c0,-0.43124 -0.06759,-0.77623 -0.20277,-1.20747c-0.06759,-0.1725 -0.13518,-0.34499 -0.20277,-0.51749c-0.06759,-0.1725 -0.20277,-0.34499 -0.27036,-0.51749c-0.06759,-0.1725 -0.20277,-0.25874 -0.27036,-0.43124c-0.06759,-0.1725 -0.20277,-0.25874 -0.33795,-0.34499c-0.20277,-0.25874 -0.40554,-0.34499 -0.47313,-0.43124c-0.13518,-0.08625 -0.20277,-0.1725 -0.20277,-0.1725c0,0 0.06759,0 0.20277,0.08625c0.13518,0.08625 0.33795,0.08625 0.60831,0.25874c0.13518,0.08625 0.27036,0.1725 0.40554,0.25874c0.13518,0.08625 0.27036,0.25874 0.40554,0.43124c0.13518,0.1725 0.27036,0.34499 0.33795,0.51749c0.06759,0.1725 0.20277,0.43124 0.27036,0.60373c0.13518,0.43124 0.20277,0.94872 0.13518,1.37996c0,0.43124 -0.06759,0.86248 -0.13518,1.12121c-0.20277,0.86248 -0.40554,1.20747 -0.40554,1.20747z" id="Shape" fill="#120d0b" fill-rule="nonzero" stroke="none" stroke-width="1"/><path d="M253.44616,80.46151c0,0 -0.06759,0 -0.27036,0.08625c-0.20277,0 -0.47313,0 -0.74349,0c-0.13518,0 -0.33795,-0.08625 -0.47313,-0.1725c-0.13518,-0.08625 -0.33795,-0.1725 -0.54072,-0.25874c-0.20277,-0.08625 -0.33795,-0.25874 -0.54072,-0.43124c-0.20277,-0.1725 -0.33795,-0.34499 -0.47313,-0.51749c-0.13518,-0.25874 -0.27036,-0.43124 -0.33795,-0.68998c-0.06759,-0.25874 -0.20277,-0.43124 -0.27036,-0.68998c-0.06759,-0.25874 -0.13518,-0.43124 -0.20277,-0.68998c0,-0.25874 -0.06759,-0.43124 -0.06759,-0.60373c-0.06759,-0.34499 0,-0.68998 -0.06759,-0.94872c0,-0.25874 0,-0.34499 0,-0.34499c0,0 0,0.08625 0.06759,0.34499c0.06759,0.25874 0.06759,0.51749 0.20277,0.86248c0.06759,0.1725 0.06759,0.34499 0.13518,0.60373c0.06759,0.1725 0.13518,0.43124 0.20277,0.60373c0.06759,0.25874 0.20277,0.43124 0.27036,0.60373c0.06759,0.1725 0.20277,0.34499 0.33795,0.60373c0.13518,0.1725 0.27036,0.34499 0.40554,0.51749c0.13518,0.1725 0.27036,0.25874 0.47313,0.43124c0.13518,0.1725 0.33795,0.1725 0.47313,0.34499c0.13518,0.08625 0.27036,0.1725 0.47313,0.1725c0.27036,0.08625 0.54072,0.1725 0.6759,0.25874c0.20277,-0.08625 0.27036,-0.08625 0.27036,-0.08625z" id="Shape" fill="#120d0b" fill-rule="nonzero" stroke="none" stroke-width="1"/><path d="M253.37858,94.0886c0,0 -0.20277,0.25874 -0.6759,0.34499c-0.13518,0 -0.20277,0.08625 -0.33795,0.08625c-0.13518,0 -0.27036,0 -0.40554,0c-0.13518,0 -0.27036,-0.08625 -0.40554,-0.1725c-0.13518,-0.08625 -0.27036,-0.1725 -0.40554,-0.25874c-0.27036,-0.25874 -0.47313,-0.51749 -0.60831,-0.77623c-0.13518,-0.25874 -0.27036,-0.60373 -0.33795,-0.86248c-0.06759,-0.25874 -0.06759,-0.51749 -0.13518,-0.60373c0,-0.1725 0,-0.25874 0,-0.25874c0,0 0.06759,0.08625 0.13518,0.1725c0.06759,0.1725 0.13518,0.34499 0.27036,0.51749c0.06759,0.08625 0.13518,0.25874 0.20277,0.34499c0.06759,0.08625 0.13518,0.25874 0.20277,0.34499c0.06759,0.08625 0.20277,0.25874 0.27036,0.34499c0.06759,0.08625 0.20277,0.1725 0.27036,0.25874c0.13518,0.08625 0.20277,0.1725 0.33795,0.25874c0.13518,0.08625 0.20277,0.08625 0.33795,0.1725c0.20277,0.08625 0.47313,0.08625 0.6759,0.08625c0.20277,0 0.40554,0 0.47313,0c0,0.08625 0.13518,0 0.13518,0z" id="Shape" fill="#120d0b" fill-rule="nonzero" stroke="none" stroke-width="1"/><path d="M248.64729,86.32633c0,0 -0.06759,-0.25874 -0.06759,-0.60373c0,-0.34499 0.06759,-0.60373 0.06759,-0.60373c0,0 0.06759,0.25874 0.06759,0.60373c-0.06759,0.25874 -0.06759,0.60373 -0.06759,0.60373z" id="Shape" fill="#120d0b" fill-rule="nonzero" stroke="none" stroke-width="1"/><path d="M247.97138,84.42888c0,0 0.06759,0.25874 0.06759,0.51749c0,0.25874 -0.06759,0.51749 -0.06759,0.51749c0,0 -0.06759,-0.25874 -0.06759,-0.51749c0.06759,-0.25874 0.06759,-0.51749 0.06759,-0.51749z" id="Shape" fill="#120d0b" fill-rule="nonzero" stroke="none" stroke-width="1"/><path d="M249.32318,81.32398c0,0 -0.20277,-0.08625 -0.33795,-0.1725c-0.13518,-0.08625 -0.27036,-0.34499 -0.27036,-0.34499c0,0 0.20277,0.08625 0.33795,0.1725c0.20277,0.1725 0.27036,0.34499 0.27036,0.34499z" id="Shape" fill="#120d0b" fill-rule="nonzero" stroke="none" stroke-width="1"/></g><g data-paper-data="{&quot;origPos&quot;:null}" id="Group" fill-rule="nonzero" stroke="none" stroke-width="1"><g id="Shape"><path d="M263.31428,157.65298c0,0 2.16287,0.77623 3.58226,4.74361c1.01385,2.67368 2.43323,4.39862 1.82493,4.9161c-1.08144,0.94872 -2.50082,-3.27741 -2.50082,-3.27741c0,0 0.60831,4.05363 0.6759,5.34734c0.13518,1.29371 0.13518,3.88113 -0.27036,4.22612c-0.6759,0.51749 -0.74349,-1.03497 -1.01385,-3.79488c0,0 0.06759,2.32869 -0.27036,3.6224c-0.27036,1.03497 -1.01385,1.55246 -1.28421,0.1725c0,0 -0.40554,2.24244 -1.41938,-0.08625c0,0 -1.08144,1.37996 -1.21662,-4.48487c0,-2.50117 -3.9878,-11.47091 1.89251,-11.38467z" fill="#875137"/><path d="M262.70598,173.52252c0,0 0,-0.43124 0,-1.03497c0,-0.60373 0,-1.4662 -0.06759,-2.32869c0,-0.86248 -0.06759,-1.63871 -0.06759,-2.32869c0,-0.60373 0,-1.03497 0,-1.03497c0,0 0.13518,0.43124 0.27036,1.03497c0.13518,0.60373 0.20277,1.4662 0.27036,2.32869c0,0.86248 0,1.72495 -0.13518,2.32869c-0.13518,0.60373 -0.27036,1.03497 -0.27036,1.03497z" fill="#613a27"/><path d="M264.19295,173.95374c0,0 0,-0.43124 0,-1.12121c0,-0.68998 0,-1.55246 -0.06759,-2.41492c0,-0.86248 -0.06759,-1.81119 -0.13518,-2.41492c0,-0.34499 0,-0.60373 -0.06759,-0.77623c0,-0.1725 0,-0.34499 0,-0.34499c0,0 0.13518,0.43124 0.27036,1.03497c0.13518,0.68998 0.27036,1.55246 0.33795,2.50117c0,0.94872 0,1.81119 -0.13518,2.50117c-0.06759,0.60373 -0.20277,1.03497 -0.20277,1.03497z" fill="#613a27"/><path d="M265.67993,171.53882c0,0 -0.06759,-0.34499 -0.13518,-0.86248c-0.06759,-0.51749 -0.06759,-1.20747 -0.13518,-1.89745c0,-0.68998 -0.06759,-1.37996 -0.06759,-1.89745c0,-0.25874 0,-0.51749 0,-0.60373c0,-0.1725 0,-0.25874 0,-0.25874c0,0 0.13518,0.34499 0.27036,0.77623c0.13518,0.51749 0.20277,1.20747 0.27036,1.89745c0,0.68998 0,1.37996 -0.06759,1.89745c-0.06759,0.60373 -0.13518,0.94872 -0.13518,0.94872z" fill="#613a27"/><path d="M263.99018,158.17046c0,0 0.06759,0 0.20277,0c0.13518,0 0.33795,0.08625 0.47313,0.25874c0.40554,0.25874 0.81108,0.77623 1.14902,1.37996c0.33795,0.60373 0.60831,1.20747 0.81108,1.72495c0.20277,0.51749 0.27036,0.86248 0.27036,0.86248c0,0 -0.20277,-0.25874 -0.47313,-0.68998c-0.27036,-0.43124 -0.60831,-0.94872 -0.94626,-1.55246c-0.33795,-0.51749 -0.6759,-1.12121 -0.94626,-1.4662c-0.13518,-0.1725 -0.27036,-0.34499 -0.40554,-0.43124c-0.06759,-0.08625 -0.13518,-0.08625 -0.13518,-0.08625z" fill="#613a27"/><path d="M266.22064,163.94904c0,0 -0.20277,0.08625 -0.60831,0.1725c-0.33795,0 -0.87866,-0.1725 -1.28421,-0.43124c-0.20277,-0.1725 -0.40554,-0.34499 -0.54072,-0.60373c-0.13518,-0.25874 -0.27036,-0.43124 -0.33795,-0.60373c-0.06759,-0.1725 -0.13518,-0.34499 -0.20277,-0.51749c-0.06759,-0.08625 -0.06759,-0.1725 -0.06759,-0.1725c0,0 0.06759,0.08625 0.13518,0.1725c0.06759,0.08625 0.20277,0.25874 0.33795,0.34499c0.13518,0.1725 0.27036,0.34499 0.40554,0.51749c0.13518,0.1725 0.33795,0.34499 0.54072,0.43124c0.33795,0.25874 0.81108,0.51749 1.08144,0.60373c0.27036,0 0.54072,0.08625 0.54072,0.08625z" fill="#613a27"/></g><g id="Shape"><g><path d="M256.28494,126.77639c2.23046,3.36365 3.9878,12.93712 5.06924,19.49192c0.6759,4.22612 2.29806,11.72966 2.29806,11.72966c-0.60831,1.81119 -1.9601,1.81119 -3.3119,1.63871c0,0 -1.28421,-3.19115 -3.71744,-9.31472c-2.636,-6.64106 -5.81273,-18.80194 -5.06924,-21.38937c0.94626,-3.1049 3.64985,-3.88113 4.73129,-2.15618z" fill="#52b6cc"/><path d="M257.50155,129.10508c0,0 0.47313,1.20747 1.01385,3.01867c0.27036,0.94872 0.60831,1.9837 0.87866,3.19115c0.27036,1.20747 0.60831,2.41492 0.87866,3.70864c0.27036,1.29371 0.47313,2.50117 0.6759,3.70864c0.13518,0.60373 0.20277,1.20747 0.27036,1.72495c0.06759,0.51749 0.13518,1.12121 0.20277,1.55246c0.13518,0.94872 0.20277,1.81119 0.27036,2.32869c0.06759,0.60373 0.06759,0.86248 0.06759,0.86248c0,0 -0.20277,-1.29371 -0.54072,-3.19115c-0.13518,-0.94872 -0.40554,-2.06994 -0.60831,-3.27741c-0.20277,-1.20747 -0.47313,-2.41492 -0.74349,-3.70864c-0.27036,-1.29371 -0.54072,-2.50117 -0.81108,-3.70864c-0.27036,-1.20747 -0.54072,-2.24244 -0.74349,-3.19115c-0.47313,-1.72495 -0.81108,-3.01867 -0.81108,-3.01867z" fill="#2e83bf"/></g><path d="M260.27274,159.29168c0,0 -0.20277,-0.34499 -0.54072,-1.03497c-0.33795,-0.68998 -0.74349,-1.55246 -1.28421,-2.75991c-0.47313,-1.12121 -1.08144,-2.50117 -1.62216,-3.96739c-0.54072,-1.4662 -1.14902,-3.1049 -1.68974,-4.74361c-0.54072,-1.63871 -1.01385,-3.27741 -1.48698,-4.82986c-0.20277,-0.77623 -0.40554,-1.55246 -0.60831,-2.24244c-0.20277,-0.68998 -0.33795,-1.37996 -0.47313,-2.06994c-0.27036,-1.29371 -0.47313,-2.32869 -0.60831,-3.1049c-0.13518,-0.77623 -0.20277,-1.20747 -0.20277,-1.20747c0,0 0.13518,0.43124 0.27036,1.12121c0.06759,0.34499 0.20277,0.77623 0.33795,1.29371c0.13518,0.51749 0.27036,1.12121 0.47313,1.72495c0.33795,1.29371 0.74349,2.67368 1.14902,4.22612c0.47313,1.55246 0.94626,3.19115 1.48698,4.82986c0.54072,1.63871 1.08144,3.19115 1.62216,4.74361c0.54072,1.4662 1.08144,2.84616 1.55457,4.05363c1.01385,2.41492 1.62216,3.96739 1.62216,3.96739z" fill="#2e83bf"/></g><g id="Shape"><g><path d="M255.27109,133.58994c-3.71744,4.13987 -13.24761,-28.46166 -9.73294,-38.12138c3.64985,-10.09095 8.24596,5.69233 9.12463,9.57346c1.9601,8.79724 4.32575,24.40804 0.60831,28.54791z" fill="#52b6cc"/><path d="M252.97303,99.1772c0,0 0.40554,1.20747 0.94626,3.01867c0.27036,0.94872 0.54072,1.9837 0.81108,3.1049c0.27036,1.12121 0.54072,2.41492 0.81108,3.6224c0.27036,1.20747 0.47313,2.50117 0.6759,3.70864c0.20277,1.20747 0.33795,2.32869 0.40554,3.27741c0.13518,0.94872 0.13518,1.72495 0.20277,2.32869c0,0.60373 0.06759,0.86248 0.06759,0.86248c0,0 -0.06759,-0.34499 -0.13518,-0.86248c-0.06759,-0.51749 -0.20277,-1.37996 -0.33795,-2.24244c-0.13518,-0.94872 -0.33795,-2.06994 -0.54072,-3.19115c-0.20277,-1.20747 -0.40554,-2.41492 -0.6759,-3.6224c-0.20277,-1.20747 -0.47313,-2.50117 -0.74349,-3.6224c-0.27036,-1.12121 -0.47313,-2.24244 -0.74349,-3.19115c-0.40554,-1.89745 -0.74349,-3.19115 -0.74349,-3.19115z" fill="#2e83bf"/><path d="M247.83621,92.2774c0,0 -0.06759,0.08625 -0.27036,0.1725c-0.13518,0.08625 -0.40554,0.34499 -0.6759,0.60373c-0.27036,0.34499 -0.54072,0.68998 -0.74349,1.29371c-0.13518,0.25874 -0.20277,0.60373 -0.33795,0.86248c-0.06759,0.1725 -0.13518,0.34499 -0.13518,0.51749c-0.06759,0.1725 -0.06759,0.34499 -0.13518,0.51749c-0.20277,0.68998 -0.27036,1.55246 -0.40554,2.41492c-0.06759,0.43124 -0.06759,0.86248 -0.06759,1.37996c0,0.43124 -0.06759,0.94872 -0.06759,1.37996c0,0.94872 0,1.9837 0.13518,2.93242c0.06759,1.03497 0.13518,1.9837 0.27036,3.01867c0.13518,1.03497 0.20277,2.06994 0.40554,3.01867c0.20277,0.94872 0.33795,1.9837 0.47313,2.93242c0.20277,0.94872 0.40554,1.81119 0.54072,2.67368c0.20277,0.86248 0.33795,1.63871 0.47313,2.41492c0.74349,2.93242 1.14902,4.9161 1.14902,4.9161c0,0 -0.54072,-1.89745 -1.41938,-4.82986c-0.20277,-0.77623 -0.33795,-1.55246 -0.54072,-2.41492c-0.20277,-0.86248 -0.40554,-1.72495 -0.60831,-2.67368c-0.20277,-0.94872 -0.33795,-1.89745 -0.54072,-2.93242c-0.20277,-0.94872 -0.27036,-1.9837 -0.47313,-3.01867c-0.13518,-1.03497 -0.20277,-2.06994 -0.27036,-3.1049c-0.06759,-1.03497 -0.06759,-1.9837 -0.06759,-3.01867c0,-0.51749 0,-0.94872 0.06759,-1.4662c0.06759,-0.43124 0.06759,-0.94872 0.13518,-1.37996c0.13518,-0.86248 0.27036,-1.72495 0.47313,-2.41492c0.06759,-0.1725 0.06759,-0.34499 0.13518,-0.51749c0.06759,-0.1725 0.13518,-0.34499 0.20277,-0.51749c0.13518,-0.34499 0.20277,-0.60373 0.40554,-0.86248c0.27036,-0.51749 0.54072,-0.94872 0.81108,-1.20747c0.27036,-0.25874 0.54072,-0.43124 0.6759,-0.60373c0.33795,-0.08625 0.40554,-0.08625 0.40554,-0.08625z" fill="#2e83bf"/></g><g><g><path d="M257.70432,105.73201c2.36565,5.26109 0.40554,8.96973 -4.73129,11.64341c-5.13682,2.67368 -9.9357,-0.86248 -9.86812,-4.31238c0.13518,-6.46856 -0.6759,-7.93476 0.74349,-14.14459c1.41938,-6.20982 3.3795,-7.24478 5.60996,-6.81355c3.04154,0.60373 5.88032,8.36601 8.24596,13.62709z" fill="#6fced9"/><path d="M253.64894,96.67602c0,0 0.74349,1.20747 1.75734,3.19115c0.47313,1.03497 1.08144,2.15618 1.62216,3.44989c0.54072,1.29371 1.08144,2.67368 1.55457,4.22612c0.20277,0.77623 0.40554,1.55246 0.40554,2.32869c0,0.08625 0,0.1725 0,0.34499v0.25874c0,0.1725 0,0.34499 -0.06759,0.60373l-0.13518,0.60373l-0.20277,0.51749c-0.27036,0.68998 -0.6759,1.20747 -1.08144,1.72495c-0.40554,0.51749 -0.81108,0.86248 -1.14902,1.20747c-0.74349,0.68998 -1.41938,1.12121 -1.9601,1.4662c-0.47313,0.34499 -0.74349,0.43124 -0.74349,0.43124c0,0 0.27036,-0.1725 0.74349,-0.51749c0.47313,-0.34499 1.08144,-0.86248 1.82493,-1.63871c0.6759,-0.68998 1.48698,-1.63871 2.0277,-2.93242l0.20277,-0.51749l0.13518,-0.51749c0.06759,-0.1725 0.06759,-0.34499 0.06759,-0.51749v-0.25874c0,0 0,-0.1725 0,-0.25874c0,-0.68998 -0.20277,-1.4662 -0.40554,-2.24244c-0.40554,-1.4662 -0.94626,-2.84616 -1.48698,-4.13987c-0.54072,-1.29371 -1.01385,-2.50117 -1.48698,-3.53614c-1.01385,-1.89745 -1.62216,-3.27741 -1.62216,-3.27741z" fill="#3fadc4"/><path d="M248.5121,92.10491c0,0 -0.40554,-0.08625 -1.01385,0.1725c-0.33795,0.08625 -0.6759,0.34499 -1.01385,0.68998c-0.33795,0.34499 -0.74349,0.86248 -1.01385,1.4662c-0.33795,0.60373 -0.60831,1.29371 -0.87866,2.06994c-0.20277,0.77623 -0.47313,1.63871 -0.60831,2.50117c-0.33795,1.72495 -0.60831,3.70864 -0.60831,5.60608c-0.06759,0.94872 0,1.9837 0,2.93242c0,0.51749 0,0.94872 0,1.4662c0,0.25874 0,0.51749 0,0.77623c0,0.25874 -0.06759,0.43124 -0.06759,0.68998c-0.06759,0.86248 -0.06759,1.72495 0,2.58743c0.06759,0.77623 0.33795,1.55246 0.60831,2.15618c0.27036,0.60373 0.6759,1.03497 1.01385,1.4662c0.20277,0.1725 0.33795,0.34499 0.54072,0.43124c0.20277,0.08625 0.33795,0.25874 0.47313,0.34499c0.27036,0.1725 0.54072,0.25874 0.74349,0.34499c0.20277,0.08625 0.27036,0.08625 0.27036,0.08625c0,0 -0.06759,0 -0.27036,-0.08625c-0.20277,-0.08625 -0.47313,-0.08625 -0.74349,-0.25874c-0.13518,-0.08625 -0.33795,-0.1725 -0.54072,-0.25874c-0.20277,-0.1725 -0.33795,-0.25874 -0.54072,-0.43124c-0.40554,-0.34499 -0.81108,-0.77623 -1.14902,-1.4662c-0.33795,-0.60373 -0.60831,-1.37996 -0.74349,-2.24244c-0.13518,-0.86248 -0.13518,-1.81119 -0.06759,-2.67368c0,-0.25874 0.06759,-0.43124 0.06759,-0.68998c0,-0.1725 0,-0.43124 0,-0.68998c0,-0.43124 0,-0.94872 -0.06759,-1.4662c0,-0.94872 -0.06759,-1.9837 0,-2.93242c0.06759,-1.9837 0.33795,-3.96739 0.6759,-5.77858c0.20277,-0.86248 0.40554,-1.72495 0.6759,-2.50117c0.27036,-0.77623 0.60831,-1.4662 0.94626,-2.06994c0.33795,-0.60373 0.74349,-1.12121 1.14902,-1.37996c0.40554,-0.34499 0.81108,-0.51749 1.08144,-0.68998c0.33795,-0.08625 0.60831,-0.1725 0.81108,-0.08625c0.20277,-0.08625 0.27036,-0.08625 0.27036,-0.08625z" fill="#3fadc4"/></g><path d="M244.79466,112.11433c0.13518,-3.01867 0.40554,-8.53849 0.40554,-8.53849c0,0 0.54072,2.67368 0.6759,6.38231c0.27036,6.81355 3.58226,8.62474 3.58226,8.62474c-2.83878,-0.86248 -4.86647,-3.27741 -4.6637,-6.46856z" fill="#52b6cc"/><path d="M253.37858,100.47092c0,0 2.43323,3.96739 3.64985,8.27975c1.21662,4.31238 -1.62216,7.15854 -1.62216,7.15854c2.43323,-4.82986 -2.0277,-15.43829 -2.0277,-15.43829z" fill="#52b6cc"/><path d="M251.35088,118.41038c0,0 -2.97395,-1.4662 -3.51467,-6.89979c-0.40554,-4.05363 0.20277,-7.93476 0.20277,-7.93476c0,0 0.74349,8.02102 3.3119,14.83457z" fill="#52b6cc"/><path d="M253.51375,117.20293c0.87866,-2.75991 -2.0277,-15.43829 -2.0277,-15.43829c6.62381,14.31707 2.0277,15.43829 2.0277,15.43829z" fill="#52b6cc"/></g></g></g><g data-paper-data="{&quot;origPos&quot;:null}" id="Group" fill-rule="nonzero" stroke="none" stroke-width="1"><g id="Shape"><path d="M240.73927,83.39392c0,0 0.06759,4.9161 1.3518,6.03732c1.21662,1.20747 6.21826,2.58743 6.21826,2.58743c0,0 3.17672,13.36835 2.50082,18.37071c-0.6759,5.00235 -25.88691,13.2821 -28.32014,6.38231c-5.67754,-15.86953 -0.13518,-20.3544 -0.13518,-20.3544c0,0 8.58391,-4.65736 10.20606,-6.98605c1.62216,-2.32869 -0.33795,-9.57346 -0.33795,-9.57346c4.12298,-2.93242 8.51632,3.53614 8.51632,3.53614z" fill="#875137"/><path d="M232.96644,83.91141c0,0 0.06759,0.25874 0.06759,0.60373c0.06759,0.43124 0.13518,1.03497 0.13518,1.72495c0,0.68998 0.06759,1.55246 -0.20277,2.50117c-0.06759,0.25874 -0.13518,0.43124 -0.27036,0.68998c-0.13518,0.25874 -0.27036,0.34499 -0.40554,0.51749c-0.33795,0.34499 -0.60831,0.60373 -0.94626,0.86248c-0.60831,0.51749 -1.28421,0.94872 -1.89251,1.37996c-0.60831,0.43124 -1.21662,0.77623 -1.68974,1.12121c-1.01385,0.60373 -1.68974,0.94872 -1.68974,0.94872c0,0 0.60831,-0.51749 1.55457,-1.20747c0.47313,-0.34499 1.01385,-0.77623 1.62216,-1.20747c0.60831,-0.43124 1.21662,-0.94872 1.82493,-1.4662c0.33795,-0.25874 0.60831,-0.51749 0.87866,-0.77623c0.13518,-0.08625 0.33795,-0.34499 0.40554,-0.43124c0.06759,-0.1725 0.13518,-0.34499 0.20277,-0.51749c0.20277,-0.77623 0.27036,-1.63871 0.27036,-2.32869c0,-0.68998 0,-1.29371 0,-1.72495c0.13518,-0.43124 0.13518,-0.68998 0.13518,-0.68998z" fill="#613a27"/><path d="M236.88666,94.51984c0,0 -0.33795,0 -0.87866,0c-0.54072,0 -1.21662,0 -1.82493,-0.08625c-0.6759,-0.08625 -1.3518,-0.08625 -1.82493,-0.1725c-0.27036,0 -0.47313,-0.08625 -0.60831,-0.08625c-0.13518,0 -0.20277,0 -0.20277,0c0,0 0.33795,-0.08625 0.87866,-0.1725c0.54072,-0.08625 1.21662,-0.08625 1.89251,0c0.6759,0.08625 1.3518,0.1725 1.82493,0.34499c0.40554,0.08625 0.74349,0.1725 0.74349,0.1725z" fill="#613a27"/><path d="M245.33538,92.4499c0,0 -0.27036,0.1725 -0.74349,0.34499c-0.47313,0.1725 -1.01385,0.43124 -1.62216,0.68998c-0.60831,0.1725 -1.21662,0.43124 -1.68974,0.51749c-0.47313,0.08625 -0.74349,0.1725 -0.74349,0.1725c0,0 0.27036,-0.25874 0.6759,-0.51749c0.40554,-0.25874 1.01385,-0.51749 1.62216,-0.77623c0.60831,-0.1725 1.21662,-0.34499 1.68974,-0.43124c0.47313,0 0.81108,0 0.81108,0z" fill="#613a27"/></g><g id="Shape"><g><path d="M245.94369,91.15618l2.36565,0.68998c0,0 1.28421,0.08625 2.50082,9.22847c0.74349,5.86483 2.50082,12.85088 1.68974,16.99075c-1.14902,5.86483 -3.3119,11.72966 -3.3119,11.72966c-9.39498,8.27975 -22.03429,0.77623 -22.03429,0.77623c-0.94626,-4.9161 -5.81273,-15.95578 -5.06924,-14.31707c0.74349,1.63871 -2.36565,-4.31238 -2.43323,-11.21217c-0.06759,-6.12357 1.82493,-7.93476 2.29806,-8.45226c0.47313,-0.51749 1.82493,-1.55246 2.83878,-1.89745c5.06924,-0.60373 5.06924,11.38467 5.06924,11.38467c7.2997,-1.9837 11.42268,1.55246 11.42268,1.55246c2.70359,-4.31238 8.04319,-3.79488 8.04319,-3.79488c-1.28421,-12.16089 -3.3795,-12.59213 -3.3795,-12.67837z" fill="#6fced9"/><path d="M249.188,129.62255c0,0 0.47313,-1.55246 1.08144,-3.88113c0.33795,-1.12121 0.74349,-2.50117 1.08144,-3.96739c0.20277,-0.68998 0.40554,-1.4662 0.60831,-2.24244c0.06759,-0.34499 0.20277,-0.77623 0.27036,-1.12121c0.06759,-0.34499 0.06759,-0.77623 0.13518,-1.20747c0.06759,-0.77623 0.13518,-1.63871 0.13518,-2.41492c0,-0.77623 -0.06759,-1.55246 -0.13518,-2.32869c-0.13518,-1.55246 -0.27036,-2.93242 -0.47313,-4.13987c-0.33795,-2.41492 -0.54072,-4.05363 -0.54072,-4.05363c0,0 0.06759,0.43124 0.20277,1.12121c0.13518,0.68998 0.33795,1.63871 0.54072,2.84616c0.20277,1.20747 0.47313,2.58743 0.60831,4.13987c0.06759,0.77623 0.13518,1.55246 0.13518,2.41492c0,0.77623 0,1.63871 -0.13518,2.50117l-0.06759,0.60373c0,0.1725 -0.06759,0.43124 -0.06759,0.60373c-0.06759,0.43124 -0.20277,0.77623 -0.27036,1.20747c-0.20277,0.77623 -0.40554,1.55246 -0.60831,2.24244c-0.40554,1.4662 -0.87866,2.75991 -1.21662,3.88113c-0.6759,2.32869 -1.28421,3.79488 -1.28421,3.79488z" fill="#3fadc4"/><path d="M226.95094,129.5363c0,0 -0.27036,-0.60373 -0.60831,-1.4662c-0.33795,-0.86248 -0.81108,-2.06994 -1.21662,-3.36365c-0.40554,-1.20747 -0.81108,-2.41492 -1.14902,-3.36365c-0.27036,-0.94872 -0.54072,-1.55246 -0.54072,-1.55246c0,0 0.40554,0.51749 0.81108,1.37996c0.40554,0.86248 0.87866,2.06994 1.28421,3.27741c0.40554,1.20747 0.81108,2.50117 1.08144,3.44989c0.20277,0.94872 0.33795,1.63871 0.33795,1.63871z" fill="#3fadc4"/><path d="M249.32318,103.83456c-0.40554,0 -0.74349,0 -1.08144,0.08625c-0.33795,0 -0.74349,0.08625 -1.08144,0.1725c-0.33795,0.08625 -0.74349,0.1725 -1.08144,0.25874c-0.20277,0.08625 -0.33795,0.08625 -0.54072,0.1725l-0.54072,0.1725c-0.33795,0.1725 -0.6759,0.25874 -1.01385,0.51749c-0.20277,0.08625 -0.33795,0.1725 -0.47313,0.25874c-0.13518,0.08625 -0.33795,0.1725 -0.47313,0.34499l-0.47313,0.34499c-0.13518,0.1725 -0.27036,0.34499 -0.40554,0.43124c-0.13518,0.1725 -0.27036,0.34499 -0.40554,0.51749l-0.33795,0.51749l-0.06759,0.08625l-0.06759,-0.08625c-0.40554,-0.34499 -0.87866,-0.60373 -1.28421,-0.77623c-0.47313,-0.1725 -0.94626,-0.34499 -1.41938,-0.51749c-0.20277,-0.08625 -0.47313,-0.08625 -0.6759,-0.1725c-0.20277,-0.08625 -0.47313,-0.08625 -0.74349,-0.1725c-0.27036,-0.08625 -0.47313,-0.08625 -0.74349,-0.08625c-0.27036,0 -0.47313,-0.08625 -0.74349,-0.08625c-0.47313,-0.08625 -0.94626,-0.08625 -1.41938,-0.08625c-0.47313,0 -0.94626,0 -1.41938,0c-0.47313,0 -0.94626,0.08625 -1.48698,0.08625l-1.48698,0.1725v-0.08625c0.47313,-0.1725 0.94626,-0.34499 1.41938,-0.43124c0.47313,-0.08625 0.94626,-0.1725 1.48698,-0.25874c0.47313,-0.08625 1.01385,-0.08625 1.48698,-0.08625c0.47313,0 1.01385,0 1.48698,0.08625c0.27036,0 0.47313,0.08625 0.74349,0.08625c0.27036,0 0.47313,0.08625 0.74349,0.1725c0.47313,0.08625 0.94626,0.25874 1.41938,0.43124c0.20277,0.08625 0.47313,0.1725 0.6759,0.25874c0.20277,0.08625 0.47313,0.25874 0.6759,0.34499c0.47313,0.25874 0.87866,0.51749 1.28421,0.86248h-0.13518c0.27036,-0.34499 0.47313,-0.77623 0.74349,-1.03497c0.13518,-0.1725 0.27036,-0.34499 0.40554,-0.51749l0.47313,-0.43124c0.13518,-0.1725 0.33795,-0.25874 0.47313,-0.43124c0.13518,-0.1725 0.33795,-0.25874 0.47313,-0.34499c0.20277,-0.08625 0.33795,-0.25874 0.54072,-0.34499l0.54072,-0.25874c0.33795,-0.1725 0.74349,-0.25874 1.08144,-0.34499c0.20277,-0.08625 0.40554,-0.08625 0.54072,-0.08625c0.20277,0 0.40554,-0.08625 0.54072,-0.08625c0.87866,0.08625 1.62216,0.08625 2.36565,0.34499z" fill="#3fadc4"/><path d="M229.78972,104.17956c0,0 -0.06759,-0.77623 -0.27036,-1.9837c-0.20277,-1.20747 -0.47313,-2.75991 -1.01385,-4.13987c-0.13518,-0.34499 -0.27036,-0.68998 -0.40554,-1.03497c-0.13518,-0.34499 -0.33795,-0.60373 -0.54072,-0.86248c-0.20277,-0.25874 -0.40554,-0.51749 -0.60831,-0.68998c-0.20277,-0.1725 -0.40554,-0.34499 -0.60831,-0.43124c-0.20277,-0.08625 -0.40554,-0.1725 -0.60831,-0.25874c-0.20277,-0.08625 -0.33795,-0.08625 -0.47313,-0.08625c-0.27036,0 -0.40554,0 -0.40554,0c0,0 0.13518,0 0.40554,-0.08625c0.13518,0 0.33795,0 0.47313,0c0.20277,0 0.40554,0.08625 0.6759,0.1725c0.20277,0.08625 0.47313,0.25874 0.74349,0.43124c0.27036,0.1725 0.47313,0.43124 0.6759,0.68998c0.47313,0.51749 0.81108,1.29371 1.08144,1.9837c0.54072,1.4662 0.74349,3.1049 0.87866,4.31238c0,1.20747 0,1.9837 0,1.9837z" fill="#3fadc4"/></g><path d="M232.89885,131.3475c0,0 -0.20277,-1.12121 -0.54072,-2.84616c-0.20277,-0.86248 -0.40554,-1.81119 -0.60831,-2.93242c-0.20277,-1.03497 -0.47313,-2.15618 -0.74349,-3.27741c-0.13518,-0.60373 -0.27036,-1.12121 -0.40554,-1.63871c-0.13518,-0.51749 -0.27036,-1.03497 -0.40554,-1.55246c-0.27036,-1.03497 -0.54072,-1.9837 -0.87866,-2.75991c-0.13518,-0.43124 -0.27036,-0.77623 -0.40554,-1.12121c-0.13518,-0.34499 -0.20277,-0.60373 -0.33795,-0.77623c-0.20277,-0.43124 -0.33795,-0.68998 -0.33795,-0.68998c0,0 0.13518,0.25874 0.40554,0.68998c0.13518,0.1725 0.27036,0.43124 0.40554,0.77623c0.13518,0.34499 0.33795,0.60373 0.47313,1.03497c0.33795,0.77623 0.6759,1.72495 0.94626,2.75991c0.13518,0.51749 0.33795,1.03497 0.47313,1.55246c0.13518,0.51749 0.27036,1.12121 0.40554,1.63871c0.27036,1.12121 0.47313,2.24244 0.6759,3.36365c0.20277,1.03497 0.33795,2.06994 0.47313,2.93242c0.33795,1.63871 0.40554,2.84616 0.40554,2.84616z" fill="#3fadc4"/><path d="M252.29714,112.6318c0,0 -0.13518,0.25874 -0.27036,0.77623c-0.20277,0.43124 -0.40554,1.12121 -0.74349,1.9837c-0.27036,0.77623 -0.60831,1.81119 -0.94626,2.84616c-0.33795,1.03497 -0.6759,2.15618 -1.01385,3.27741c-0.33795,1.12121 -0.6759,2.24244 -0.94626,3.27741c-0.27036,1.03497 -0.54072,2.06994 -0.81108,2.93242c-0.47313,1.72495 -0.74349,2.84616 -0.74349,2.84616c0,0 0.06759,-0.25874 0.13518,-0.77623c0.06759,-0.51749 0.20277,-1.29371 0.40554,-2.15618c0.20277,-0.86248 0.40554,-1.89745 0.6759,-2.93242c0.27036,-1.03497 0.60831,-2.24244 0.94626,-3.36365c0.33795,-1.12121 0.74349,-2.24244 1.08144,-3.27741c0.33795,-1.03497 0.74349,-1.9837 1.08144,-2.75991c0.60831,-1.63871 1.14902,-2.67368 1.14902,-2.67368z" fill="#3fadc4"/></g></g><g data-paper-data="{&quot;origPos&quot;:null}" id="Group" fill-rule="nonzero" stroke="none" stroke-width="1"><g id="Shape"><path d="M194.77818,243.2967c0,0 8.44873,-89.17987 31.76722,-112.38043c0.54072,0.43124 6.55622,4.57111 15.54566,3.19115c6.82658,-1.03497 7.57006,-3.79488 7.57006,-3.79488c0,0 0,-0.08625 0,-0.1725c2.636,4.05363 8.51632,15.17956 15.9512,42.26125c10.13848,37.17265 12.16617,68.48049 12.16617,68.48049c0,0 -5.67754,7.33104 -12.6393,7.76228c0,0 0.54072,3.96739 0.6759,7.58977c0.13518,3.6224 -29.06363,11.72966 -38.32344,4.74361c-1.9601,-1.4662 -0.81108,-5.26109 -6.21826,-5.17485c-12.6393,0.1725 -16.49192,-3.36365 -16.49192,-3.36365l0.40554,-4.31238c-0.06759,0.08625 -6.69139,0.08625 -10.40883,-4.82986z" fill="#6fced9"/><g><g fill="#3fadc4"><path d="M265.8151,254.07764c0,0 -0.74349,-5.51984 -1.89251,-13.88585c-0.60831,-4.13987 -1.28421,-8.96973 -1.9601,-14.23083c-0.74349,-5.17485 -1.48698,-10.69468 -2.36565,-16.21452c-0.40554,-2.75991 -0.81108,-5.51984 -1.21662,-8.27975c-0.40554,-2.67368 -0.81108,-5.34734 -1.21662,-7.93476c-0.81108,-5.17485 -1.55457,-10.0047 -2.29806,-14.14459c-0.33795,-2.06994 -0.6759,-3.96739 -1.01385,-5.60608c-0.33795,-1.63871 -0.54072,-3.1049 -0.81108,-4.31238c-0.47313,-2.41492 -0.81108,-3.70864 -0.81108,-3.70864c0,0 0.33795,1.37996 0.87866,3.70864c0.27036,1.20747 0.54072,2.67368 0.87866,4.31238c0.33795,1.63871 0.74349,3.53614 1.08144,5.60608c0.40554,2.06994 0.81108,4.31238 1.21662,6.64106c0.40554,2.32869 0.81108,4.82986 1.21662,7.41729c0.40554,2.58743 0.81108,5.26109 1.28421,7.93476c0.40554,2.75991 0.81108,5.51984 1.21662,8.27975c0.81108,5.51984 1.55457,11.03967 2.29806,16.30077c0.6759,5.17485 1.3518,10.09095 1.89251,14.23083c0.54072,4.13987 0.94626,7.67603 1.21662,10.09095c0.27036,2.41492 0.40554,3.79488 0.40554,3.79488z"/><path d="M204.91666,250.28276c0,0 0.06759,-0.94872 0.20277,-2.58743c0.13518,-1.63871 0.33795,-3.96739 0.60831,-6.7273c0.27036,-2.75991 0.54072,-6.03732 0.94626,-9.48722c0.40554,-3.44989 0.74349,-7.15854 1.14902,-10.86718c0.40554,-3.70864 0.87866,-7.41729 1.28421,-10.86718c0.40554,-3.44989 0.87866,-6.64106 1.21662,-9.40098c0.40554,-2.75991 0.74349,-5.00235 1.01385,-6.64106c0.27036,-1.63871 0.40554,-2.50117 0.40554,-2.50117c0,0 -0.13518,0.94872 -0.33795,2.50117c-0.20277,1.63871 -0.47313,3.88113 -0.81108,6.64106c-0.33795,2.75991 -0.74349,5.95108 -1.14902,9.48722c-0.40554,3.44989 -0.81108,7.15854 -1.21662,10.86718c-1.68974,14.74831 -3.3119,29.58287 -3.3119,29.58287z"/><path d="M234.04788,133.93492c0,0 -0.27036,0.77623 -0.6759,2.06994c-0.40554,1.29371 -0.87866,3.27741 -1.41938,5.60608c-0.27036,1.20747 -0.54072,2.50117 -0.81108,3.79488c-0.27036,1.37996 -0.54072,2.84616 -0.81108,4.31238c-0.27036,1.4662 -0.54072,3.01867 -0.74349,4.65736c-0.27036,1.55246 -0.47313,3.19115 -0.6759,4.82986c-0.13518,0.77623 -0.20277,1.63871 -0.33795,2.41492c-0.06759,0.77623 -0.20277,1.63871 -0.27036,2.41492c-0.20277,1.55246 -0.33795,3.19115 -0.47313,4.65736c-0.13518,1.55246 -0.27036,3.01867 -0.40554,4.39862c-0.13518,1.37996 -0.20277,2.75991 -0.33795,3.96739c-0.20277,2.41492 -0.33795,4.48487 -0.40554,5.86483c-0.06759,1.4662 -0.13518,2.24244 -0.13518,2.24244c0,0 0,-0.77623 0.06759,-2.24244c0,-0.68998 0.06759,-1.55246 0.06759,-2.58743c0,-1.03497 0.06759,-2.15618 0.13518,-3.36365c0.06759,-1.20747 0.13518,-2.58743 0.27036,-3.96739c0.06759,-1.37996 0.20277,-2.84616 0.33795,-4.39862c0.13518,-1.55246 0.27036,-3.1049 0.47313,-4.65736c0.06759,-0.77623 0.20277,-1.63871 0.27036,-2.41492c0.13518,-0.77623 0.20277,-1.63871 0.33795,-2.41492c0.20277,-1.63871 0.47313,-3.19115 0.6759,-4.82986c0.20277,-1.55246 0.54072,-3.1049 0.74349,-4.65736c0.27036,-1.4662 0.54072,-2.93242 0.87866,-4.31238c0.33795,-1.37996 0.60831,-2.67368 0.87866,-3.79488c0.27036,-1.20747 0.60831,-2.24244 0.87866,-3.19115c0.27036,-0.94872 0.54072,-1.72495 0.74349,-2.41492c0.47313,-1.20747 0.74349,-1.9837 0.74349,-1.9837z"/><path d="M244.38913,133.67618c0,0 0.20277,0.1725 0.54072,0.60373c0.33795,0.43124 0.6759,1.03497 1.08144,1.89745c0.40554,0.86248 0.81108,1.89745 1.14902,3.01867c0.20277,0.60373 0.33795,1.12121 0.54072,1.72495c0.13518,0.60373 0.33795,1.20747 0.47313,1.81119c0.27036,1.20747 0.54072,2.50117 0.81108,3.70864c0.13518,0.60373 0.20277,1.12121 0.33795,1.72495c0.06759,0.51749 0.20277,1.03497 0.27036,1.55246c0.27036,1.89745 0.47313,3.19115 0.47313,3.19115c0,0 -0.27036,-1.20747 -0.6759,-3.1049c-0.20277,-0.94872 -0.47313,-1.9837 -0.6759,-3.19115c-0.27036,-1.20747 -0.54072,-2.41492 -0.87866,-3.6224c-0.13518,-0.60373 -0.33795,-1.20747 -0.47313,-1.81119c-0.13518,-0.60373 -0.33795,-1.20747 -0.47313,-1.72495c-0.33795,-1.12121 -0.6759,-2.15618 -1.01385,-3.01867c-0.33795,-0.86248 -0.6759,-1.55246 -0.94626,-1.9837c-0.33795,-0.60373 -0.54072,-0.77623 -0.54072,-0.77623z"/><path d="M229.58695,132.64122c0,0 -0.33795,0.34499 -0.81108,1.03497c-0.20277,0.34499 -0.47313,0.77623 -0.74349,1.20747c-0.27036,0.43124 -0.54072,0.94872 -0.81108,1.4662c-0.27036,0.51749 -0.54072,0.94872 -0.81108,1.4662c-0.27036,0.43124 -0.47313,0.94872 -0.6759,1.29371c-0.20277,0.34499 -0.33795,0.68998 -0.47313,0.94872c-0.13518,0.25874 -0.20277,0.34499 -0.20277,0.34499c0,0 0.06759,-0.1725 0.13518,-0.43124c0.06759,-0.25874 0.20277,-0.60373 0.33795,-1.03497c0.33795,-0.86248 0.81108,-1.89745 1.3518,-2.93242c0.27036,-0.51749 0.54072,-0.94872 0.87866,-1.37996c0.27036,-0.43124 0.60831,-0.77623 0.87866,-1.12121c0.27036,-0.34499 0.54072,-0.51749 0.6759,-0.68998c0.13518,-0.08625 0.27036,-0.1725 0.27036,-0.1725z"/><path d="M241.27999,134.36616c0,0 0.13518,0.60373 0.47313,1.63871c0.27036,1.03497 0.6759,2.50117 1.08144,4.31238c0.40554,1.81119 0.87866,3.88113 1.28421,6.12357c0.40554,2.24244 0.81108,4.65736 1.21662,7.15854c0.20277,1.20747 0.33795,2.41492 0.47313,3.6224c0.13518,1.20747 0.27036,2.41492 0.40554,3.53614c0.13518,1.12121 0.20277,2.24244 0.27036,3.36365c0.06759,1.03497 0.13518,2.06994 0.20277,3.01867c0.13518,1.89745 0.13518,3.44989 0.20277,4.48487c0,1.12121 0.06759,1.72495 0.06759,1.72495c0,0 -0.06759,-0.60373 -0.13518,-1.72495c-0.06759,-0.51749 -0.06759,-1.20747 -0.13518,-1.9837c-0.06759,-0.77623 -0.13518,-1.63871 -0.20277,-2.50117c-0.06759,-0.94872 -0.13518,-1.89745 -0.27036,-3.01867c-0.13518,-1.03497 -0.20277,-2.15618 -0.33795,-3.27741c-0.13518,-1.12121 -0.27036,-2.32869 -0.40554,-3.53614c-0.13518,-1.20747 -0.33795,-2.41492 -0.54072,-3.6224c-0.33795,-2.41492 -0.74349,-4.82986 -1.14902,-7.15854c-0.40554,-2.24244 -0.81108,-4.39862 -1.14902,-6.20982c-0.33795,-1.81119 -0.6759,-3.27741 -0.94626,-4.31238c-0.27036,-1.03497 -0.40554,-1.63871 -0.40554,-1.63871z"/></g><path d="M252.70267,135.48739c0,0 0.13518,0.34499 0.40554,0.94872c0.27036,0.60373 0.74349,1.55246 1.28421,2.67368c1.08144,2.32869 2.56842,5.69233 4.05539,9.91846c1.55457,4.22612 3.17672,9.22847 4.79888,14.66206c1.62216,5.43359 3.24431,11.29842 4.73129,17.16325c1.48698,5.86483 2.83878,11.90215 3.9878,17.50824c1.14902,5.60608 2.0277,10.95343 2.70359,15.52454c0.6759,4.57111 1.14902,8.36601 1.41938,11.03967c0.13518,1.37996 0.27036,2.41492 0.33795,3.1049c0.06759,0.34499 0.06759,0.60373 0.06759,0.77623c0,0.1725 0.06759,0.25874 0.06759,0.25874c0,0 0,-0.08625 -0.06759,-0.25874c0,-0.1725 -0.06759,-0.43124 -0.13518,-0.77623c-0.06759,-0.68998 -0.20277,-1.72495 -0.40554,-3.1049c-0.33795,-2.67368 -0.87866,-6.46856 -1.62216,-11.03967c-0.74349,-4.57111 -1.68974,-9.83221 -2.83878,-15.43829c-1.14902,-5.60608 -2.50082,-11.55716 -3.9878,-17.42199c-0.74349,-2.93242 -1.48698,-5.86483 -2.29806,-8.79724c-0.81108,-2.84616 -1.62216,-5.69233 -2.36565,-8.36601c-1.62216,-5.43359 -3.17672,-10.43594 -4.6637,-14.66206c-1.48698,-4.22612 -2.83878,-7.67603 -3.92021,-10.0047c-0.54072,-1.20747 -0.94626,-2.06994 -1.21662,-2.75991c-0.20277,-0.60373 -0.33795,-0.94872 -0.33795,-0.94872z" fill="#656b66"/><path d="M236.95424,263.73734c0,0 -0.47313,0 -1.3518,0c-0.87866,-0.08625 -2.16287,-0.1725 -3.64985,-0.51749c-0.74349,-0.1725 -1.55457,-0.43124 -2.36565,-0.77623c-0.40554,-0.1725 -0.87866,-0.34499 -1.28421,-0.60373c-0.40554,-0.25874 -0.81108,-0.60373 -1.21662,-0.94872c-0.74349,-0.77623 -1.28421,-1.9837 -1.68974,-3.1049c-0.13518,-0.25874 -0.20277,-0.51749 -0.40554,-0.60373c-0.20277,-0.1725 -0.40554,-0.25874 -0.60831,-0.34499c-0.47313,-0.1725 -0.94626,-0.25874 -1.41938,-0.34499c-1.01385,-0.1725 -1.9601,-0.1725 -2.97395,-0.1725c-1.01385,0 -1.9601,0 -2.90636,-0.08625c-1.89251,-0.08625 -3.64985,-0.51749 -5.13682,-0.86248c-1.48698,-0.34499 -2.70359,-0.77623 -3.51467,-1.03497c-0.87866,-0.25874 -1.3518,-0.51749 -1.3518,-0.51749c0,0 0.47313,0.1725 1.3518,0.43124c0.87866,0.25874 2.09529,0.51749 3.58226,0.86248c1.48698,0.34499 3.24431,0.51749 5.06924,0.68998c0.94626,0.08625 1.89251,0 2.90636,0c1.01385,0 2.0277,0.08625 2.97395,0.1725c0.47313,0.08625 1.01385,0.1725 1.48698,0.34499c0.27036,0.08625 0.54072,0.25874 0.74349,0.43124c0.27036,0.1725 0.40554,0.51749 0.54072,0.77623c0.47313,1.12121 0.87866,2.24244 1.55457,2.93242c0.33795,0.34499 0.74349,0.68998 1.08144,0.94872c0.20277,0.08625 0.40554,0.25874 0.60831,0.34499c0.20277,0.08625 0.40554,0.1725 0.60831,0.25874c0.81108,0.34499 1.62216,0.60373 2.29806,0.77623c3.04154,0.94872 5.06924,0.94872 5.06924,0.94872z" fill="#3fadc4"/><path d="M226.54541,130.83002c0,0 -0.13518,0.1725 -0.33795,0.43124c-0.27036,0.25874 -0.60831,0.68998 -1.01385,1.20747c-0.87866,1.03497 -2.09529,2.58743 -3.3795,4.57111c-1.28421,1.9837 -2.70359,4.48487 -4.05539,7.24478c-0.6759,1.37996 -1.3518,2.84616 -1.9601,4.39862c-0.6759,1.4662 -1.28421,3.01867 -1.89251,4.57111c-1.21662,3.1049 -2.36565,6.29607 -3.3795,9.31472c-0.47313,1.4662 -1.01385,2.93242 -1.41938,4.31238c-0.47313,1.37996 -0.87866,2.67368 -1.21662,3.96739c-0.74349,2.41492 -1.28421,4.48487 -1.62216,5.95108c-0.20277,0.68998 -0.33795,1.29371 -0.40554,1.72495c-0.06759,0.43124 -0.13518,0.60373 -0.13518,0.60373c0,0 0.06759,-0.1725 0.13518,-0.60373c0.06759,-0.43124 0.20277,-0.94872 0.33795,-1.72495c0.33795,-1.4662 0.81108,-3.53614 1.48698,-6.03732c0.6759,-2.50117 1.55457,-5.34734 2.50082,-8.36601c1.01385,-3.01867 2.09529,-6.20982 3.3119,-9.31472c0.60831,-1.55246 1.21662,-3.1049 1.89251,-4.57111c0.6759,-1.55246 1.3518,-2.93242 2.0277,-4.39862c1.3518,-2.75991 2.83878,-5.17485 4.19057,-7.15854c1.3518,-1.9837 2.636,-3.44989 3.51467,-4.48487c0.47313,-0.51749 0.81108,-0.86248 1.08144,-1.12121c0.20277,-0.34499 0.33795,-0.51749 0.33795,-0.51749z" fill="#3fadc4"/></g></g><g id="Shape"><path d="M249.72872,130.31253c0,0 -0.74349,2.75991 -7.57006,3.79488c-9.46258,1.37996 -15.61326,-3.27741 -15.61326,-3.27741c-0.06759,-1.03497 0.54072,-1.4662 0.54072,-1.4662c0,0 4.52852,2.24244 10.34125,3.1049c5.88032,0.86248 11.82822,-3.1049 11.82822,-3.1049c0.40554,-0.1725 0.47313,0.94872 0.47313,0.94872z" fill="#d9a64a"/><path d="M247.2279,132.64122c0,0 -0.33795,0.1725 -0.87866,0.34499c-0.54072,0.1725 -1.3518,0.51749 -2.36565,0.77623c-0.47313,0.1725 -1.01385,0.25874 -1.62216,0.34499c-0.54072,0.08625 -1.14902,0.1725 -1.82493,0.25874c-0.60831,0 -1.28421,0.08625 -1.9601,0.08625c-0.6759,0 -1.3518,0 -2.0277,0l-1.01385,-0.08625c-0.33795,-0.08625 -0.6759,-0.08625 -1.01385,-0.1725c-0.6759,-0.08625 -1.28421,-0.25874 -1.89251,-0.43124c-0.60831,-0.1725 -1.21662,-0.34499 -1.75734,-0.60373c-0.27036,-0.08625 -0.54072,-0.1725 -0.81108,-0.34499c-0.27036,-0.08625 -0.47313,-0.25874 -0.74349,-0.34499c-0.47313,-0.25874 -0.87866,-0.43124 -1.28421,-0.68998c-0.33795,-0.25874 -0.6759,-0.43124 -0.94626,-0.60373c-0.54072,-0.34499 -0.81108,-0.51749 -0.81108,-0.51749c0,0 0.33795,0.1725 0.87866,0.43124c0.27036,0.1725 0.60831,0.34499 0.94626,0.51749c0.40554,0.1725 0.81108,0.34499 1.28421,0.51749c0.20277,0.08625 0.47313,0.1725 0.74349,0.34499c0.27036,0.08625 0.54072,0.1725 0.81108,0.25874c0.54072,0.1725 1.14902,0.34499 1.75734,0.51749c0.60831,0.1725 1.21662,0.25874 1.89251,0.34499c0.33795,0.08625 0.6759,0.08625 0.94626,0.1725l1.01385,0.08625c0.6759,0.08625 1.28421,0.08625 1.9601,0.08625c0.6759,0 1.28421,-0.08625 1.89251,-0.08625c0.60831,-0.08625 1.21662,-0.08625 1.75734,-0.1725c0.54072,-0.08625 1.08144,-0.1725 1.55457,-0.25874c1.01385,-0.1725 1.82493,-0.43124 2.36565,-0.60373c0.81108,0 1.14902,-0.1725 1.14902,-0.1725z" fill="#a67939"/><path d="M248.10657,130.0538c0,0 -0.81108,0.60373 -2.09529,1.20747c-0.33795,0.1725 -0.6759,0.25874 -1.08144,0.43124c-0.40554,0.08625 -0.81108,0.25874 -1.21662,0.43124c-0.87866,0.25874 -1.75734,0.43124 -2.70359,0.51749c-0.47313,0.08625 -0.94626,0.08625 -1.3518,0.08625c-0.47313,0 -0.87866,0 -1.3518,0c-0.40554,0 -0.87866,-0.08625 -1.21662,-0.1725c-0.40554,0 -0.74349,-0.1725 -1.08144,-0.1725c-0.33795,-0.08625 -0.6759,-0.1725 -0.94626,-0.25874c-0.27036,-0.08625 -0.54072,-0.1725 -0.6759,-0.25874c-0.40554,-0.1725 -0.60831,-0.25874 -0.60831,-0.25874c0,0 0.20277,0 0.60831,0.08625c0.20277,0 0.40554,0.08625 0.74349,0.1725c0.27036,0.08625 0.60831,0.08625 0.94626,0.08625c0.33795,0.08625 0.6759,0.08625 1.08144,0.08625c0.40554,0 0.81108,0.08625 1.21662,0.08625c0.40554,0 0.87866,0 1.28421,0c0.47313,0 0.87866,0 1.3518,-0.08625c0.87866,-0.08625 1.82493,-0.25874 2.636,-0.43124c0.81108,-0.1725 1.62216,-0.43124 2.29806,-0.68998c1.28421,-0.34499 2.16287,-0.86248 2.16287,-0.86248z" fill="#a67939"/></g></g><g data-paper-data="{&quot;origPos&quot;:null}" id="Group" fill-rule="nonzero" stroke="none" stroke-width="1"><g id="Shape"><g><path d="M219.04294,163.60405c0,0 1.62216,1.81119 1.68974,5.95108c0.06759,2.84616 0.74349,5.0886 0.13518,5.26109c-1.28421,0.25874 -1.21662,-4.13987 -1.21662,-4.13987c0,0 -0.81108,4.05363 -0.33795,5.60608c0.33795,1.12121 0.20277,3.19115 -0.27036,3.36365c-0.47313,0.1725 -1.01385,-2.58743 -1.3518,-4.39862c0,0 0.20277,2.15618 0.13518,3.44989c-0.06759,1.37996 -0.40554,1.81119 -1.01385,0.34499c0,0 -0.81108,2.15618 -1.55457,-2.24244c0,0 -0.74349,0.34499 -0.94626,-1.9837c-0.13518,-2.32869 -0.40554,-14.23083 4.73129,-11.21217z" fill="#875137"/><path d="M218.70498,179.21484c0,0 -0.06759,-0.08625 -0.13518,-0.25874c-0.06759,-0.1725 -0.20277,-0.43124 -0.33795,-0.77623c-0.13518,-0.34499 -0.20277,-0.68998 -0.33795,-1.20747c-0.06759,-0.43124 -0.13518,-0.94872 -0.20277,-1.37996c-0.06759,-0.94872 -0.06759,-1.89745 0,-2.67368c0,-0.34499 0.06759,-0.68998 0.13518,-0.86248c0.06759,-0.1725 0.06759,-0.34499 0.06759,-0.34499c0,0 0,0.08625 0,0.34499c0,0.1725 0,0.51749 0.06759,0.86248c0,0.34499 0,0.77623 0.06759,1.20747c0,0.43124 0.06759,0.86248 0.06759,1.37996c0.06759,0.94872 0.20277,1.81119 0.33795,2.50117c0.13518,0.68998 0.27036,1.20747 0.27036,1.20747z" fill="#613a27"/><path d="M216.81247,179.04234c0,0 -0.20277,-0.34499 -0.40554,-1.03497c-0.06759,-0.34499 -0.20277,-0.68998 -0.27036,-1.12121c-0.06759,-0.43124 -0.13518,-0.86248 -0.13518,-1.29371c-0.06759,-0.86248 0,-1.81119 0.06759,-2.50117c0.06759,-0.68998 0.20277,-1.12121 0.20277,-1.12121c0,0 0,0.08625 0,0.34499c0,0.1725 0,0.43124 0,0.77623c0,0.34499 0,0.68998 0,1.12121c0,0.43124 0,0.86248 0.06759,1.29371c0.06759,0.86248 0.13518,1.72495 0.20277,2.41492c0.20277,0.68998 0.27036,1.12121 0.27036,1.12121z" fill="#613a27"/><path d="M215.3255,176.7999c0,0 -0.13518,-0.34499 -0.20277,-0.77623c-0.06759,-0.51749 -0.20277,-1.12121 -0.20277,-1.81119c0,-0.68998 0,-1.37996 0.06759,-1.89745c0.06759,-0.51749 0.20277,-0.86248 0.20277,-0.86248c0,0 0,0.08625 0,0.25874c0,0.1725 0,0.34499 0.06759,0.60373c0,0.51749 0.06759,1.12121 0.06759,1.81119c0,0.68998 0.06759,1.29371 0,1.81119c0,0.51749 0,0.86248 0,0.86248z" fill="#613a27"/></g><path d="M219.51606,164.46653c0,0 0.06759,0 0.20277,0.08625c0.13518,0.08625 0.27036,0.25874 0.33795,0.43124c0.27036,0.43124 0.47313,1.12121 0.60831,1.81119c0.13518,0.68998 0.13518,1.37996 0.20277,1.89745c0,0.51749 -0.06759,0.86248 -0.06759,0.86248c0,0 -0.06759,-0.34499 -0.20277,-0.86248c-0.13518,-0.51749 -0.20277,-1.20747 -0.33795,-1.81119c-0.13518,-0.68998 -0.27036,-1.29371 -0.40554,-1.81119c-0.06759,-0.25874 -0.13518,-0.43124 -0.20277,-0.51749c-0.06759,-0.08625 -0.13518,-0.08625 -0.13518,-0.08625z" fill="#613a27"/></g><g id="Shape"><g><path d="M222.01689,131.86499c1.08144,4.22612 -0.20277,13.88585 -1.14902,20.44064c-0.60831,4.22612 -1.3518,11.98839 -1.3518,11.98839c-1.08144,1.37996 -2.36565,0.68998 -3.58226,-0.08625c0,0 -0.20277,-3.53614 -0.6759,-10.43594c-0.47313,-7.41729 0.27036,-20.1819 1.75734,-22.25184c1.75734,-2.32869 4.46093,-1.72495 5.00165,0.34499z" fill="#52b6cc"/><path d="M222.42242,134.71115c0,0 0.06759,1.29371 0.06759,3.27741c0,0.94872 -0.06759,2.15618 -0.13518,3.36365c-0.06759,1.20747 -0.20277,2.50117 -0.27036,3.79488c-0.13518,1.29371 -0.27036,2.58743 -0.47313,3.79488c-0.06759,0.60373 -0.20277,1.20747 -0.27036,1.72495c-0.06759,0.51749 -0.20277,1.03497 -0.27036,1.55246c-0.20277,0.94872 -0.33795,1.72495 -0.47313,2.32869c-0.13518,0.51749 -0.20277,0.86248 -0.20277,0.86248c0,0 0.20277,-1.29371 0.47313,-3.19115c0.13518,-0.94872 0.27036,-2.06994 0.40554,-3.27741c0.13518,-1.20747 0.27036,-2.50117 0.40554,-3.79488c0.13518,-1.29371 0.27036,-2.58743 0.33795,-3.79488c0.06759,-1.20747 0.20277,-2.32869 0.27036,-3.36365c0.06759,-1.9837 0.13518,-3.27741 0.13518,-3.27741z" fill="#2e83bf"/></g><path d="M215.9338,163.86279c0,0 -0.06759,-0.43124 -0.20277,-1.20747c-0.06759,-0.77623 -0.27036,-1.81119 -0.33795,-3.19115c-0.13518,-1.29371 -0.27036,-2.84616 -0.33795,-4.48487c-0.06759,-1.63871 -0.13518,-3.44989 -0.13518,-5.17485c0,-1.72495 0,-3.53614 0.13518,-5.17485c0,-0.86248 0.06759,-1.63871 0.13518,-2.41492c0.06759,-0.77623 0.13518,-1.4662 0.20277,-2.15618c0.13518,-1.29371 0.27036,-2.41492 0.33795,-3.19115c0.13518,-0.77623 0.20277,-1.20747 0.20277,-1.20747c0,0 0,0.43124 -0.06759,1.20747c0,0.34499 -0.06759,0.86248 -0.13518,1.37996c0,0.51749 -0.06759,1.12121 -0.13518,1.81119c-0.06759,1.29371 -0.13518,2.84616 -0.20277,4.48487c-0.06759,1.63871 -0.06759,3.36365 -0.06759,5.17485c0,1.72495 0.06759,3.53614 0.06759,5.17485c0.06759,1.63871 0.13518,3.19115 0.20277,4.48487c0.20277,2.75991 0.33795,4.48487 0.33795,4.48487z" fill="#2e83bf"/></g><g id="Shape"><g><path d="M219.04294,137.72982c-4.6637,2.06994 -3.71744,-32.68779 2.43323,-39.93258c6.35345,-7.50353 5.9479,9.31472 5.54237,13.2821c-0.87866,9.05599 -3.3119,24.58052 -7.9756,26.65046z" fill="#52b6cc"/><path d="M227.2213,104.86954c0,0 0.06759,1.29371 0,3.19115c0,0.94872 -0.06759,2.06994 -0.13518,3.27741c-0.06759,1.20747 -0.20277,2.50117 -0.33795,3.79488c-0.13518,1.29371 -0.33795,2.50117 -0.54072,3.70864c-0.20277,1.20747 -0.40554,2.24244 -0.60831,3.19115c-0.20277,0.94872 -0.40554,1.72495 -0.54072,2.24244c-0.13518,0.51749 -0.20277,0.86248 -0.20277,0.86248c0,0 0.06759,-0.34499 0.13518,-0.86248c0.06759,-0.51749 0.20277,-1.29371 0.33795,-2.24244c0.13518,-0.94872 0.27036,-2.06994 0.47313,-3.19115c0.13518,-1.20747 0.33795,-2.41492 0.47313,-3.70864c0.13518,-1.29371 0.27036,-2.50117 0.40554,-3.70864c0.13518,-1.20747 0.20277,-2.32869 0.27036,-3.27741c0.13518,-2.06994 0.27036,-3.27741 0.27036,-3.27741z" fill="#2e83bf"/><path d="M224.51771,95.89979c0,0 -0.13518,0 -0.27036,0c-0.20277,0 -0.47313,0.08625 -0.81108,0.1725c-0.33795,0.1725 -0.74349,0.34499 -1.08144,0.77623c-0.20277,0.1725 -0.40554,0.43124 -0.60831,0.60373c-0.20277,0.25874 -0.40554,0.51749 -0.60831,0.77623c-0.40554,0.51749 -0.74349,1.29371 -1.08144,2.06994c-0.13518,0.43124 -0.27036,0.77623 -0.47313,1.20747c-0.06759,0.1725 -0.13518,0.43124 -0.27036,0.60373c-0.06759,0.25874 -0.13518,0.43124 -0.20277,0.68998c-0.27036,0.86248 -0.54072,1.81119 -0.74349,2.84616c-0.13518,0.51749 -0.20277,0.94872 -0.33795,1.4662c-0.13518,0.51749 -0.20277,1.03497 -0.27036,1.4662c-0.13518,1.03497 -0.40554,1.9837 -0.47313,3.01867c-0.13518,1.03497 -0.27036,1.9837 -0.40554,2.93242c-0.06759,0.94872 -0.20277,1.89745 -0.27036,2.75991c-0.06759,0.86248 -0.20277,1.72495 -0.20277,2.50117c-0.20277,3.1049 -0.33795,5.17485 -0.33795,5.17485c0,0 0,-2.06994 0.13518,-5.17485c0,-0.77623 0.13518,-1.63871 0.13518,-2.50117c0.06759,-0.86248 0.13518,-1.81119 0.20277,-2.75991c0.13518,-0.94872 0.20277,-1.9837 0.33795,-2.93242c0.06759,-1.03497 0.33795,-2.06994 0.47313,-3.01867c0.06759,-0.51749 0.13518,-1.03497 0.27036,-1.55246c0.13518,-0.51749 0.20277,-1.03497 0.33795,-1.4662c0.20277,-1.03497 0.47313,-1.89745 0.81108,-2.84616c0.06759,-0.25874 0.13518,-0.43124 0.20277,-0.68998c0.06759,-0.1725 0.20277,-0.43124 0.27036,-0.60373c0.20277,-0.43124 0.33795,-0.86248 0.47313,-1.20747c0.40554,-0.77623 0.74349,-1.4662 1.14902,-2.06994c0.20277,-0.25874 0.40554,-0.60373 0.60831,-0.77623c0.20277,-0.1725 0.40554,-0.51749 0.60831,-0.60373c0.40554,-0.34499 0.81108,-0.51749 1.14902,-0.68998c0.33795,-0.08625 0.60831,-0.08625 0.81108,-0.08625c0.40554,-0.08625 0.47313,-0.08625 0.47313,-0.08625z" fill="#2e83bf"/></g><g><g><path d="M229.65454,113.23553c0.54072,6.03732 -2.36565,8.45226 -7.90801,8.45226c-5.54237,0 -8.92186,-5.60608 -7.84042,-8.79724c2.09529,-5.95108 1.75734,-7.67603 4.93406,-12.76463c3.17672,-5.0886 5.3396,-5.0886 7.23211,-3.53614c2.56842,2.06994 2.97395,10.60844 3.58226,16.64576z" fill="#6fced9"/><path d="M228.50551,102.79959c0,0 0.33795,1.55246 0.6759,3.88113c0.13518,1.12121 0.33795,2.50117 0.47313,3.96739c0.13518,1.4662 0.20277,3.01867 0.13518,4.65736c-0.06759,0.77623 -0.06759,1.63871 -0.33795,2.41492c0,0.08625 -0.06759,0.1725 -0.06759,0.34499l-0.13518,0.25874c-0.06759,0.1725 -0.13518,0.34499 -0.27036,0.51749l-0.33795,0.51749l-0.33795,0.34499c-0.47313,0.51749 -1.01385,0.86248 -1.48698,1.03497c-0.47313,0.25874 -1.01385,0.43124 -1.41938,0.60373c-0.87866,0.25874 -1.68974,0.34499 -2.23046,0.43124c-0.54072,0.08625 -0.87866,0 -0.87866,0c0,0 0.33795,0 0.81108,-0.1725c0.54072,-0.08625 1.28421,-0.25874 2.16287,-0.60373c0.87866,-0.34499 1.89251,-0.77623 2.77118,-1.72495l0.33795,-0.34499l0.27036,-0.43124c0.06759,-0.08625 0.13518,-0.34499 0.20277,-0.51749l0.13518,-0.25874c0,0 0.06759,-0.1725 0.06759,-0.25874c0.20277,-0.68998 0.20277,-1.4662 0.27036,-2.24244c0.06759,-1.55246 0,-3.1049 -0.13518,-4.57111c-0.13518,-1.4662 -0.20277,-2.84616 -0.33795,-3.96739c-0.13518,-2.32869 -0.33795,-3.88113 -0.33795,-3.88113z" fill="#3fadc4"/><path d="M225.19361,96.15855c0,0 -0.33795,-0.25874 -1.01385,-0.34499c-0.33795,0 -0.74349,0 -1.14902,0.1725c-0.47313,0.1725 -0.94626,0.43124 -1.41938,0.77623c-0.47313,0.34499 -0.94626,0.86248 -1.41938,1.4662c-0.47313,0.60373 -0.87866,1.29371 -1.3518,1.9837c-0.87866,1.4662 -1.68974,3.1049 -2.29806,4.82986c-0.33795,0.86248 -0.60831,1.81119 -0.87866,2.67368c-0.13518,0.43124 -0.27036,0.86248 -0.40554,1.37996c-0.13518,0.43124 -0.27036,0.86248 -0.47313,1.29371c-0.33795,0.77623 -0.60831,1.63871 -0.74349,2.41492c-0.13518,0.77623 -0.20277,1.55246 -0.13518,2.24244c0.20277,1.37996 0.74349,2.41492 1.21662,3.1049c0.20277,0.34499 0.40554,0.51749 0.54072,0.68998c0.13518,0.1725 0.20277,0.25874 0.20277,0.25874c0,0 -0.06759,-0.08625 -0.20277,-0.1725c-0.13518,-0.1725 -0.33795,-0.34499 -0.60831,-0.68998c-0.27036,-0.34499 -0.54072,-0.68998 -0.74349,-1.20747c-0.27036,-0.51749 -0.47313,-1.12121 -0.60831,-1.89745c-0.13518,-0.77623 -0.06759,-1.55246 0.06759,-2.41492c0.13518,-0.86248 0.40554,-1.72495 0.74349,-2.50117c0.33795,-0.77623 0.54072,-1.63871 0.81108,-2.58743c0.27036,-0.94872 0.54072,-1.81119 0.87866,-2.75991c0.6759,-1.81119 1.48698,-3.44989 2.36565,-4.9161c0.47313,-0.77623 0.94626,-1.37996 1.41938,-1.9837c0.47313,-0.60373 1.01385,-1.12121 1.48698,-1.4662c0.47313,-0.34499 1.01385,-0.60373 1.48698,-0.77623c0.47313,-0.08625 0.87866,-0.1725 1.21662,-0.08625c0.33795,0.08625 0.60831,0.1725 0.74349,0.25874c0.20277,0.1725 0.27036,0.25874 0.27036,0.25874z" fill="#3fadc4"/></g><path d="M215.73103,112.89054c1.01385,-2.75991 2.90636,-7.76228 2.90636,-7.76228c0,0 -0.33795,2.75991 -1.28421,6.20982c-1.75734,6.29607 0.74349,9.65971 0.74349,9.65971c-2.36565,-2.15618 -3.51467,-5.43359 -2.36565,-8.10727z" fill="#52b6cc"/><path d="M227.08613,106.16324c0,0 1.01385,4.9161 0.87866,9.48722c-0.13518,4.57111 -3.3795,5.60608 -3.3795,5.60608c3.71744,-3.27741 2.50082,-15.0933 2.50082,-15.0933z" fill="#52b6cc"/><path d="M219.9216,121.77404c0,0 -2.29806,-2.75991 -1.21662,-8.02102c0.87866,-3.96739 2.56842,-7.24478 2.56842,-7.24478c0,0 -1.68974,7.76228 -1.3518,15.2658z" fill="#52b6cc"/><path d="M222.28725,121.77404c1.62216,-2.15618 2.77118,-15.2658 2.77118,-15.2658c1.82493,16.38702 -2.77118,15.2658 -2.77118,15.2658z" fill="#52b6cc"/></g></g></g><g data-paper-data="{&quot;origPos&quot;:null}" id="Group" fill-rule="nonzero" stroke="none" stroke-width="1"><g id="Shape"><g><path d="M225.2612,58.03717c-1.89251,1.29371 -2.83878,-0.86248 -2.83878,-0.86248c-1.82493,0.25874 -1.21662,-2.15618 -1.21662,-2.15618c-1.62216,-0.60373 -0.40554,-2.84616 -0.40554,-2.84616c-1.01385,-1.20747 0.27036,-3.01867 0.27036,-3.01867c-0.60831,-2.84616 1.41938,-3.1049 1.41938,-3.1049c-0.94626,-2.24244 1.28421,-3.01867 1.28421,-3.01867c-0.13518,-2.24244 1.75734,-2.84616 1.75734,-2.84616c0.33795,-3.01867 3.17672,-2.06994 3.17672,-2.06994c0.74349,-2.32869 3.17672,-1.29371 3.17672,-1.29371c0.47313,-1.4662 2.36565,-0.25874 2.36565,-0.25874c0.94626,-1.63871 2.70359,-0.1725 2.70359,-0.1725c1.41938,-1.37996 2.83878,0.1725 2.83878,0.1725c4.73129,-0.08625 4.93406,7.67603 4.93406,7.67603" fill="#261c17"/><path d="M237.02183,36.38906c0,0 0.33795,0.08625 0.81108,0.34499c0.20277,0.1725 0.47313,0.34499 0.74349,0.68998c0.27036,0.25874 0.47313,0.60373 0.6759,1.03497c0.13518,0.34499 0.27036,0.77623 0.40554,1.20747c0.13518,0.43124 0.20277,0.77623 0.20277,1.12121c0.06759,0.34499 0.06759,0.60373 0.06759,0.77623c0,0.1725 0,0.25874 0,0.25874c0,0 -0.06759,-0.08625 -0.06759,-0.25874c-0.06759,-0.1725 -0.13518,-0.43124 -0.20277,-0.68998c-0.06759,-0.25874 -0.20277,-0.60373 -0.33795,-0.94872c-0.13518,-0.34499 -0.27036,-0.68998 -0.47313,-1.03497c-0.33795,-0.68998 -0.81108,-1.29371 -1.14902,-1.72495c-0.40554,-0.51749 -0.6759,-0.77623 -0.6759,-0.77623z" fill="#120d0b"/><path d="M234.31824,36.56154c0,0 0.06759,-0.08625 0.13518,0c0.13518,0 0.27036,0.08625 0.40554,0.25874c0.27036,0.25874 0.60831,0.68998 0.87866,1.20747c0.27036,0.51749 0.40554,1.03497 0.54072,1.4662c0.06759,0.43124 0.13518,0.68998 0.13518,0.68998c0,0 -0.20277,-0.25874 -0.40554,-0.60373c-0.20277,-0.34499 -0.47313,-0.86248 -0.6759,-1.29371c-0.20277,-0.51749 -0.47313,-0.94872 -0.6759,-1.29371c-0.06759,-0.1725 -0.20277,-0.25874 -0.27036,-0.34499c0,-0.08625 -0.06759,-0.08625 -0.06759,-0.08625z" fill="#120d0b"/><path d="M231.95259,36.82029c0,0 0.06759,0 0.20277,0c0.13518,0.08625 0.33795,0.08625 0.54072,0.25874c0.40554,0.25874 0.87866,0.86248 1.21662,1.63871c0.13518,0.34499 0.33795,0.68998 0.40554,1.03497c0.13518,0.34499 0.20277,0.68998 0.27036,0.94872c0.06759,0.34499 0.06759,0.60373 0.06759,0.77623c0,0.1725 0,0.25874 0,0.25874c0,0 0,0 -0.06759,-0.1725c-0.06759,-0.1725 -0.13518,-0.34499 -0.27036,-0.60373c-0.13518,-0.25874 -0.20277,-0.60373 -0.33795,-0.86248c-0.13518,-0.34499 -0.27036,-0.68998 -0.40554,-0.94872c-0.33795,-0.68998 -0.6759,-1.20747 -1.01385,-1.63871c-0.33795,-0.51749 -0.60831,-0.68998 -0.60831,-0.68998z" fill="#120d0b"/><path d="M239.79302,36.56154c0,0 0.13518,0 0.27036,0.1725c0.13518,0.08625 0.33795,0.25874 0.47313,0.51749c0.13518,0.25874 0.20277,0.51749 0.27036,0.68998c0.06759,0.25874 0,0.34499 0,0.34499c0,0 -0.06759,-0.08625 -0.20277,-0.1725c-0.13518,-0.1725 -0.27036,-0.34499 -0.40554,-0.51749c-0.13518,-0.1725 -0.20277,-0.43124 -0.27036,-0.60373c-0.06759,-0.25874 -0.13518,-0.43124 -0.13518,-0.43124z" fill="#120d0b"/><path d="M228.77587,38.114c0,0 0.33795,0 0.87866,0.25874c0.27036,0.1725 0.54072,0.34499 0.81108,0.60373c0.27036,0.25874 0.54072,0.60373 0.74349,0.94872c0.47313,0.68998 0.81108,1.4662 0.94626,2.15618c0.06759,0.34499 0.13518,0.60373 0.20277,0.77623c0.06759,0.1725 0.06759,0.25874 0.06759,0.25874c0,0 -0.06759,-0.08625 -0.13518,-0.25874c-0.06759,-0.1725 -0.20277,-0.43124 -0.33795,-0.68998c-0.13518,-0.25874 -0.27036,-0.60373 -0.47313,-0.94872c-0.20277,-0.34499 -0.40554,-0.68998 -0.60831,-0.94872c-0.40554,-0.68998 -0.94626,-1.20747 -1.3518,-1.63871c-0.40554,-0.25874 -0.74349,-0.51749 -0.74349,-0.51749z" fill="#120d0b"/><path d="M225.59915,40.27018c0,0 0.13518,-0.1725 0.33795,-0.25874c0.27036,-0.08625 0.60831,0 0.87866,0.08625c0.27036,0.1725 0.54072,0.43124 0.6759,0.68998c0.13518,0.25874 0.20277,0.43124 0.20277,0.43124c0,0 -0.06759,0 -0.13518,0c-0.06759,0 -0.13518,-0.08625 -0.27036,-0.08625c-0.20277,-0.08625 -0.47313,-0.25874 -0.6759,-0.43124c-0.27036,-0.1725 -0.47313,-0.25874 -0.6759,-0.34499c-0.20277,-0.08625 -0.33795,-0.08625 -0.33795,-0.08625z" fill="#120d0b"/><path d="M228.03238,40.44269c0,0 0.13518,0 0.33795,0.08625c0.20277,0.08625 0.40554,0.25874 0.60831,0.51749c0.20277,0.25874 0.33795,0.51749 0.33795,0.77623c0.06759,0.25874 0,0.43124 0,0.43124c0,0 0,0 -0.06759,-0.08625c-0.06759,-0.08625 -0.13518,-0.08625 -0.20277,-0.1725c-0.13518,-0.1725 -0.27036,-0.34499 -0.47313,-0.60373c-0.13518,-0.25874 -0.33795,-0.43124 -0.40554,-0.60373c-0.06759,-0.1725 -0.13518,-0.34499 -0.13518,-0.34499z" fill="#120d0b"/><path d="M223.84182,43.03011c0,0 0.27036,0.08625 0.6759,0.34499c0.40554,0.25874 0.94626,0.60373 1.3518,1.12121c0.20277,0.25874 0.40554,0.51749 0.60831,0.86248c0.13518,0.25874 0.27036,0.60373 0.40554,0.86248c0.06759,0.25874 0.13518,0.51749 0.13518,0.68998c0,0.1725 0,0.25874 0,0.25874c0,0 -0.06759,-0.08625 -0.13518,-0.25874c-0.06759,-0.1725 -0.13518,-0.34499 -0.27036,-0.60373c-0.13518,-0.25874 -0.27036,-0.43124 -0.47313,-0.68998c-0.20277,-0.25874 -0.40554,-0.51749 -0.60831,-0.77623c-0.40554,-0.51749 -0.87866,-0.94872 -1.21662,-1.29371c-0.27036,-0.25874 -0.47313,-0.51749 -0.47313,-0.51749z" fill="#120d0b"/><path d="M222.49002,46.04876c0,0 0.27036,0.08625 0.6759,0.34499c0.33795,0.25874 0.81108,0.77623 1.14902,1.29371c0.20277,0.25874 0.33795,0.60373 0.47313,0.86248c0.13518,0.25874 0.27036,0.60373 0.33795,0.86248c0.13518,0.51749 0.20277,0.86248 0.20277,0.86248c0,0 -0.06759,-0.08625 -0.13518,-0.1725c-0.06759,-0.08625 -0.20277,-0.34499 -0.27036,-0.51749c-0.27036,-0.43124 -0.54072,-0.94872 -0.87866,-1.4662c-0.33795,-0.51749 -0.6759,-1.03497 -1.01385,-1.37996c-0.33795,-0.43124 -0.54072,-0.68998 -0.54072,-0.68998z" fill="#120d0b"/><path d="M223.9094,46.39375c0,0 0.13518,0 0.33795,0.08625c0.20277,0.08625 0.40554,0.25874 0.54072,0.43124c0.13518,0.25874 0.27036,0.51749 0.33795,0.68998c0.06759,0.25874 0.06759,0.43124 0.06759,0.43124c0,0 0,0 -0.06759,-0.08625c-0.06759,0 -0.13518,-0.08625 -0.20277,-0.1725c-0.13518,-0.1725 -0.27036,-0.34499 -0.47313,-0.51749c-0.13518,-0.1725 -0.27036,-0.43124 -0.40554,-0.60373c-0.06759,-0.1725 -0.13518,-0.25874 -0.13518,-0.25874z" fill="#120d0b"/><path d="M236.48111,38.71774c0,0 0.13518,0.08625 0.27036,0.25874c0.13518,0.1725 0.33795,0.43124 0.47313,0.77623c0.13518,0.25874 0.20277,0.60373 0.13518,0.94872c0,0.25874 -0.06759,0.43124 -0.06759,0.43124c0,0 0,0 -0.06759,-0.08625c0,-0.08625 -0.06759,-0.1725 -0.13518,-0.25874c-0.06759,-0.25874 -0.20277,-0.51749 -0.33795,-0.77623c-0.06759,-0.25874 -0.20277,-0.60373 -0.27036,-0.86248c0,-0.25874 0,-0.43124 0,-0.43124z" fill="#120d0b"/></g><g><path d="M236.34594,41.99513c6.89416,-0.68998 8.92186,2.84616 8.92186,2.84616c0,0 -3.10914,-0.94872 -6.82658,-0.94872c-10.34125,-0.08625 -14.93735,14.05833 -14.93735,14.05833c1.28421,-12.24714 7.02934,-15.35204 12.84207,-15.95578z" fill="#d9a64a"/><g><path d="M236.81906,43.03011c0.06759,-0.68998 0.81108,-1.89745 0.81108,-1.89745c0.54072,0.08625 1.21662,1.4662 1.21662,1.4662c0,0.68998 -0.74349,1.81119 -0.74349,1.81119c-0.6759,-0.1725 -1.28421,-1.29371 -1.28421,-1.37996z" fill="#ffb83b"/><path d="M237.15701,43.03011c0.06759,-0.68998 0.54072,-1.55246 0.54072,-1.55246c0.33795,0.1725 0.94626,1.12121 0.94626,1.12121c0,0.43124 -0.60831,1.55246 -0.60831,1.55246c-0.47313,-0.43124 -0.94626,-1.12121 -0.87866,-1.12121z" fill="#d12a2a"/></g></g></g><g><g id="Shape"><path d="M249.45836,59.15838c0,0 -1.01385,7.0723 1.14902,8.53849c2.16287,1.4662 2.16287,3.96739 1.14902,4.57111c0,0 0.81108,-1.37996 -0.06759,-2.24244c0,0 0.40554,1.89745 -1.68974,2.67368c-2.09529,0.77623 -0.13518,4.48487 1.75734,2.84616c0,0 -0.40554,1.03497 -1.21662,1.03497c0,0 2.0277,-0.25874 2.23046,1.29371c0.20277,1.4662 -1.01385,4.05363 -4.25816,1.81119c0,0 1.55457,0.43124 2.16287,-0.1725c0,0 -0.74349,0.1725 -1.01385,-0.25874c0,0 3.44708,-0.25874 2.16287,-1.37996c-1.28421,-1.20747 -5.06924,-0.1725 -4.32575,-3.1049c0.74349,-2.93242 3.64985,-2.58743 3.3119,-3.96739c-0.40554,-1.4662 -2.50082,-1.89745 -2.50082,-4.31238c0,0 -0.74349,2.50117 1.62216,3.79488c0,0 -2.77118,0.1725 -2.16287,-4.48487c0.60831,-4.65736 1.68974,-6.64106 1.68974,-6.64106z" fill="#30231d"/><path d="M248.30934,66.40317c0,0 0,0.1725 0.06759,0.34499c0.06759,0.25874 0.13518,0.51749 0.33795,0.86248c0.20277,0.34499 0.40554,0.68998 0.6759,0.94872c0.13518,0.1725 0.33795,0.25874 0.47313,0.43124l0.27036,0.1725l0.27036,0.25874c0.13518,0.1725 0.33795,0.43124 0.47313,0.68998c0.13518,0.25874 0.13518,0.68998 0.06759,0.94872c-0.06759,0.25874 -0.27036,0.51749 -0.40554,0.60373c-0.13518,0.1725 -0.33795,0.25874 -0.47313,0.34499c-0.27036,0.1725 -0.54072,0.25874 -0.74349,0.25874c-0.20277,0 -0.27036,0 -0.27036,0c0,0 0.40554,-0.1725 0.94626,-0.60373c0.27036,-0.25874 0.54072,-0.51749 0.60831,-0.86248c0.06759,-0.1725 0,-0.34499 -0.06759,-0.51749c-0.06759,-0.1725 -0.20277,-0.34499 -0.33795,-0.51749l-0.27036,-0.25874l-0.27036,-0.25874c-0.20277,-0.1725 -0.33795,-0.34499 -0.47313,-0.51749c-0.27036,-0.34499 -0.54072,-0.77623 -0.6759,-1.20747c-0.13518,-0.34499 -0.20277,-0.77623 -0.20277,-0.94872z" fill="#120d0b"/><path d="M250.26944,77.1841c0,0 -0.27036,0.08625 -0.60831,0.08625c-0.40554,0 -0.94626,0 -1.41938,-0.34499c-0.27036,-0.1725 -0.47313,-0.34499 -0.6759,-0.60373c-0.20277,-0.25874 -0.27036,-0.60373 -0.20277,-0.86248c0,-0.1725 0,-0.25874 0.06759,-0.34499c0,-0.08625 0.06759,-0.1725 0.06759,-0.25874c0.06759,-0.1725 0.06759,-0.1725 0.06759,-0.1725c0,0 0,0.08625 0,0.25874c0,0.08625 0,0.1725 0,0.25874c0,0.08625 0.06759,0.1725 0.06759,0.25874c0,0.08625 0.06759,0.1725 0.06759,0.34499c0.06759,0.08625 0.13518,0.1725 0.20277,0.25874c0.13518,0.1725 0.33795,0.34499 0.54072,0.43124c0.40554,0.25874 0.87866,0.43124 1.28421,0.51749c0.27036,0.08625 0.54072,0.1725 0.54072,0.1725z" fill="#120d0b"/><path d="M250.60739,67.69689c0,0 -0.13518,0 -0.33795,-0.1725c-0.06759,-0.08625 -0.20277,-0.1725 -0.27036,-0.34499c-0.13518,-0.1725 -0.20277,-0.34499 -0.33795,-0.51749c-0.06759,-0.1725 -0.20277,-0.43124 -0.27036,-0.68998c-0.06759,-0.25874 -0.13518,-0.51749 -0.20277,-0.86248c0,-0.25874 -0.06759,-0.60373 -0.06759,-0.86248c0,-0.34499 0,-0.60373 0,-0.94872c0,-0.60373 0.06759,-1.20747 0.13518,-1.81119c0,-0.25874 0.06759,-0.51749 0.13518,-0.77623c0.06759,-0.25874 0.06759,-0.51749 0.13518,-0.68998c0.20277,-0.86248 0.40554,-1.4662 0.40554,-1.4662c0,0 -0.06759,0.60373 -0.13518,1.55246c0,0.43124 -0.06759,0.94872 -0.13518,1.55246c-0.06759,0.51749 -0.06759,1.12121 -0.06759,1.72495c0,0.60373 0,1.20747 0.06759,1.72495c0.06759,0.25874 0.06759,0.51749 0.13518,0.77623c0.06759,0.25874 0.06759,0.43124 0.13518,0.68998c0.06759,0.1725 0.13518,0.34499 0.20277,0.51749c0.06759,0.1725 0.13518,0.25874 0.20277,0.34499c0.20277,0.1725 0.27036,0.25874 0.27036,0.25874z" fill="#120d0b"/></g><g><g id="Shape"><path d="M244.5919,46.825c8.38114,4.39862 6.15067,21.13063 6.15067,21.13063c0,0 2.16287,4.22612 -2.36565,13.36835c-4.19057,8.53849 -16.6271,3.36365 -20.00659,-5.0886c-2.23046,-5.60608 -4.05539,-19.06068 1.9601,-27.42669c3.51467,-4.82986 8.58391,-5.00235 14.26146,-1.9837z" fill="#875137"/><path d="M243.64564,85.46385c0,0 -0.74349,0.34499 -1.89251,0.43124c-0.54072,0 -1.21662,0.08625 -1.9601,-0.08625c-0.33795,0 -0.74349,-0.08625 -1.08144,-0.1725c-0.40554,-0.08625 -0.74349,-0.1725 -1.08144,-0.34499c-0.33795,-0.1725 -0.74349,-0.34499 -1.08144,-0.43124c-0.33795,-0.1725 -0.6759,-0.34499 -1.01385,-0.51749c-0.33795,-0.1725 -0.60831,-0.43124 -0.94626,-0.60373c-0.27036,-0.1725 -0.54072,-0.43124 -0.81108,-0.60373c-0.47313,-0.34499 -0.87866,-0.77623 -1.14902,-1.03497c-0.27036,-0.25874 -0.40554,-0.43124 -0.40554,-0.43124c0,0 0.13518,0.08625 0.47313,0.34499c0.13518,0.08625 0.33795,0.25874 0.54072,0.34499c0.20277,0.1725 0.40554,0.25874 0.6759,0.43124c0.27036,0.1725 0.54072,0.34499 0.81108,0.51749c0.27036,0.1725 0.60831,0.34499 0.94626,0.51749c0.33795,0.1725 0.6759,0.34499 1.01385,0.51749c0.33795,0.1725 0.6759,0.25874 1.08144,0.43124c0.33795,0.08625 0.74349,0.25874 1.08144,0.34499c0.33795,0.08625 0.74349,0.1725 1.08144,0.25874c0.6759,0.08625 1.3518,0.1725 1.89251,0.25874c1.08144,-0.08625 1.82493,-0.1725 1.82493,-0.1725z" fill="#613a27"/><path d="M250.74257,67.95563c0,0 0.13518,0.1725 0.27036,0.51749c0.13518,0.34499 0.27036,0.86248 0.33795,1.55246c0.06759,0.34499 0.06759,0.68998 0.06759,1.12121c0,0.34499 0,0.77623 0,1.20747c-0.06759,0.43124 -0.06759,0.86248 -0.13518,1.29371c-0.06759,0.43124 -0.13518,0.86248 -0.27036,1.29371c-0.06759,0.43124 -0.20277,0.86248 -0.33795,1.29371c-0.13518,0.43124 -0.27036,0.77623 -0.40554,1.20747c-0.27036,0.77623 -0.60831,1.4662 -0.87866,1.9837c-0.27036,0.60373 -0.54072,1.03497 -0.6759,1.37996c-0.20277,0.34499 -0.27036,0.51749 -0.27036,0.51749c0,0 0.06759,-0.1725 0.20277,-0.51749c0.13518,-0.34499 0.33795,-0.86248 0.54072,-1.4662c0.13518,-0.25874 0.20277,-0.60373 0.33795,-0.94872c0.13518,-0.34499 0.20277,-0.68998 0.33795,-1.12121c0.13518,-0.34499 0.27036,-0.77623 0.33795,-1.20747c0.13518,-0.43124 0.20277,-0.77623 0.33795,-1.20747c0.13518,-0.43124 0.20277,-0.86248 0.27036,-1.29371c0.06759,-0.43124 0.13518,-0.86248 0.20277,-1.20747c0.06759,-0.77623 0.13518,-1.55246 0.06759,-2.24244c0,-0.68998 -0.06759,-1.20747 -0.20277,-1.55246c0,-0.43124 -0.13518,-0.60373 -0.13518,-0.60373z" fill="#613a27"/></g><path d="M244.38913,66.23068c0,0 0.27036,0.51749 0.6759,1.37996c0.33795,0.86248 0.81108,1.9837 1.21662,3.1049c0.06759,0.25874 0.20277,0.60373 0.27036,0.86248c0.06759,0.34499 0.13518,0.60373 0.20277,0.94872c0,0.34499 -0.06759,0.68998 -0.13518,0.94872c-0.13518,0.25874 -0.27036,0.43124 -0.40554,0.60373c-0.27036,0.34499 -0.60831,0.51749 -0.81108,0.60373c-0.20277,0.08625 -0.33795,0.1725 -0.33795,0.1725c0,0 0.13518,-0.08625 0.27036,-0.25874c0.20277,-0.1725 0.40554,-0.43124 0.6759,-0.77623c0.20277,-0.34499 0.40554,-0.77623 0.33795,-1.29371c0,-0.25874 -0.13518,-0.51749 -0.20277,-0.77623c-0.06759,-0.25874 -0.20277,-0.60373 -0.27036,-0.86248c-0.40554,-1.12121 -0.81108,-2.24244 -1.08144,-3.19115c-0.27036,-0.86248 -0.40554,-1.4662 -0.40554,-1.4662z" id="Shape" fill="#613a27"/><path d="M244.65949,73.5617c0,0 -0.06759,0.08625 -0.13518,0.25874c-0.06759,0.1725 -0.20277,0.25874 -0.33795,0.43124c-0.13518,0.08625 -0.27036,0.1725 -0.40554,0.25874c-0.06759,0 -0.13518,0 -0.13518,0.08625c-0.06759,0 -0.06759,0 -0.06759,0c0,0 0,-0.1725 0.06759,-0.34499c0.06759,-0.1725 0.20277,-0.34499 0.33795,-0.51749c0.13518,-0.1725 0.33795,-0.1725 0.47313,-0.1725c0.06759,-0.08625 0.20277,0 0.20277,0z" id="Shape" fill="#613a27"/><path d="M245.94369,78.13283c0,0 -0.06759,0.08625 -0.20277,0.1725c-0.13518,0.08625 -0.33795,0.25874 -0.60831,0.34499c-0.27036,0.08625 -0.60831,0.25874 -0.94626,0.34499c-0.33795,0.08625 -0.74349,0.08625 -1.14902,0.08625c-0.74349,0 -1.55457,-0.1725 -2.09529,-0.43124c-0.27036,-0.08625 -0.47313,-0.25874 -0.6759,-0.34499c-0.13518,-0.08625 -0.27036,-0.1725 -0.27036,-0.1725c0,0 0.06759,0 0.27036,0c0.13518,0 0.40554,0.08625 0.6759,0.08625c0.27036,0.08625 0.60831,0.08625 0.94626,0.08625c0.33795,0 0.74349,0.08625 1.08144,0.08625c0.74349,0 1.48698,-0.08625 2.0277,-0.1725c0.60831,0.08625 0.94626,-0.08625 0.94626,-0.08625z" id="Shape" fill="#613a27"/><path d="M240.94204,62.86703c0,0 -1.21662,-0.51749 -2.43323,-0.34499c-0.27036,0 -0.60831,0.08625 -0.87866,0.1725c-0.27036,0.08625 -0.54072,0.1725 -0.74349,0.34499c-0.13518,0.08625 -0.20277,0.08625 -0.27036,0.1725c-0.06759,0.08625 -0.13518,0.08625 -0.20277,0.1725c-0.13518,0.08625 -0.20277,0.08625 -0.20277,0.08625c0,0 0.06759,-0.08625 0.13518,-0.1725c0.13518,-0.08625 0.27036,-0.34499 0.47313,-0.51749c0.13518,-0.08625 0.20277,-0.1725 0.33795,-0.25874c0.13518,-0.08625 0.27036,-0.1725 0.40554,-0.25874c0.13518,-0.08625 0.27036,-0.1725 0.47313,-0.1725c0.13518,0 0.33795,-0.08625 0.47313,-0.08625c0.6759,-0.08625 1.3518,0.08625 1.75734,0.34499c0.40554,0.25874 0.6759,0.51749 0.6759,0.51749z" id="Shape" fill="#30231d"/><g fill="#30231d"><path d="M239.22772,68.23044c-0.37329,-0.00264 -0.67187,-0.93154 -0.6669,-2.07472c0.00497,-1.14321 0.31161,-2.0678 0.6849,-2.06516c0.37329,0.00264 0.67187,0.93154 0.6669,2.07472c-0.00497,1.14321 -0.31161,2.0678 -0.6849,2.06516z" id="Oval"/><path d="M240.73927,64.93696c0,0 -0.27036,-0.1725 -0.60831,-0.34499c-0.40554,-0.1725 -0.87866,-0.34499 -1.41938,-0.25874c-0.27036,0 -0.47313,0.1725 -0.74349,0.25874c-0.13518,0.08625 -0.20277,0.1725 -0.33795,0.1725c-0.06759,0.08625 -0.20277,0.1725 -0.27036,0.25874c-0.20277,0.08625 -0.33795,0.25874 -0.40554,0.34499c-0.13518,0.08625 -0.13518,0.1725 -0.13518,0.1725c0,0 0,-0.08625 0.13518,-0.25874c0.06759,-0.08625 0.13518,-0.34499 0.33795,-0.51749c0.13518,-0.25874 0.33795,-0.43124 0.60831,-0.60373c0.13518,-0.08625 0.27036,-0.1725 0.40554,-0.25874c0.13518,0 0.27036,-0.08625 0.47313,-0.08625c0.13518,0 0.33795,0 0.47313,0c0.13518,0 0.27036,0.08625 0.40554,0.08625c0.27036,0.08625 0.54072,0.25874 0.6759,0.43124c0.27036,0.34499 0.40554,0.60373 0.40554,0.60373z" id="Shape"/></g><g fill="#30231d"><path d="M247.4211,67.9675c-0.37329,-0.00264 -0.67187,-0.93154 -0.6669,-2.07472c0.00497,-1.14321 0.31161,-2.0678 0.6849,-2.06516c0.37329,0.00264 0.67187,0.93154 0.6669,2.07472c-0.00497,1.14321 -0.31161,2.0678 -0.6849,2.06516z" id="Oval"/><path d="M248.98523,64.76447c0,0 -0.20277,-0.1725 -0.54072,-0.34499c-0.13518,-0.08625 -0.33795,-0.1725 -0.60831,-0.25874c-0.20277,-0.08625 -0.40554,-0.08625 -0.6759,0c-0.20277,0 -0.47313,0.08625 -0.6759,0.25874c-0.06759,0.08625 -0.20277,0.08625 -0.27036,0.1725c-0.06759,0.08625 -0.20277,0.1725 -0.27036,0.1725c-0.13518,0.08625 -0.27036,0.25874 -0.40554,0.34499l-0.06759,0.08625c0,0 0,-0.08625 0.06759,-0.1725c0.06759,-0.08625 0.13518,-0.34499 0.27036,-0.51749c0.13518,-0.1725 0.33795,-0.43124 0.54072,-0.60373c0.13518,-0.08625 0.20277,-0.1725 0.33795,-0.25874c0.13518,-0.08625 0.27036,-0.08625 0.40554,-0.08625c0.27036,0 0.54072,0 0.81108,0.08625c0.27036,0.08625 0.47313,0.25874 0.60831,0.43124c0.40554,0.34499 0.47313,0.68998 0.47313,0.68998z" id="Shape"/></g><path d="M249.39078,62.86703c0,0 -1.08144,-0.60373 -2.09529,-0.51749c-0.54072,0 -1.01385,0.1725 -1.41938,0.34499c-0.20277,0.08625 -0.33795,0.1725 -0.47313,0.25874c-0.13518,0.08625 -0.20277,0.08625 -0.20277,0.08625c0,0 0.06759,-0.08625 0.13518,-0.1725c0.06759,-0.08625 0.20277,-0.25874 0.40554,-0.43124c0.06759,-0.08625 0.20277,-0.1725 0.33795,-0.25874c0.13518,-0.08625 0.20277,-0.1725 0.33795,-0.1725c0.13518,-0.08625 0.27036,-0.08625 0.40554,-0.1725c0.13518,0 0.27036,-0.08625 0.47313,-0.08625c0.27036,0 0.60831,0.08625 0.87866,0.1725c0.27036,0.08625 0.47313,0.25874 0.6759,0.43124c0.33795,0.1725 0.54072,0.51749 0.54072,0.51749z" id="Shape" fill="#30231d"/></g><g id="Shape"><path d="M250.94534,60.45209c0,0 -0.94626,-11.21217 -8.78668,-6.81355c0,0 -10.88197,-6.46856 -9.9357,13.62709c0,0 -5.00165,-1.9837 -3.85262,8.88348c0,0 -6.69139,-6.12357 -4.79888,-18.19822c1.75734,-10.78093 8.44873,-15.86953 13.78833,-13.97208c0,0 3.44708,-1.4662 7.43488,0.43124c3.64985,1.72495 6.69139,6.46856 6.15067,16.04203z" fill="#30231d"/><path d="M242.42902,55.3635c0,0 -0.13518,-0.51749 -0.33795,-1.29371c-0.20277,-0.77623 -0.47313,-1.81119 -0.81108,-2.84616c-0.33795,-1.03497 -0.74349,-1.9837 -1.08144,-2.67368c-0.13518,-0.34499 -0.27036,-0.68998 -0.40554,-0.86248c-0.13518,-0.1725 -0.13518,-0.34499 -0.13518,-0.34499c0,0 0.06759,0.08625 0.20277,0.25874c0.13518,0.1725 0.33795,0.43124 0.54072,0.77623c0.20277,0.34499 0.47313,0.68998 0.6759,1.20747c0.20277,0.43124 0.40554,0.94872 0.60831,1.4662c0.33795,1.03497 0.54072,2.15618 0.6759,2.93242c0.13518,0.86248 0.06759,1.37996 0.06759,1.37996z" fill="#875137"/><path d="M241.34758,51.22362c0,0 -0.27036,-0.25874 -0.74349,-0.51749c-0.20277,-0.08625 -0.47313,-0.25874 -0.74349,-0.34499c-0.27036,-0.08625 -0.60831,-0.1725 -0.87866,-0.1725c-0.33795,0 -0.60831,0 -0.87866,0c-0.27036,0.08625 -0.54072,0.08625 -0.81108,0.1725c-0.27036,0.08625 -0.40554,0.1725 -0.54072,0.1725c-0.13518,0.08625 -0.20277,0.08625 -0.20277,0.08625c0,0 0.06759,-0.08625 0.20277,-0.1725c0.13518,-0.08625 0.27036,-0.25874 0.54072,-0.43124c0.20277,-0.1725 0.47313,-0.25874 0.81108,-0.34499c0.13518,0 0.33795,-0.08625 0.47313,-0.08625c0.20277,0 0.33795,0 0.54072,0c0.33795,0 0.6759,0.08625 1.01385,0.25874c0.27036,0.1725 0.54072,0.34499 0.74349,0.51749c0.27036,0.51749 0.47313,0.86248 0.47313,0.86248z" fill="#120d0b"/><path d="M240.40133,48.89493c0,0 -0.13518,-0.08625 -0.33795,-0.08625c-0.20277,-0.08625 -0.47313,-0.1725 -0.74349,-0.1725c-0.27036,-0.08625 -0.54072,-0.08625 -0.74349,-0.08625c-0.20277,0 -0.40554,0 -0.40554,0c0,0 0.13518,-0.1725 0.33795,-0.25874c0.13518,-0.08625 0.27036,-0.08625 0.40554,-0.1725c0.13518,0 0.33795,0 0.47313,0c0.33795,0.08625 0.60831,0.25874 0.81108,0.51749c0.13518,0.08625 0.20277,0.25874 0.20277,0.25874z" fill="#120d0b"/><path d="M238.84676,45.27255c0,0 -0.47313,-0.43124 -1.21662,-0.86248c-0.20277,-0.08625 -0.40554,-0.1725 -0.60831,-0.25874c-0.20277,-0.08625 -0.47313,-0.1725 -0.74349,-0.1725c-0.27036,-0.08625 -0.54072,-0.08625 -0.81108,-0.08625c-0.27036,0 -0.54072,0 -0.81108,0c-0.27036,0 -0.54072,0 -0.81108,0.08625c-0.27036,0.08625 -0.54072,0.08625 -0.81108,0.1725c-0.27036,0.08625 -0.47313,0.1725 -0.74349,0.25874c-0.20277,0.08625 -0.47313,0.1725 -0.6759,0.25874c-0.40554,0.1725 -0.74349,0.34499 -0.94626,0.43124c-0.20277,0.08625 -0.33795,0.1725 -0.33795,0.1725c0,0 0.13518,-0.08625 0.33795,-0.25874c0.20277,-0.1725 0.54072,-0.43124 0.87866,-0.68998c0.20277,-0.08625 0.40554,-0.25874 0.60831,-0.34499c0.20277,-0.08625 0.47313,-0.1725 0.74349,-0.34499c0.27036,-0.08625 0.54072,-0.1725 0.81108,-0.25874c0.27036,-0.08625 0.60831,-0.08625 0.87866,-0.08625c0.27036,0 0.60831,0 0.87866,0c0.27036,0.08625 0.54072,0.08625 0.81108,0.1725c0.27036,0.08625 0.54072,0.1725 0.74349,0.34499c0.27036,0.08625 0.47313,0.25874 0.6759,0.34499c0.81108,0.60373 1.14902,1.12121 1.14902,1.12121z" fill="#120d0b"/><path d="M228.43792,76.14913c0,0 -0.6759,-0.51749 -1.55457,-1.55246c-0.20277,-0.25874 -0.40554,-0.60373 -0.6759,-0.86248c-0.20277,-0.34499 -0.47313,-0.68998 -0.6759,-1.12121c-0.20277,-0.43124 -0.40554,-0.77623 -0.60831,-1.20747c-0.20277,-0.43124 -0.40554,-0.86248 -0.54072,-1.37996c-0.20277,-0.43124 -0.27036,-0.94872 -0.40554,-1.37996c-0.13518,-0.51749 -0.20277,-0.94872 -0.33795,-1.37996c-0.06759,-0.43124 -0.13518,-0.94872 -0.20277,-1.37996c-0.06759,-0.43124 -0.06759,-0.86248 -0.13518,-1.20747c0,-0.34499 -0.06759,-0.68998 -0.06759,-1.03497c0,-0.34499 0,-0.60373 0,-0.77623c0,-0.43124 0,-0.68998 0,-0.68998c0,0 0,0.25874 0.06759,0.68998c0,0.25874 0.06759,0.51749 0.06759,0.77623c0,0.34499 0.06759,0.60373 0.13518,1.03497c0.06759,0.34499 0.06759,0.77623 0.20277,1.20747c0.06759,0.43124 0.20277,0.86248 0.27036,1.29371c0.13518,0.43124 0.20277,0.86248 0.33795,1.37996c0.13518,0.43124 0.27036,0.94872 0.47313,1.37996c0.13518,0.43124 0.33795,0.94872 0.54072,1.29371c0.20277,0.43124 0.40554,0.86248 0.54072,1.20747c0.40554,0.77623 0.81108,1.4662 1.14902,2.06994c0.81108,1.03497 1.41938,1.63871 1.41938,1.63871z" fill="#120d0b"/><path d="M244.05118,46.04876c0,0 -0.33795,-0.08625 -0.74349,-0.1725c-0.47313,-0.08625 -1.08144,-0.1725 -1.62216,-0.1725c-0.27036,0 -0.60831,0 -0.87866,0.08625c-0.13518,0 -0.27036,0.08625 -0.40554,0.08625c-0.13518,0.08625 -0.20277,0.08625 -0.33795,0.1725c-0.06759,0.08625 -0.20277,0.08625 -0.27036,0.1725c-0.06759,0.08625 -0.13518,0.08625 -0.20277,0.1725c-0.13518,0.08625 -0.20277,0.1725 -0.20277,0.1725c0,0 0.06759,-0.08625 0.13518,-0.25874c0.06759,-0.08625 0.06759,-0.1725 0.13518,-0.25874c0.06759,-0.08625 0.13518,-0.1725 0.27036,-0.25874c0.20277,-0.1725 0.47313,-0.34499 0.74349,-0.43124c0.13518,0 0.33795,-0.08625 0.47313,-0.08625c0.13518,0 0.33795,0 0.47313,0c0.6759,0 1.28421,0.25874 1.68974,0.43124c0.47313,0.08625 0.74349,0.34499 0.74349,0.34499z" fill="#120d0b"/><path d="M246.21405,48.63619c0,0 -0.40554,-0.25874 -0.94626,-0.51749c-0.27036,-0.1725 -0.60831,-0.25874 -0.94626,-0.43124c-0.33795,-0.1725 -0.74349,-0.25874 -1.14902,-0.34499c-0.20277,-0.08625 -0.40554,-0.08625 -0.54072,-0.08625c-0.20277,0 -0.40554,0 -0.54072,0c-0.20277,0 -0.33795,0.08625 -0.54072,0.08625c-0.13518,0.08625 -0.33795,0.08625 -0.47313,0.1725c-0.13518,0.08625 -0.27036,0.1725 -0.33795,0.25874c-0.13518,0.08625 -0.20277,0.1725 -0.27036,0.25874c-0.13518,0.1725 -0.20277,0.1725 -0.20277,0.1725c0,0 0.06759,-0.08625 0.20277,-0.25874c0.06759,-0.08625 0.13518,-0.1725 0.20277,-0.34499c0.06759,-0.08625 0.20277,-0.25874 0.33795,-0.34499c0.13518,-0.08625 0.27036,-0.1725 0.47313,-0.25874c0.20277,-0.08625 0.33795,-0.08625 0.54072,-0.1725c0.20277,0 0.40554,-0.08625 0.60831,0c0.20277,0 0.40554,0 0.60831,0.08625c0.81108,0.1725 1.62216,0.68998 2.09529,1.12121c0.54072,0.25874 0.87866,0.60373 0.87866,0.60373z" fill="#120d0b"/><path d="M233.2368,52.0861c0,0 -0.13518,0.25874 -0.27036,0.51749c-0.20277,0.34499 -0.40554,0.68998 -0.6759,1.12121c-0.27036,0.34499 -0.54072,0.77623 -0.74349,1.03497c-0.13518,0.1725 -0.20277,0.25874 -0.27036,0.34499c-0.06759,0.08625 -0.13518,0.08625 -0.13518,0.08625c0,0 0.06759,-0.25874 0.20277,-0.60373c0.13518,-0.34499 0.33795,-0.77623 0.60831,-1.20747c0.27036,-0.43124 0.60831,-0.77623 0.87866,-0.94872c0.20277,-0.25874 0.40554,-0.34499 0.40554,-0.34499z" fill="#452f26"/><path d="M231.95259,52.34484c0,0 -0.06759,0.08625 -0.13518,0.25874c-0.06759,0.1725 -0.20277,0.34499 -0.27036,0.43124c-0.13518,0.1725 -0.27036,0.25874 -0.33795,0.34499c-0.13518,0.08625 -0.20277,0.1725 -0.20277,0.1725c0,0 0,-0.1725 0,-0.34499c0,-0.1725 0.13518,-0.43124 0.27036,-0.60373c0.13518,-0.1725 0.33795,-0.25874 0.47313,-0.34499c0.13518,0.08625 0.20277,0.08625 0.20277,0.08625z" fill="#452f26"/><path d="M231.61465,50.79238c0,0 -0.13518,0.34499 -0.40554,0.77623c-0.27036,0.43124 -0.60831,1.03497 -1.01385,1.55246c-0.33795,0.51749 -0.74349,1.12121 -1.01385,1.4662c-0.13518,0.1725 -0.27036,0.34499 -0.33795,0.51749c-0.06759,0.08625 -0.13518,0.1725 -0.13518,0.1725c0,0 0.06759,-0.34499 0.27036,-0.86248c0.20277,-0.51749 0.54072,-1.12121 0.87866,-1.72495c0.40554,-0.60373 0.81108,-1.03497 1.14902,-1.37996c0.33795,-0.25874 0.60831,-0.51749 0.60831,-0.51749z" fill="#452f26"/><path d="M229.58695,51.99985c0,0 0,0.1725 -0.06759,0.34499c-0.06759,0.1725 -0.13518,0.43124 -0.20277,0.60373c-0.13518,0.1725 -0.27036,0.34499 -0.40554,0.51749c-0.13518,0.08625 -0.27036,0.1725 -0.27036,0.1725c0,0 0,-0.1725 0.06759,-0.34499c0.06759,-0.1725 0.13518,-0.43124 0.20277,-0.60373c0.13518,-0.1725 0.27036,-0.34499 0.40554,-0.51749c0.13518,-0.1725 0.27036,-0.1725 0.27036,-0.1725z" fill="#452f26"/><path d="M229.72213,50.87863c0,0 -0.06759,0.1725 -0.13518,0.43124c-0.13518,0.25874 -0.27036,0.51749 -0.47313,0.77623c-0.20277,0.25874 -0.40554,0.51749 -0.54072,0.68998c-0.13518,0.1725 -0.27036,0.25874 -0.27036,0.25874c0,0 0,-0.1725 0.06759,-0.43124c0.06759,-0.25874 0.20277,-0.60373 0.40554,-0.86248c0.20277,-0.25874 0.40554,-0.51749 0.60831,-0.60373c0.20277,-0.1725 0.33795,-0.25874 0.33795,-0.25874z" fill="#452f26"/><path d="M229.85731,48.72244c0,0 -0.20277,0.25874 -0.54072,0.60373c-0.27036,0.34499 -0.6759,0.86248 -1.01385,1.37996c-0.20277,0.25874 -0.33795,0.51749 -0.54072,0.77623c-0.13518,0.25874 -0.33795,0.51749 -0.47313,0.68998c-0.13518,0.1725 -0.27036,0.34499 -0.33795,0.51749c-0.06759,0.08625 -0.13518,0.1725 -0.13518,0.1725c0,0 0.06759,-0.34499 0.27036,-0.86248c0.20277,-0.51749 0.47313,-1.12121 0.87866,-1.72495c0.40554,-0.60373 0.81108,-1.03497 1.21662,-1.29371c0.33795,-0.1725 0.6759,-0.25874 0.6759,-0.25874z" fill="#452f26"/><path d="M247.49826,51.74111c0,0 -0.20277,0 -0.40554,-0.08625c-0.27036,-0.08625 -0.60831,-0.1725 -0.94626,-0.34499c-0.33795,-0.1725 -0.60831,-0.34499 -0.81108,-0.43124c-0.13518,-0.08625 -0.20277,-0.1725 -0.27036,-0.1725c-0.06759,0 -0.13518,-0.08625 -0.13518,-0.08625c0,0 0.20277,-0.08625 0.47313,-0.08625c0.27036,0 0.60831,0.08625 0.94626,0.25874c0.33795,0.1725 0.60831,0.34499 0.81108,0.60373c0.20277,0.1725 0.33795,0.34499 0.33795,0.34499z" fill="#452f26"/><path d="M247.2279,50.2749c0,0 -0.13518,0 -0.27036,0c-0.13518,0 -0.33795,0 -0.47313,-0.08625c-0.33795,-0.08625 -0.60831,-0.43124 -0.60831,-0.43124c0,0 0.06759,-0.08625 0.27036,-0.1725c0.13518,-0.08625 0.33795,0 0.54072,0c0.20277,0.08625 0.33795,0.1725 0.47313,0.34499c0,0.25874 0.06759,0.34499 0.06759,0.34499z" fill="#452f26"/><path d="M247.29549,48.2912c0,0 -0.20277,-0.08625 -0.47313,-0.1725c-0.27036,-0.08625 -0.60831,-0.34499 -0.94626,-0.51749c-0.33795,-0.1725 -0.6759,-0.43124 -0.87866,-0.51749c-0.13518,-0.08625 -0.20277,-0.1725 -0.33795,-0.1725c-0.06759,0 -0.13518,-0.08625 -0.13518,-0.08625c0,0 0.20277,-0.08625 0.47313,-0.08625c0.27036,0 0.6759,0.1725 1.01385,0.34499c0.33795,0.1725 0.6759,0.51749 0.87866,0.77623c0.27036,0.25874 0.40554,0.43124 0.40554,0.43124z" fill="#452f26"/></g><g id="Shape"><path d="M228.37034,74.0792c-3.3795,-1.37996 -4.32575,-7.84851 -1.48698,-10.09095c2.83878,-2.24244 4.32575,3.1049 4.32575,3.1049" fill="#875137"/><path d="M226.88336,66.23068c0,0 0.06759,-0.08625 0.13518,-0.25874c0.13518,-0.08625 0.27036,-0.34499 0.54072,-0.43124c0.13518,-0.08625 0.27036,-0.08625 0.47313,0c0.06759,0 0.13518,0.08625 0.27036,0.08625c0.06759,0.08625 0.13518,0.08625 0.20277,0.1725c0.13518,0.1725 0.27036,0.25874 0.40554,0.51749c0.06759,0.1725 0.20277,0.34499 0.27036,0.60373c0.06759,0.1725 0.13518,0.43124 0.20277,0.60373c0.06759,0.1725 0.06759,0.43124 0.13518,0.60373c0.06759,0.43124 0.13518,0.77623 0.13518,1.12121c0.06759,0.68998 0,1.12121 0,1.12121c0,0 -0.13518,-0.43124 -0.27036,-1.03497c-0.06759,-0.34499 -0.20277,-0.68998 -0.27036,-1.03497c-0.06759,-0.1725 -0.13518,-0.34499 -0.20277,-0.60373c-0.06759,-0.1725 -0.13518,-0.34499 -0.20277,-0.51749c-0.06759,-0.1725 -0.13518,-0.34499 -0.20277,-0.51749c-0.06759,-0.1725 -0.20277,-0.25874 -0.27036,-0.43124l-0.13518,-0.1725c-0.06759,0 -0.13518,-0.08625 -0.13518,-0.08625c-0.13518,0 -0.20277,-0.08625 -0.33795,-0.08625c-0.20277,0 -0.40554,0.08625 -0.54072,0.1725c-0.13518,0.08625 -0.20277,0.1725 -0.20277,0.1725z" fill="#613a27"/><path d="M229.18141,67.61064c0,0 -0.20277,0.08625 -0.40554,0.25874c-0.20277,0.1725 -0.47313,0.34499 -0.74349,0.68998c-0.13518,0.1725 -0.20277,0.34499 -0.33795,0.43124c-0.06759,0.1725 -0.20277,0.34499 -0.27036,0.43124c-0.06759,0.1725 -0.13518,0.25874 -0.20277,0.34499c-0.06759,0.08625 -0.06759,0.1725 -0.06759,0.1725c0,0 0,-0.08625 0,-0.1725c0,-0.08625 0,-0.25874 0,-0.43124c0.06759,-0.34499 0.20277,-0.86248 0.47313,-1.20747c0.13518,-0.1725 0.27036,-0.34499 0.47313,-0.43124c0.13518,-0.08625 0.33795,-0.1725 0.47313,-0.1725c0.40554,0 0.60831,0.08625 0.60831,0.08625z" fill="#613a27"/></g><g id="Shape"><path d="M232.29054,59.07215c0,0 -1.01385,7.0723 1.14902,8.53849c2.16287,1.4662 2.16287,3.96739 1.14902,4.57111c0,0 0.81108,-1.37996 -0.06759,-2.24244c0,0 0.40554,1.89745 -1.68974,2.67368c-2.09529,0.77623 -0.13518,4.48487 1.75734,2.84616c0,0 -0.40554,1.03497 -1.21662,1.03497c0,0 2.0277,-0.25874 2.23046,1.29371c0.20277,1.55246 -1.01385,4.05363 -4.25816,1.81119c0,0 1.55457,0.43124 2.16287,-0.1725c0,0 -0.74349,0.1725 -1.01385,-0.25874c0,0 3.44708,-0.25874 2.16287,-1.37996c-1.28421,-1.12121 -5.06924,-0.1725 -4.32575,-3.1049c0.74349,-2.93242 3.64985,-2.58743 3.3119,-3.96739c-0.40554,-1.4662 -2.50082,-1.89745 -2.50082,-4.31238c0,0 -0.74349,2.50117 1.62216,3.79488c0,0 -2.77118,0.1725 -2.16287,-4.48487c0.60831,-4.65736 1.68974,-6.64106 1.68974,-6.64106z" fill="#30231d"/><path d="M231.14152,66.31692c0,0 0,0.1725 0.06759,0.34499c0.06759,0.25874 0.13518,0.51749 0.33795,0.86248c0.20277,0.34499 0.40554,0.68998 0.6759,0.94872c0.13518,0.1725 0.33795,0.25874 0.47313,0.43124l0.27036,0.1725l0.27036,0.25874c0.13518,0.1725 0.33795,0.43124 0.47313,0.68998c0.13518,0.25874 0.13518,0.68998 0.06759,0.94872c-0.06759,0.25874 -0.27036,0.51749 -0.40554,0.60373c-0.13518,0.1725 -0.33795,0.25874 -0.47313,0.34499c-0.27036,0.1725 -0.54072,0.25874 -0.74349,0.25874c-0.20277,0 -0.27036,0 -0.27036,0c0,0 0.40554,-0.1725 0.94626,-0.60373c0.27036,-0.25874 0.54072,-0.51749 0.60831,-0.86248c0.06759,-0.1725 0,-0.34499 -0.06759,-0.51749c-0.06759,-0.1725 -0.20277,-0.34499 -0.33795,-0.51749l-0.27036,-0.25874l-0.27036,-0.25874c-0.20277,-0.1725 -0.33795,-0.34499 -0.47313,-0.51749c-0.27036,-0.34499 -0.54072,-0.77623 -0.6759,-1.20747c-0.13518,-0.34499 -0.20277,-0.77623 -0.20277,-0.94872c-0.06759,-0.08625 0,-0.1725 0,-0.1725z" fill="#120d0b"/><path d="M233.03403,77.09785c0,0 -0.27036,0.08625 -0.60831,0.08625c-0.40554,0 -0.94626,0 -1.41938,-0.34499c-0.27036,-0.1725 -0.47313,-0.34499 -0.6759,-0.60373c-0.20277,-0.25874 -0.27036,-0.60373 -0.20277,-0.86248c0,-0.1725 0,-0.25874 0.06759,-0.34499c0,-0.08625 0.06759,-0.1725 0.06759,-0.25874c0.06759,-0.1725 0.06759,-0.1725 0.06759,-0.1725c0,0 0,0.08625 0,0.25874c0,0.08625 0,0.1725 0,0.25874c0,0.08625 0.06759,0.1725 0.06759,0.25874c0,0.08625 0.06759,0.1725 0.06759,0.34499c0.06759,0.08625 0.13518,0.1725 0.20277,0.25874c0.13518,0.1725 0.33795,0.34499 0.54072,0.43124c0.40554,0.25874 0.87866,0.43124 1.28421,0.51749c0.27036,0.08625 0.54072,0.1725 0.54072,0.1725z" fill="#120d0b"/><path d="M233.43957,67.61064c0,0 -0.13518,0 -0.33795,-0.1725c-0.06759,-0.08625 -0.20277,-0.1725 -0.27036,-0.34499c-0.13518,-0.1725 -0.20277,-0.34499 -0.33795,-0.51749c-0.06759,-0.1725 -0.20277,-0.43124 -0.27036,-0.68998c-0.06759,-0.25874 -0.13518,-0.51749 -0.20277,-0.86248c0,-0.25874 -0.06759,-0.60373 -0.06759,-0.86248c0,-0.34499 0,-0.60373 0,-0.94872c0,-0.60373 0.06759,-1.20747 0.13518,-1.81119c0,-0.25874 0.06759,-0.51749 0.13518,-0.77623c0.06759,-0.25874 0.06759,-0.51749 0.13518,-0.68998c0.20277,-0.86248 0.40554,-1.4662 0.40554,-1.4662c0,0 0,0.60373 -0.13518,1.4662c0,0.43124 -0.06759,0.94872 -0.13518,1.55246c-0.06759,0.51749 -0.06759,1.12121 -0.06759,1.72495c0,0.60373 0,1.20747 0.06759,1.72495c0.06759,0.25874 0.06759,0.51749 0.13518,0.77623c0.06759,0.25874 0.06759,0.43124 0.13518,0.68998c0.06759,0.1725 0.13518,0.34499 0.20277,0.51749c0.06759,0.1725 0.13518,0.25874 0.20277,0.34499c0.13518,0.25874 0.27036,0.34499 0.27036,0.34499z" fill="#120d0b"/></g></g></g></g></g></svg>