<svg version="1.1" xmlns="http://www.w3.org/2000/svg" xmlns:xlink="http://www.w3.org/1999/xlink" width="461.80149" height="318.22242" viewBox="0,0,461.80149,318.22242"><g transform="translate(-13.49232,-22.75633)"><g data-paper-data="{&quot;isPaintingLayer&quot;:true}" fill="none" fill-rule="none" stroke="none" stroke-width="none" stroke-linecap="none" stroke-linejoin="none" stroke-miterlimit="10" stroke-dasharray="" stroke-dashoffset="0" font-family="none" font-weight="none" font-size="none" text-anchor="none" style="mix-blend-mode: normal"><g data-paper-data="{&quot;origPos&quot;:null}" id="head" fill-rule="evenodd"><path d="M97.96067,23.96355c0.37205,-0.24803 0.99214,-0.12402 1.11616,0.37205l3.22445,13.26986c0,0 7.93711,5.82882 10.29344,9.92139c3.96856,6.82096 4.09257,12.40174 4.09257,12.40174c0,0 8.80523,2.60437 10.29344,9.67336c1.48821,7.06899 -3.96856,20.46287 -27.28383,25.05151c-23.31527,4.58864 -42.0419,-1.73624 -50.84713,-15.87423c-8.80523,-14.13798 5.08471,-31.00435 4.34061,-30.01221l-2.60437,-22.19911c-0.12402,-0.49607 0.49607,-0.86812 0.99214,-0.62009l15.0061,9.79737c0,0 5.58078,-2.1083 11.4096,-2.35633c3.47249,-0.24803 6.4489,0 9.3013,0.49607z" fill="#ffab19" stroke="#001026" stroke-width="1.2" stroke-linecap="butt" stroke-linejoin="miter"/><path d="M116.31524,60.42466c0,0 8.5572,2.23231 10.04541,9.3013c1.48821,7.06899 -4.46463,19.84278 -27.53186,24.30741c-30.01221,6.20087 -44.27421,-11.65763 -35.96504,-24.80348c8.30917,-13.26986 22.57116,-1.98428 32.98863,-2.72838c8.92925,-0.62009 9.92139,-8.43318 20.46287,-6.07685z" id="face" fill="#ffffff" stroke="none" stroke-width="1" stroke-linecap="butt" stroke-linejoin="miter"/><path d="M77.24976,73.69452c0,-0.49607 0.49607,-0.86812 0.99214,-0.7441c2.35633,0.86812 9.05327,2.8524 16.49431,3.34847c6.69694,0.37205 10.6655,0 12.52576,-0.37205c0.62009,-0.12402 1.11616,0.49607 0.86812,1.11616c-1.11616,3.34847 -5.82882,12.64977 -18.85064,11.90567c-11.28558,-1.24017 -12.40174,-9.17729 -12.02969,-15.25414z" id="mouth" fill="#ffffff" stroke="#001026" stroke-width="1.2" stroke-linecap="round" stroke-linejoin="round"/><path d="M139.13444,61.78885c-5.82882,4.71266 -14.75807,4.83668 -14.75807,4.83668" id="whisker" fill="none" stroke="#001026" stroke-width="1.2" stroke-linecap="round" stroke-linejoin="round"/><path d="M137.52222,75.6788c-7.8131,0.62009 -12.64977,-1.73624 -12.64977,-1.73624" id="whisker" fill="none" stroke="#001026" stroke-width="1.2" stroke-linecap="round" stroke-linejoin="round"/><path d="M95.3563,63.27706c2.60437,0 5.33275,0.24803 5.45677,1.11616c0.12402,1.73624 -1.73624,5.20873 -3.72052,5.33275c-2.23231,0.24803 -7.44104,-2.8524 -7.44104,-4.83668c-0.12402,-1.48821 3.22445,-1.61223 5.7048,-1.61223z" id="nose" fill="#001026" stroke="#001026" stroke-width="1.2" stroke-linecap="round" stroke-linejoin="round"/><path d="M39.54846,61.4168c0,0 10.6655,3.47249 15.0061,7.31703" id="whisker" fill="none" stroke="#001026" stroke-width="1.2" stroke-linecap="round" stroke-linejoin="round"/><path d="M54.92663,73.07443c-5.33275,2.1083 -14.51003,0.7441 -14.51003,0.7441" id="whisker" fill="none" stroke="#001026" stroke-width="1.2" stroke-linecap="round" stroke-linejoin="round"/><g id="eye"><path d="M109.99035,48.76703c3.5965,5.58078 3.72052,11.90567 0.24803,14.13798c-3.47249,2.23231 -9.17729,-0.37205 -12.89781,-5.95283c-3.5965,-5.58078 -3.72052,-11.90567 -0.24803,-14.13798c3.47249,-2.35633 9.3013,0.37205 12.89781,5.95283z" id="pupil" fill="#ffffff" stroke="#001026" stroke-width="1.2" stroke-linecap="round" stroke-linejoin="round"/><path d="M109.49429,55.83602c0,1.36419 -0.99214,2.48035 -2.23231,2.48035c-1.24017,0 -2.23231,-1.11616 -2.23231,-2.48035c0,-1.36419 0.99214,-2.48035 2.23231,-2.48035c1.24017,0 2.23231,1.11616 2.23231,2.48035" id="pupil" fill="#001026" stroke="none" stroke-width="1" stroke-linecap="butt" stroke-linejoin="miter"/></g><g id="eye"><path d="M79.23404,52.23951c3.72052,5.45677 3.47249,12.1537 0.12402,14.51003c-4.09257,2.35633 -9.54934,0.62009 -13.26986,-4.83668c-3.84454,-5.45677 -4.09257,-12.52576 -0.24803,-15.25414c3.84454,-2.8524 9.67336,0.12402 13.39388,5.58078z" fill="#ffffff" stroke="#001026" stroke-width="1.2" stroke-linecap="round" stroke-linejoin="round"/><path d="M78.48994,59.43252c0,1.36419 -0.99214,2.48035 -2.23231,2.48035c-1.24017,0 -2.23231,-1.11616 -2.23231,-2.48035c0,-1.36419 0.99214,-2.48035 2.23231,-2.48035c1.24017,0.12402 2.23231,1.11616 2.23231,2.48035" id="pupil" fill="#001026" stroke="none" stroke-width="1" stroke-linecap="butt" stroke-linejoin="miter"/></g></g><text transform="translate(13.88317,150.83023) scale(0.7817,0.7817)" font-size="40" xml:space="preserve" data-paper-data="{&quot;origPos&quot;:null}" fill="#7c0404" fill-rule="nonzero" stroke="none" stroke-width="1" stroke-linecap="butt" stroke-linejoin="miter" stroke-miterlimit="10" stroke-dasharray="" stroke-dashoffset="0" font-family="Sans Serif" font-weight="normal" text-anchor="start" style="mix-blend-mode: normal"><tspan x="0" dy="0">Scratch是一款由麻省理工学院</tspan><tspan x="0" dy="46.150000000000006px">(MIT) 设计开发的少儿编程工具。</tspan><tspan x="0" dy="46.150000000000006px">其特点是:使用者可以不认识英文</tspan><tspan x="0" dy="46.150000000000006px">单词，也可以不会使用键盘。构</tspan><tspan x="0" dy="46.150000000000006px">成程序的命令和参数通过积木形</tspan><tspan x="0" dy="46.150000000000006px">状的模块来实现。</tspan></text><g data-paper-data="{&quot;origPos&quot;:null}" id="ID0.5638691666536033" fill-rule="nonzero" stroke="none" stroke-width="0.21464" stroke-linecap="butt" stroke-linejoin="miter"><g id="ID0.003686001989990473" fill="#f7f8f9"><path d="M169.32517,100.34287c-6.45429,0 -11.86779,-5.05687 -12.32384,-11.50878c-0.00447,-0.08411 -0.0078,-0.17093 -0.01433,-0.2563c-0.10529,-2.07152 -0.24371,-6.10449 0.00717,-10.6499c0.16885,-2.96496 0.24386,-7.95238 0.24626,-8.13127c0.00032,-0.01337 0.00032,-0.02326 0.00032,-0.03663c0.04412,-3.0575 1.21886,-5.85791 3.12043,-8.00193c-0.94154,-3.28385 -1.24722,-7.19912 -0.66025,-11.8103l0.08919,-0.72268c0.33371,-2.73097 0.83084,-6.77829 2.88739,-10.67284c3.10912,-5.88054 8.80744,-9.25567 15.63222,-9.25567c0.39248,0 0.79994,0.01099 1.21504,0.03519c0.61134,0.03393 1.28003,0.10672 1.99363,0.23288c2.18159,-1.9245 5.04699,-3.09589 8.17586,-3.09589c0.04014,0 0.08521,0 0.12583,0c6.76873,0.08411 12.25201,5.65117 12.21792,12.41479c0,0.0454 -0.00048,0.0927 -0.00111,0.13777c-0.00207,0.15005 -0.61947,17.43677 -0.80583,18.66583c-0.0137,0.08554 -0.02772,0.16964 -0.04205,0.25375c-0.16311,0.91924 -0.42864,1.79866 -0.77716,2.63046c2.9879,3.51226 4.60227,7.87656 4.65593,12.80647c0.06467,6.20086 -2.77237,12.22269 -7.788,16.51818c-4.30408,3.69211 -9.76681,5.72125 -15.37481,5.72125c-0.00096,0 0,0 -0.00096,0c-0.90904,0 -1.81714,-0.05001 -2.72077,-0.1577c-0.18429,0.2418 -0.38022,0.48073 -0.58299,0.70977c-2.18493,2.47149 -5.20564,3.94648 -8.50207,4.14893c-0.21949,0.01529 -0.49888,0.02454 -0.77302,0.02454z" id="ID0.5371283530257642"/><path d="M195.42204,73.47886c0.03456,3.34597 -1.57678,6.66264 -4.41415,9.09018c-3.17824,2.72348 -7.32097,3.89041 -11.36446,3.2144c-3.13507,-0.52915 -5.73352,-1.76617 -7.71472,-3.04141c-0.0196,2.9355 0.11787,5.03361 0.11787,5.07358c0.09159,1.49028 -1.03426,2.78274 -2.53584,2.87608c-1.49537,0.0994 -2.77876,-1.03695 -2.88277,-2.53345c-0.00749,-0.18573 -0.28369,-4.55336 0,-9.70119c0.17777,-3.19975 0.25916,-8.50447 0.25916,-8.55576c0.01944,-1.50431 1.25948,-2.70023 2.75598,-2.67299c1.49824,0.02883 2.69178,1.2555 2.6749,2.74578c-0.00272,0.0575 -0.00988,0.48137 -0.02388,1.11532c0.11453,1.42147 0.46608,3.67108 1.49984,5.10163c1.22331,1.69608 3.62998,3.15834 4.60084,3.68653c0.67156,0.23972 1.3885,0.43023 2.1416,0.5516c2.42274,0.40778 5.02486,-0.32924 6.94856,-1.97929c1.61485,-1.38436 2.52692,-3.17713 2.50813,-4.91462c-0.04603,-4.49793 -4.92801,-6.17873 -12.23862,-7.33053c-6.71982,-1.04954 -9.57662,-6.46719 -8.48535,-15.03777l0.09541,-0.76346c0.53297,-4.35075 1.42386,-11.89027 9.63301,-11.43965c3.05002,0.17203 5.7931,2.2531 7.91829,4.57663c0.04205,-2.3635 0.05495,-4.69003 0.05495,-4.72157c0.00653,-1.50017 1.22603,-2.70676 2.73144,-2.70389c1.49331,0.01672 2.69751,1.23144 2.68892,2.7238c-0.00414,0.28098 -0.67426,17.23256 -0.69672,17.40077c-0.26569,1.47325 -1.67871,2.4511 -3.1475,2.18812c-1.13715,-0.20516 -1.97882,-1.08888 -2.18398,-2.1604l-0.00176,0.00111c0,0 -0.17187,-1.53106 -0.18079,-1.572c-0.09605,-1.2821 -0.35521,-2.47165 -1.11596,-4.29596c-1.03759,-2.5043 -2.92243,-3.76425 -3.74578,-4.73446c-0.91318,-0.74563 -1.82081,-1.24036 -2.61994,-1.2907c-2.6714,-0.13778 -3.26425,1.0876 -3.95492,6.68987l-0.09876,0.77779c-0.81825,6.44123 0.82908,8.51307 3.94091,8.99921c5.43853,0.85569 16.72669,2.61883 16.83611,12.63668z" id="ID0.6518417396582663"/><path d="M262.94057,97.81211c-2.34661,-0.00272 -4.70613,-0.47419 -7.20421,-1.44441c-2.2128,-0.85537 -3.97722,-2.15801 -5.35824,-3.54445c-0.9159,0.37274 -1.88038,0.63763 -2.88373,0.784l-13.08619,1.91972c-0.61549,0.08682 -1.20452,0.12886 -1.7899,0.12886c-6.10816,0 -11.36749,-4.55942 -12.23448,-10.60849c-0.47419,-3.22332 0.34485,-6.47993 2.31667,-9.12951c0.98773,-1.32828 2.20405,-2.41988 3.58187,-3.2418l-0.00876,-1.89025c-2.51466,-2.26441 -4.10179,-5.54588 -4.10179,-9.18909c0,-2.67808 0.85743,-5.15945 2.30918,-7.18797c-2.91495,-1.892 -5.01545,-4.98265 -5.53187,-8.61629c-0.47754,-3.20039 0.34024,-6.46846 2.31715,-9.12839c1.9758,-2.65515 4.8651,-4.37735 8.14337,-4.85012c2.73273,-0.40269 8.25024,-1.09032 14.12187,-1.09032c13.02948,0 21.32433,3.33721 25.35284,10.20166c2.10369,3.59016 4.50176,10.80855 -1.78051,20.11343c0.59207,1.90475 1.03553,4.02071 1.33753,6.38994c0.04238,0 0.08474,0 0.12711,0c1.2305,0 2.45063,0.18095 3.62743,0.54508c6.53521,2.02119 10.19353,8.95779 8.18222,15.46912c-1.96177,6.32368 -5.08714,10.23863 -10.13683,12.69816c-2.31555,1.11724 -4.75629,1.67155 -7.2966,1.67155c0.00032,-0.00048 0.00032,-0.00048 -0.00414,-0.00048z" id="ID0.49331344943493605"/><path d="M271.16167,80.59181c-1.24132,3.9984 -2.73877,5.70373 -5.14607,6.87784c-2.60593,1.25199 -5.11772,0.55622 -6.78354,-0.09461c-2.26251,-0.87497 -3.57535,-3.36015 -3.91733,-4.10339c-1.09781,-2.34915 -1.44282,-7.69465 -1.47595,-9.00128c-0.16789,-6.78051 -1.25645,-9.67666 -2.13953,-10.9081c-0.63014,-0.89264 -1.2305,-1.09095 -2.32176,-1.2762c-0.35792,-0.06229 -0.93851,0.01163 -0.95317,0.01561h-0.00447v0c-2.05925,0.62742 -4.5239,1.18717 -7.11262,1.60594l0.07104,15.56213l3.92897,-0.58219c1.47595,-0.20722 2.85967,0.81713 3.07439,2.30567c0.21902,1.47738 -0.8103,2.85203 -2.28703,3.0685l-13.0889,1.921c-1.48104,0.21233 -2.86062,-0.81252 -3.07057,-2.29978c-0.22045,-1.475 0.80455,-2.85728 2.28624,-3.0736l3.73383,-0.54364l-0.05702,-15.78928c-0.46368,0.02023 -0.91702,0.03297 -1.36827,0.03297c-1.49586,0 -2.71185,-1.22172 -2.71185,-2.71329c0,-1.50223 1.21599,-2.70883 2.71185,-2.70883c0.44203,0 0.89025,-0.0137 1.34151,-0.04062l-0.05367,-12.62951c-1.42976,0.13268 -2.85265,0.30153 -4.24243,0.50494c-1.48184,0.22428 -2.86381,-0.79388 -3.07201,-2.28242c-0.22396,-1.47898 0.79531,-2.86397 2.28322,-3.07837c5.86445,-0.86635 25.34536,-3.10641 29.78037,4.44489c1.76759,3.02231 0.98025,6.74817 -2.34613,11.06054c-0.01911,0.02692 -0.03552,0.04333 -0.05526,0.06451c-0.12218,0.16311 -1.22093,1.45237 -2.73065,2.44456c2.23654,2.41415 3.6209,6.79103 3.82909,14.75535c0.04683,2.15705 0.54428,5.93453 0.96718,6.84391c0.28034,0.59495 0.77175,1.23288 0.95285,1.34024c1.17887,0.4589 1.91462,0.53647 2.45858,0.27318c0.55081,-0.26187 1.34151,-0.38181 2.33276,-3.60323c0.4331,-1.42355 1.95859,-2.23144 3.39488,-1.7907c1.4288,0.44265 2.23495,1.96369 1.7915,3.39727zM256.04538,48.69755c0,-0.26936 -0.04747,-0.49682 -0.15929,-0.67458c-1.20962,-2.07184 -7.46863,-2.87591 -14.64145,-2.6784l0.04985,12.33754c2.72253,-0.49921 5.25391,-1.21106 7.16599,-1.89137l1.37862,-0.43963c0.87925,-0.26936 1.79038,-0.54126 2.45716,-0.93311c0.71998,-0.42895 1.41191,-1.1596 1.6534,-1.4417c1.35791,-1.75804 2.09542,-3.28831 2.09573,-4.27874z" id="ID0.03588257497176528"/><path d="M354.64184,97.27133c-13.97914,0 -21.98631,-10.51115 -22.66393,-20.89091h0.00447c-0.03138,-0.65307 -0.05941,-1.97133 -0.13093,-5.43469c-0.00096,-0.1115 -0.00382,-0.21982 -0.00096,-0.33132c0.08745,-6.39233 0.10385,-7.63604 0.13189,-8.12186h-0.00096c0.70388,-9.94871 4.14432,-16.88947 10.23065,-20.63175c2.88626,-1.78784 6.18143,-2.69624 9.76825,-2.69624c1.22826,0 2.40108,0.10736 3.49093,0.28067c2.2641,-2.55798 5.57519,-4.17474 9.25534,-4.17474c6.81667,0 12.36206,5.54333 12.36206,12.35522v11.75455c0,1.40347 -0.23956,2.76553 -0.6862,4.04222c1.70023,2.01275 2.77286,4.56626 2.90379,7.35203c0.07376,0.94219 0.11453,1.54571 0.08411,2.18016c-0.09446,3.16184 -0.09923,3.19401 -0.14702,3.62584c-0.00717,0.1029 -0.02023,0.21026 -0.03759,0.31172c-0.28624,2.05543 -1.03218,5.96225 -2.78035,9.03012c-1.12584,1.96575 -2.2958,3.38324 -3.39599,4.62599c-2.2144,2.49411 -4.76188,3.88053 -6.96704,4.91064c-3.67698,1.72889 -6.84836,1.76139 -9.16773,1.78497l-1.4613,0.01545c-0.26536,0.00653 -0.53201,0.01195 -0.79149,0.01195z" id="ID0.9552968591451645"/><path d="M369.67513,71.3277c0,0 0.08443,1.09223 0.07631,1.13429c0,0 -0.08792,2.99507 -0.09923,3.09318c-0.08443,0.60847 -0.56578,3.76346 -1.60752,5.59127c-0.70166,1.22396 -1.45683,2.12552 -2.23767,3.00893c-1.08044,1.21345 -2.5478,1.96655 -3.83164,2.56897c-1.80105,0.84613 -3.3772,0.85808 -5.21138,0.87417l-1.52214,0.01672c-10.14654,0.32589 -13.35936,-7.62026 -13.64002,-11.86382c-0.00351,-0.03425 -0.10529,-5.00494 -0.10529,-5.00494c0,0 0.10179,-7.52232 0.10529,-7.57153c0.48169,-6.76234 2.33132,-11.04922 5.66311,-13.09925c4.25343,-2.62776 9.45907,-0.45875 11.17092,0.25709c1.32686,0.55559 2.52645,1.30503 3.57646,2.12249v-4.82958c0,-1.4906 1.22603,-2.70883 2.71425,-2.70883c1.50574,0 2.71568,1.21823 2.71568,2.70883v11.75455c0,1.21647 -0.80646,2.27365 -1.9758,2.60417c-1.16279,0.32271 -2.41064,-0.15754 -3.04492,-1.19003c-0.02597,-0.03154 -2.47324,-3.95508 -6.07056,-5.45525c-2.92386,-1.21886 -4.96385,-1.43421 -6.24053,-0.63842c-1.65642,1.01275 -2.7547,4.14622 -3.09478,8.80552c-0.00351,0.19927 -0.08521,7.18095 -0.08521,7.26712c0,0.09478 0.08172,4.46862 0.08521,4.65419c0.11342,1.25613 1.00446,6.99412 8.0583,6.76713l1.64974,-0.02135c1.57709,-0.01705 2.24849,-0.02995 2.94489,-0.35107c0.61612,-0.29468 1.64766,-0.77541 2.07232,-1.2582c0.75486,-0.86047 1.18047,-1.39487 1.58776,-2.10673c0.36717,-0.63491 0.76059,-2.42115 0.93294,-3.5422c0.00892,-0.30407 0.06738,-2.44632 0.06738,-2.55496c0,-0.10974 -0.07247,-0.97165 -0.07247,-0.98646c0,-1.47898 1.18222,-2.69226 2.65848,-2.71121c1.50462,-0.02597 2.73717,1.17474 2.76012,2.66518z" id="ID0.7595422235317528"/><path d="M393.18726,101.61842c-2.91319,0 -5.7109,-1.09429 -7.87274,-3.08379c-0.87082,-0.79531 -1.60035,-1.68765 -2.18701,-2.65101l-10.1945,-0.17093c-6.79277,-0.11771 -12.2418,-5.73288 -12.1542,-12.51499c0.08506,-4.94745 3.09239,-9.20294 7.33244,-11.11994l0.03393,-18.94459c-4.23192,-1.96479 -7.17809,-6.25518 -7.17809,-11.22461c0,-6.81348 5.54413,-12.35857 12.35665,-12.35857h11.61948c2.21887,-2.69354 5.56053,-4.44601 9.3189,-4.51959c0,0 14.28672,-0.24434 14.3428,-0.24434c6.70343,0 12.24849,5.45143 12.36238,12.15596c0.07312,4.89376 -2.70706,9.17396 -6.79373,11.24371c0.08267,13.42356 0.13189,21.85874 0.15721,27.41625c3.7461,1.93231 6.40571,5.73384 6.69226,10.19721c0.43485,6.80504 -4.73941,12.69546 -11.53793,13.12999c-5.60801,0.36717 -9.18541,1.00176 -10.1886,1.28608c-0.1956,0.08076 -0.39073,0.15356 -0.5908,0.2179c-1.23973,0.47212 -3.11118,1.18526 -5.51849,1.18526z" id="ID0.5850255782715976"/><path d="M408.86503,89.30525c-6.47675,0.41924 -11.64098,1.26537 -13.20661,1.9758l0.02023,-0.01402c-1.53265,0.56785 -2.74737,1.16821 -3.83737,0.16374c-1.09414,-0.99491 -1.20867,-2.65848 -0.23112,-3.76346c1.50335,-1.68732 3.98025,-1.97786 7.67618,-2.67697c0,-3.64257 -0.04079,-10.46131 -0.09446,-20.68511l-15.99937,2.67044l-0.02915,13.83978l4.67267,0.07486c1.493,0.02023 2.68684,1.24897 2.66438,2.75183c-0.02357,1.49586 -1.25677,2.69274 -2.75439,2.67155l-14.65372,-0.24578c-1.49745,-0.02597 -2.68652,-1.25709 -2.66885,-2.74228c0.02709,-1.51051 1.26171,-2.70644 2.75565,-2.68112l4.56293,0.07933l0.06435,-36.09577h-4.48328c-1.49778,0 -2.70915,-1.21727 -2.70915,-2.71951c0,-1.49537 1.21138,-2.71249 2.70915,-2.71249h14.24516c1.5016,0 2.71982,1.21711 2.71982,2.71249c0,1.50223 -1.21823,2.71951 -2.71982,2.71951h-4.33609l-0.02915,16.85236l15.95478,-2.6671c-0.0387,-6.46926 -0.07056,-12.86431 -0.11325,-18.79644l-4.50924,0.08172c-1.49155,0.02946 -2.73097,-1.17028 -2.74977,-2.6663c-0.02564,-1.49921 1.16215,-2.72762 2.66438,-2.76043l14.11837,-0.23972c1.49602,-0.02119 2.73097,1.17713 2.75422,2.67124c0.02198,1.4957 -1.17601,2.73814 -2.66805,2.76347l-4.17698,0.05878c0.18573,30.31271 0.23384,39.65248 0.22904,44.2882c1.47643,-0.15833 2.80217,-0.25853 3.8111,-0.32654c1.4941,-0.09668 2.78481,1.04173 2.88085,2.53345c0.09605,1.49778 -1.03838,2.78609 -2.53345,2.88452z" id="ID0.6676113284192979"/><path d="M294.25854,87.44337c-2.68461,-0.00143 -5.2402,-0.84996 -7.38993,-2.46273c-0.4664,-0.34247 -0.90157,-0.71519 -1.30981,-1.11039c-1.5368,0.68175 -3.23878,1.06292 -5.02374,1.06292c-0.18573,0 -0.37098,-0.00415 -0.55767,-0.01337l-13.52518,-0.64033c-6.79676,-0.31587 -12.07932,-6.10513 -11.7716,-12.90221c0.2977,-6.61008 5.72078,-11.79597 12.3514,-11.79597c0.05607,0 0.11325,0 0.16996,0.00111c0.6209,-3.11086 2.13572,-10.70676 2.20899,-11.07248c-4.4785,-1.41096 -7.92228,-5.31237 -8.56754,-10.15961c-0.88579,-6.74929 3.86684,-12.96832 10.58747,-13.88389l11.61056,-1.59636c0.55177,-0.07486 1.11724,-0.11373 1.67219,-0.11373c3.40284,0 6.68877,1.42466 9.02216,3.91287c0.84853,0.8995 2.06913,2.66614 2.72285,4.2281l10.19004,24.63095c0.04779,0.11342 0.1029,0.24195 0.16374,0.39169c0.03138,-0.00032 0.06674,-0.00032 0.09717,-0.00032c5.20118,0 9.8764,3.28704 11.63587,8.1843c2.28449,6.40014 -1.04412,13.48026 -7.41765,15.79772c-4.07232,1.45428 -6.67953,2.78847 -7.62043,3.38324c-2.32894,2.62106 -5.71234,4.15881 -9.24786,4.15881c0,-0.00032 0,-0.00032 -0.00096,-0.00032z" id="ID0.7487611640244722"/><path d="M309.46513,67.36067c0.50398,1.40761 -0.22666,2.96352 -1.63332,3.47292c-5.05958,1.81061 -10.1832,4.23814 -11.38835,5.86349c-0.89709,1.20404 -2.60146,1.45636 -3.79596,0.55958c-1.20549,-0.88962 -1.46193,-2.58426 -0.56818,-3.79357c0.95619,-1.28353 2.23319,-2.02262 4.27764,-3.19258l-2.6851,-6.63953l-12.54334,2.07869l-0.62058,4.13491c1.93374,0 2.80791,1.35409 2.74068,2.8584c-0.07486,1.49044 -1.3447,2.64495 -2.83913,2.58028l-13.50096,-0.64033c-1.49475,-0.06977 -2.65674,-1.33306 -2.59224,-2.82606c0.06881,-1.50096 1.34343,-2.65276 2.83769,-2.5881l7.86827,0.38181c1.2555,-6.14512 5.25964,-26.35587 6.2649,-31.29996c-3.50606,0.4734 -7.83308,1.09541 -7.83308,1.09541c-1.48757,0.19066 -2.84963,-0.84246 -3.04859,-2.331c-0.19259,-1.48121 0.83928,-2.84835 2.32383,-3.05002l11.62521,-1.59844c0.86635,-0.12026 1.74099,0.1956 2.34406,0.83912c0.17569,0.18652 0.74466,1.05464 0.84613,1.31762l10.19752,24.65469c0.11946,0.20819 3.48774,8.61055 3.48774,8.61055c2.41032,-1.05926 3.96417,-1.83896 4.76761,-2.12424c1.40522,-0.50382 2.96352,0.23192 3.46751,1.63635zM291.5771,59.81209l-5.96544,-14.73958l-3.32622,16.28084z" id="ID0.18494270835071802"/><path d="M313.4317,95.19775c-6.69561,0 -12.2407,-5.4562 -12.35618,-12.15898c-0.08315,-5.48981 3.42881,-10.20405 8.34964,-11.89472l-0.00717,-3.65132c-0.36588,0.08809 -0.73893,0.16088 -1.11564,0.21774c-0.60752,0.09333 -1.22874,0.13953 -1.8377,0.13953c-6.16216,0 -11.29947,-4.42657 -12.21649,-10.52071l-2.06834,-13.30441c-0.54874,-3.52581 0.4683,-7.1233 2.7915,-9.86383c2.28895,-2.72858 5.68526,-4.32798 9.28752,-4.36908l17.25727,-0.28848c8.38485,-0.15897 15.86669,-0.68765 16.27016,-0.71567c0.05781,-0.00813 0.11596,-0.01163 0.17569,-0.01433c0.26681,-0.01608 0.53409,-0.02692 0.79835,-0.02692c3.30647,0 6.52166,1.34804 8.82559,3.69784c2.48216,2.49299 3.77748,6.01594 3.5051,9.60545c-0.23288,3.07519 -0.30631,7.93756 -0.31697,9.11676c0.13778,5.00494 -2.59908,9.5333 -7.05448,11.61023c-1.6483,0.77652 -3.51434,1.20182 -5.3592,1.20182v0c-1.46639,0 -2.89854,-0.26777 -4.22985,-0.76107l0.01497,7.75757c4.68843,1.71552 8.08682,6.20007 8.15929,11.44776c0.05161,3.30265 -1.19831,6.43437 -3.51434,8.80503c-2.3122,2.36731 -5.40603,3.69211 -8.71313,3.7222c0.00032,0.00063 -16.59973,0.24754 -16.6456,0.24754z" id="ID0.6759674926288426"/><path d="M340.69582,39.19611c0.55831,0.56165 0.83561,1.33259 0.77747,2.12521c-0.29516,3.88451 -0.34916,9.96067 -0.34645,10.00606c0.06404,1.10942 -0.4761,2.23973 -1.48343,2.70739c-1.29436,0.61166 -2.75804,0.27939 -3.44791,-0.97437c-0.23623,-0.40889 -0.54636,-0.95939 -0.54636,-3.85999c0,-1.23591 0.06706,-2.93581 0.20484,-5.18987c-2.73957,0.14974 -6.73734,0.37194 -11.40794,0.50223l0.07008,35.44795l5.39535,-0.08267c1.49523,-0.01131 2.72762,1.17569 2.75088,2.67824c0.0199,1.49172 -1.17952,2.73447 -2.6749,2.74849l-16.52153,0.24721c-1.49204,0.01847 -2.71711,-1.17744 -2.74642,-2.6811c-0.02229,-1.49028 1.17506,-2.7238 2.67124,-2.74977l5.69958,-0.07359l-0.07008,-35.42978c0,0 -10.7778,0.1929 -11.48169,0.19624c0.55145,3.71871 1.64146,10.55384 1.64146,10.67825c0,1.32112 -0.96241,2.47945 -2.31013,2.68192c-1.48153,0.21902 -2.85856,-0.79866 -3.08426,-2.2805l-2.07391,-13.34773c-0.11804,-0.7727 0.11485,-1.55735 0.62185,-2.14909c0.50605,-0.60831 1.24752,-0.95253 2.03425,-0.95827l17.30887,-0.28895c8.88134,-0.1706 16.82353,-0.74021 16.90764,-0.75183c0.78225,-0.04858 1.56165,0.23734 2.11151,0.79835z" id="ID0.6073981705121696"/><path d="M212.06828,100.66668c-13.91703,-0.00351 -21.92165,-10.40109 -22.68814,-20.73129c-0.02357,-0.31523 -0.03281,-0.58156 -0.03488,-0.79309l-0.09843,-5.01497c0,-0.04333 0.09843,-7.51021 0.09843,-7.51021c0.00063,-0.23256 0.01163,-0.49108 0.02978,-0.75741c0.71519,-9.94075 4.15769,-16.87832 10.23479,-20.61693c2.89822,-1.78609 6.18749,-2.69147 9.7665,-2.69147c1.22937,0 2.40316,0.11118 3.49332,0.28385c2.26585,-2.56212 5.57694,-4.18031 9.25949,-4.18031c6.81587,0 12.35697,5.54509 12.35697,12.36175v11.74388c0,1.2657 -0.19322,2.49889 -0.56037,3.6682c1.65164,2.02262 2.68143,4.57342 2.78066,7.34996l0.07582,1.42641c0.01099,0.17298 0.01433,0.34724 0.01433,0.52342c0,0.03074 -0.03584,3.33131 -0.20341,4.57614h0.00063c-0.36127,2.52628 -1.13604,6.1448 -2.78019,9.01609c-1.13445,1.99251 -2.32861,3.41032 -3.35903,4.58538c-2.25932,2.52756 -4.79977,3.9116 -6.99507,4.9366c-3.67092,1.73272 -6.84916,1.76204 -9.16997,1.78433l-1.41606,0.02803c-0.26777,0.00717 -0.53616,0.01195 -0.8028,0.01195c-0.00096,-0.00032 -0.00158,-0.00032 -0.00238,-0.00032z" id="ID0.6494304328225553"/><path d="M227.06973,74.17942l0.08108,1.54842c0,0.03615 -0.08984,3.10912 -0.10497,3.21201c-0.08682,0.60816 -0.56005,3.76315 -1.60481,5.5916c-0.69465,1.22062 -1.45365,2.12073 -2.23384,3.00559c-1.08856,1.21949 -2.54445,1.968 -3.83435,2.57025c-1.80105,0.849 -3.38022,0.8568 -5.21185,0.87433l-1.52309,0.03074c-10.14862,0.30392 -13.35825,-7.62823 -13.6421,-11.8807c-0.00382,-0.03425 -0.00382,-0.07344 -0.00382,-0.11691l-0.09876,-4.79198v-0.09541l0.09876,-7.42068c0,-0.04348 0,-0.0943 0.00382,-0.14766c0.48583,-6.76538 2.33879,-11.05274 5.66997,-13.10101c4.25135,-2.61947 9.46034,-0.45603 11.16647,0.25789c1.33338,0.54938 2.5293,1.30456 3.5833,2.12139v-4.82096c0,-1.49952 1.20962,-2.71536 2.71425,-2.71536c1.49347,0 2.71058,1.21583 2.71058,2.71536v11.74388c0,1.21854 -0.80791,2.27907 -1.97755,2.60624c-1.16517,0.33546 -2.41303,-0.15754 -3.05162,-1.18494c-0.01545,-0.04205 -2.46989,-3.95397 -6.06722,-5.46002c-2.9218,-1.21711 -4.96464,-1.43453 -6.23574,-0.63731c-1.65897,1.01131 -2.75263,4.14511 -3.09414,8.80329c0,0.19975 -0.09063,7.18287 -0.09811,7.27318c0.00749,0.08538 0.09574,4.46576 0.09811,4.65132c0.11389,1.26537 1.00176,6.98694 8.05591,6.77047l1.65611,-0.0266c1.57726,-0.01545 2.24292,-0.0309 2.93756,-0.35935c0.61883,-0.28178 1.64798,-0.76792 2.06817,-1.25342c0.73701,-0.82877 1.19083,-1.39073 1.59589,-2.10401c0.36795,-0.63491 0.75757,-2.42115 0.92864,-3.54158c0.00924,-0.31188 0.06769,-2.43948 0.06897,-2.54954c0,-0.11421 -0.07422,-1.51051 -0.07422,-1.52518c0,-1.47356 1.18126,-2.68891 2.66789,-2.71631c1.49155,-0.02803 2.72651,1.1741 2.75071,2.67299z" id="ID0.548540635034442"/></g><path d="M195.42204,73.47886c0.03456,3.34597 -1.57678,6.66264 -4.41415,9.09018c-3.17824,2.72348 -7.32097,3.89041 -11.36446,3.2144c-3.13507,-0.52915 -5.73352,-1.76617 -7.71472,-3.04141c-0.0196,2.9355 0.11787,5.03361 0.11787,5.07358c0.09159,1.49028 -1.03426,2.78274 -2.53584,2.87608c-1.49537,0.0994 -2.77876,-1.03695 -2.88277,-2.53345c-0.00749,-0.18573 -0.28369,-4.55336 0,-9.70119c0.17777,-3.19975 0.25916,-8.50447 0.25916,-8.55576c0.01944,-1.50431 1.25948,-2.70023 2.75598,-2.67299c1.49824,0.02883 2.69178,1.2555 2.6749,2.74578c-0.00272,0.0575 -0.00988,0.48137 -0.02388,1.11532c0.11453,1.42147 0.46608,3.67108 1.49984,5.10163c1.22331,1.69608 3.62998,3.15834 4.60084,3.68653c0.67156,0.23972 1.3885,0.43023 2.1416,0.5516c2.42274,0.40778 5.02486,-0.32924 6.94856,-1.97929c1.61485,-1.38436 2.52692,-3.17713 2.50813,-4.91462c-0.04603,-4.49793 -4.92801,-6.17873 -12.23862,-7.33053c-6.71982,-1.04954 -9.57662,-6.46719 -8.48535,-15.03777l0.09541,-0.76346c0.53297,-4.35075 1.42386,-11.89027 9.63301,-11.43965c3.05002,0.17203 5.7931,2.2531 7.91829,4.57663c0.04205,-2.3635 0.05495,-4.69003 0.05495,-4.72157c0.00653,-1.50017 1.22603,-2.70676 2.73144,-2.70389c1.49331,0.01672 2.69751,1.23144 2.68892,2.7238c-0.00414,0.28098 -0.67426,17.23256 -0.69672,17.40077c-0.26569,1.47325 -1.67871,2.4511 -3.1475,2.18812c-1.13715,-0.20516 -1.97882,-1.08888 -2.18398,-2.1604l-0.00176,0.00111c0,0 -0.17187,-1.53106 -0.18079,-1.572c-0.09605,-1.2821 -0.35521,-2.47165 -1.11596,-4.29596c-1.03759,-2.5043 -2.92243,-3.76425 -3.74578,-4.73446c-0.91318,-0.74563 -1.82081,-1.24036 -2.61994,-1.2907c-2.6714,-0.13778 -3.26425,1.0876 -3.95492,6.68987l-0.09876,0.77779c-0.81825,6.44123 0.82908,8.51307 3.94091,8.99921c5.43853,0.85569 16.72669,2.61883 16.83611,12.63668z" id="ID0.35181407257914543" fill="#f9a737"/><path d="M271.16167,80.59181c-1.24132,3.9984 -2.73877,5.70373 -5.14607,6.87784c-2.60593,1.25199 -5.11772,0.55622 -6.78354,-0.09461c-2.26251,-0.87497 -3.57535,-3.36015 -3.91733,-4.10339c-1.09781,-2.34915 -1.44282,-7.69465 -1.47595,-9.00128c-0.16789,-6.78051 -1.25645,-9.67666 -2.13953,-10.9081c-0.63014,-0.89264 -1.2305,-1.09095 -2.32176,-1.2762c-0.35792,-0.06229 -0.93851,0.01163 -0.95317,0.01561h-0.00447v0c-2.05925,0.62742 -4.5239,1.18717 -7.11262,1.60594l0.07104,15.56213l3.92897,-0.58219c1.47595,-0.20722 2.85967,0.81713 3.07439,2.30567c0.21902,1.47738 -0.8103,2.85203 -2.28703,3.0685l-13.0889,1.921c-1.48104,0.21233 -2.86062,-0.81252 -3.07057,-2.29978c-0.22045,-1.475 0.80455,-2.85728 2.28624,-3.0736l3.73383,-0.54364l-0.05702,-15.78928c-0.46368,0.02023 -0.91702,0.03297 -1.36827,0.03297c-1.49586,0 -2.71185,-1.22172 -2.71185,-2.71329c0,-1.50223 1.21599,-2.70883 2.71185,-2.70883c0.44203,0 0.89025,-0.0137 1.34151,-0.04062l-0.05367,-12.62951c-1.42976,0.13268 -2.85265,0.30153 -4.24243,0.50494c-1.48184,0.22428 -2.86381,-0.79388 -3.07201,-2.28242c-0.22396,-1.47898 0.79531,-2.86397 2.28322,-3.07837c5.86445,-0.86635 25.34536,-3.10641 29.78037,4.44489c1.76759,3.02231 0.98025,6.74817 -2.34613,11.06054c-0.01911,0.02692 -0.03552,0.04333 -0.05526,0.06451c-0.12218,0.16311 -1.22093,1.45237 -2.73065,2.44456c2.23654,2.41415 3.6209,6.79103 3.82909,14.75535c0.04683,2.15705 0.54428,5.93453 0.96718,6.84391c0.28034,0.59495 0.77175,1.23288 0.95285,1.34024c1.17887,0.4589 1.91462,0.53647 2.45858,0.27318c0.55081,-0.26187 1.34151,-0.38181 2.33276,-3.60323c0.4331,-1.42355 1.95859,-2.23144 3.39488,-1.7907c1.4288,0.44265 2.23495,1.96369 1.7915,3.39727zM256.04538,48.69755c0,-0.26936 -0.04747,-0.49682 -0.15929,-0.67458c-1.20962,-2.07184 -7.46863,-2.87591 -14.64145,-2.6784l0.04985,12.33754c2.72253,-0.49921 5.25391,-1.21106 7.16599,-1.89137l1.37862,-0.43963c0.87925,-0.26936 1.79038,-0.54126 2.45716,-0.93311c0.71998,-0.42895 1.41191,-1.1596 1.6534,-1.4417c1.35791,-1.75804 2.09542,-3.28831 2.09573,-4.27874z" id="ID0.5372724696062505" fill="#f9a737"/><path d="M369.67513,71.3277c0,0 0.08443,1.09223 0.07631,1.13429c0,0 -0.08792,2.99507 -0.09923,3.09318c-0.08443,0.60847 -0.56578,3.76346 -1.60752,5.59127c-0.70166,1.22396 -1.45683,2.12552 -2.23767,3.00893c-1.08044,1.21345 -2.5478,1.96655 -3.83164,2.56897c-1.80105,0.84613 -3.3772,0.85808 -5.21138,0.87417l-1.52214,0.01672c-10.14654,0.32589 -13.35936,-7.62026 -13.64002,-11.86382c-0.00351,-0.03425 -0.10529,-5.00494 -0.10529,-5.00494c0,0 0.10179,-7.52232 0.10529,-7.57153c0.48169,-6.76234 2.33132,-11.04922 5.66311,-13.09925c4.25343,-2.62776 9.45907,-0.45875 11.17092,0.25709c1.32686,0.55559 2.52645,1.30503 3.57646,2.12249v-4.82958c0,-1.4906 1.22603,-2.70883 2.71425,-2.70883c1.50574,0 2.71568,1.21823 2.71568,2.70883v11.75455c0,1.21647 -0.80646,2.27365 -1.9758,2.60417c-1.16279,0.32271 -2.41064,-0.15754 -3.04492,-1.19003c-0.02597,-0.03154 -2.47324,-3.95508 -6.07056,-5.45525c-2.92386,-1.21886 -4.96385,-1.43421 -6.24053,-0.63842c-1.65642,1.01275 -2.7547,4.14622 -3.09478,8.80552c-0.00351,0.19927 -0.08521,7.18095 -0.08521,7.26712c0,0.09478 0.08172,4.46862 0.08521,4.65419c0.11342,1.25613 1.00446,6.99412 8.0583,6.76713l1.64974,-0.02135c1.57709,-0.01705 2.24849,-0.02995 2.94489,-0.35107c0.61612,-0.29468 1.64766,-0.77541 2.07232,-1.2582c0.75486,-0.86047 1.18047,-1.39487 1.58776,-2.10673c0.36717,-0.63491 0.76059,-2.42115 0.93294,-3.5422c0.00892,-0.30407 0.06738,-2.44632 0.06738,-2.55496c0,-0.10974 -0.07247,-0.97165 -0.07247,-0.98646c0,-1.47898 1.18222,-2.69226 2.65848,-2.71121c1.50462,-0.02597 2.73717,1.17474 2.76012,2.66518z" id="ID0.29384369077160954" fill="#f9a737"/><path d="M408.86503,89.30525c-6.47675,0.41924 -11.64098,1.26537 -13.20661,1.9758l0.02023,-0.01402c-1.53265,0.56785 -2.74737,1.16821 -3.83737,0.16374c-1.09414,-0.99491 -1.20867,-2.65848 -0.23112,-3.76346c1.50335,-1.68732 3.98025,-1.97786 7.67618,-2.67697c0,-3.64257 -0.04079,-10.46131 -0.09446,-20.68511l-15.99937,2.67044l-0.02915,13.83978l4.67267,0.07486c1.493,0.02023 2.68684,1.24897 2.66438,2.75183c-0.02357,1.49586 -1.25677,2.69274 -2.75439,2.67155l-14.65372,-0.24578c-1.49745,-0.02597 -2.68652,-1.25709 -2.66885,-2.74228c0.02709,-1.51051 1.26171,-2.70644 2.75565,-2.68112l4.56293,0.07933l0.06435,-36.09577h-4.48328c-1.49778,0 -2.70915,-1.21727 -2.70915,-2.71951c0,-1.49537 1.21138,-2.71249 2.70915,-2.71249h14.24516c1.5016,0 2.71982,1.21711 2.71982,2.71249c0,1.50223 -1.21823,2.71951 -2.71982,2.71951h-4.33609l-0.02915,16.85236l15.95478,-2.6671c-0.0387,-6.46926 -0.07056,-12.86431 -0.11325,-18.79644l-4.50924,0.08172c-1.49155,0.02946 -2.73097,-1.17028 -2.74977,-2.6663c-0.02564,-1.49921 1.16215,-2.72762 2.66438,-2.76043l14.11837,-0.23972c1.49602,-0.02119 2.73097,1.17713 2.75422,2.67124c0.02198,1.4957 -1.17601,2.73814 -2.66805,2.76347l-4.17698,0.05878c0.18573,30.31271 0.23384,39.65248 0.22904,44.2882c1.47643,-0.15833 2.80217,-0.25853 3.8111,-0.32654c1.4941,-0.09668 2.78481,1.04173 2.88085,2.53345c0.09605,1.49778 -1.03838,2.78609 -2.53345,2.88452z" id="ID0.1210463703610003" fill="#f9a737"/><path d="M309.46513,67.36067c0.50398,1.40761 -0.22666,2.96352 -1.63332,3.47292c-5.05958,1.81061 -10.1832,4.23814 -11.38835,5.86349c-0.89709,1.20404 -2.60146,1.45636 -3.79596,0.55958c-1.20549,-0.88962 -1.46193,-2.58426 -0.56818,-3.79357c0.95619,-1.28353 2.23319,-2.02262 4.27764,-3.19258l-2.6851,-6.63953l-12.54334,2.07869l-0.62058,4.13491c1.93374,0 2.80791,1.35409 2.74068,2.8584c-0.07486,1.49044 -1.3447,2.64495 -2.83913,2.58028l-13.50096,-0.64033c-1.49475,-0.06977 -2.65674,-1.33306 -2.59224,-2.82606c0.06881,-1.50096 1.34343,-2.65276 2.83769,-2.5881l7.86827,0.38181c1.2555,-6.14512 5.25964,-26.35587 6.2649,-31.29996c-3.50606,0.4734 -7.83308,1.09541 -7.83308,1.09541c-1.48757,0.19066 -2.84963,-0.84246 -3.04859,-2.331c-0.19259,-1.48121 0.83928,-2.84835 2.32383,-3.05002l11.62521,-1.59844c0.86635,-0.12026 1.74099,0.1956 2.34406,0.83912c0.17569,0.18652 0.74466,1.05464 0.84613,1.31762l10.19752,24.65469c0.11946,0.20819 3.48774,8.61055 3.48774,8.61055c2.41032,-1.05926 3.96417,-1.83896 4.76761,-2.12424c1.40522,-0.50382 2.96352,0.23192 3.46751,1.63635zM291.5771,59.81209l-5.96544,-14.73958l-3.32622,16.28084z" id="ID0.22932930570095778" fill="#f9a737"/><path d="M340.69582,39.19611c0.55831,0.56165 0.83561,1.33259 0.77747,2.12521c-0.29516,3.88451 -0.34916,9.96067 -0.34645,10.00606c0.06404,1.10942 -0.4761,2.23973 -1.48343,2.70739c-1.29436,0.61166 -2.75804,0.27939 -3.44791,-0.97437c-0.23623,-0.40889 -0.54636,-0.95939 -0.54636,-3.85999c0,-1.23591 0.06706,-2.93581 0.20484,-5.18987c-2.73957,0.14974 -6.73734,0.37194 -11.40794,0.50223l0.07008,35.44795l5.39535,-0.08267c1.49523,-0.01131 2.72762,1.17569 2.75088,2.67824c0.0199,1.49172 -1.17952,2.73447 -2.6749,2.74849l-16.52153,0.24721c-1.49204,0.01847 -2.71711,-1.17744 -2.74642,-2.6811c-0.02229,-1.49028 1.17506,-2.7238 2.67124,-2.74977l5.69958,-0.07359l-0.07008,-35.42978c0,0 -10.7778,0.1929 -11.48169,0.19624c0.55145,3.71871 1.64146,10.55384 1.64146,10.67825c0,1.32112 -0.96241,2.47945 -2.31013,2.68192c-1.48153,0.21902 -2.85856,-0.79866 -3.08426,-2.2805l-2.07391,-13.34773c-0.11804,-0.7727 0.11485,-1.55735 0.62185,-2.14909c0.50605,-0.60831 1.24752,-0.95253 2.03425,-0.95827l17.30887,-0.28895c8.88134,-0.1706 16.82353,-0.74021 16.90764,-0.75183c0.78225,-0.04858 1.56165,0.23734 2.11151,0.79835z" id="ID0.5524103571660817" fill="#f9a737"/><path d="M227.06973,74.17942l0.08108,1.54842c0,0.03615 -0.08984,3.10912 -0.10497,3.21201c-0.08682,0.60816 -0.56005,3.76315 -1.60481,5.5916c-0.69465,1.22062 -1.45365,2.12073 -2.23384,3.00559c-1.08856,1.21949 -2.54445,1.968 -3.83435,2.57025c-1.80105,0.849 -3.38022,0.8568 -5.21185,0.87433l-1.52309,0.03074c-10.14862,0.30392 -13.35825,-7.62823 -13.6421,-11.8807c-0.00382,-0.03425 -0.00382,-0.07344 -0.00382,-0.11691l-0.09876,-4.79198v-0.09541l0.09876,-7.42068c0,-0.04348 0,-0.0943 0.00382,-0.14766c0.48583,-6.76538 2.33879,-11.05274 5.66997,-13.10101c4.25135,-2.61947 9.46034,-0.45603 11.16647,0.25789c1.33338,0.54938 2.5293,1.30456 3.5833,2.12139v-4.82096c0,-1.49952 1.20962,-2.71536 2.71425,-2.71536c1.49347,0 2.71058,1.21583 2.71058,2.71536v11.74388c0,1.21854 -0.80791,2.27907 -1.97755,2.60624c-1.16517,0.33546 -2.41303,-0.15754 -3.05162,-1.18494c-0.01545,-0.04205 -2.46989,-3.95397 -6.06722,-5.46002c-2.9218,-1.21711 -4.96464,-1.43453 -6.23574,-0.63731c-1.65897,1.01131 -2.75263,4.14511 -3.09414,8.80329c0,0.19975 -0.09063,7.18287 -0.09811,7.27318c0.00749,0.08538 0.09574,4.46576 0.09811,4.65132c0.11389,1.26537 1.00176,6.98694 8.05591,6.77047l1.65611,-0.0266c1.57726,-0.01545 2.24292,-0.0309 2.93756,-0.35935c0.61883,-0.28178 1.64798,-0.76792 2.06817,-1.25342c0.73701,-0.82877 1.19083,-1.39073 1.59589,-2.10401c0.36795,-0.63491 0.75757,-2.42115 0.92864,-3.54158c0.00924,-0.31188 0.06769,-2.43948 0.06897,-2.54954c0,-0.11421 -0.07422,-1.51051 -0.07422,-1.52518c0,-1.47356 1.18126,-2.68891 2.66789,-2.71631c1.49155,-0.02803 2.72651,1.1741 2.75071,2.67299z" id="ID0.2358239395543933" fill="#f9a737"/></g></g></g></svg>